M48
;Layer_Color=9474304
;FILE_FORMAT=2:5
INCH,TZ
;TYPE=PLATED
T1F00S00C0.01181
T2F00S00C0.03543
T3F00S00C0.04331
T4F00S00C0.06299
T6F00S00C0.07087
T7F00S00C0.08661
%
T01
X-37402Y-41437
Y-37500
Y-33563
X-32480
X-27559
X-23622
X-19685
X-14764
X-9843
Y-37500
Y-41437
X-14764
X-19685
X-23622
X-27559
X-32480
Y-16437
X-37402
Y-12500
Y-8563
X-32480
X-27559
X-23622
X-19685
X-14764
X-9843
Y-12500
Y-16437
X-14764
X-19685
X-23622
X-27559
Y8563
X-23622
X-19685
X-14764
X-9843
Y12500
Y16437
X-14764
X-19685
X-23622
X-27559
X-32480
X-37402
Y12500
Y8563
X-32480
Y33563
X-37402
Y37500
Y41437
X-32480
X-27559
X-23622
X-19685
X-14764
X-9843
Y37500
Y33563
X-14764
X-19685
X-23622
X-27559
X129921Y33465
Y37402
Y41339
X132874Y39370
Y35433
Y31496
X129921Y29528
X172244Y31496
Y35433
Y39370
X175197Y41339
Y37402
Y33465
Y29528
X152264Y60335
X132874Y-31496
Y-35433
Y-39370
X129921Y-41339
Y-37402
Y-33465
Y-29528
X172244Y-31496
Y-35433
Y-39370
X175197Y-41339
Y-37402
Y-33465
Y-29528
X153543Y-60039
X265748Y17717
X270669Y17717
Y13471
X269426Y27559
X265748Y31496
X263779Y24606
X270669Y36417
X280512Y27559
X283465Y24915
X246063Y66929
X127953Y82677
T02
X186772Y-88819
X196772
X206772
X216772
Y-58819
X206772
X196772
X186772
X221457Y-10000
Y0
Y10000
X216535Y63819
X206535
Y73819
X216535
X187008
Y63819
Y83819
X206535
X216535
T03
X256654Y-79724
X266654
X276654
X286654
X286654Y79724
X276654
X266654
X256654
T04
X54434Y55118
X84355
T06
X196000Y-37500
Y-12500
Y12500
Y37500
T07
X24316Y55118
X114473
M30
