G04*
G04 #@! TF.GenerationSoftware,Altium Limited,Altium Designer,18.1.9 (240)*
G04*
G04 Layer_Color=16711935*
%FSLAX25Y25*%
%MOIN*%
G70*
G01*
G75*
%ADD13C,0.01000*%
D13*
X1969Y18400D02*
X2994Y18490D01*
X3988Y18756D01*
X4921Y19191D01*
X5765Y19782D01*
X6492Y20509D01*
X7083Y21353D01*
X7518Y22286D01*
X7784Y23280D01*
X7874Y24306D01*
X1969Y-6600D02*
X2994Y-6510D01*
X3988Y-6244D01*
X4921Y-5809D01*
X5765Y-5218D01*
X6492Y-4490D01*
X7083Y-3647D01*
X7518Y-2714D01*
X7784Y-1720D01*
X7874Y-695D01*
X1969Y-31600D02*
X2994Y-31510D01*
X3988Y-31244D01*
X4921Y-30809D01*
X5765Y-30218D01*
X6492Y-29491D01*
X7083Y-28647D01*
X7518Y-27714D01*
X7784Y-26720D01*
X7874Y-25695D01*
Y-49305D02*
X7784Y-48280D01*
X7518Y-47286D01*
X7083Y-46353D01*
X6492Y-45509D01*
X5765Y-44782D01*
X4921Y-44191D01*
X3988Y-43756D01*
X2994Y-43490D01*
X1969Y-43400D01*
X7874Y-24306D02*
X7784Y-23280D01*
X7518Y-22286D01*
X7083Y-21353D01*
X6492Y-20509D01*
X5765Y-19782D01*
X4921Y-19191D01*
X3988Y-18756D01*
X2994Y-18490D01*
X1969Y-18400D01*
X7874Y695D02*
X7784Y1720D01*
X7518Y2714D01*
X7083Y3647D01*
X6492Y4490D01*
X5765Y5218D01*
X4921Y5809D01*
X3988Y6244D01*
X2994Y6510D01*
X1969Y6600D01*
X7874Y25695D02*
X7784Y26720D01*
X7518Y27714D01*
X7083Y28647D01*
X6492Y29491D01*
X5765Y30218D01*
X4921Y30809D01*
X3988Y31244D01*
X2994Y31510D01*
X1969Y31600D01*
Y43400D02*
X2994Y43490D01*
X3988Y43756D01*
X4921Y44191D01*
X5765Y44782D01*
X6492Y45509D01*
X7083Y46353D01*
X7518Y47286D01*
X7784Y48280D01*
X7874Y49305D01*
X23622Y94488D02*
X22633Y94457D01*
X21648Y94364D01*
X20671Y94209D01*
X19706Y93993D01*
X18756Y93717D01*
X17825Y93382D01*
X16917Y92989D01*
X16035Y92540D01*
X15184Y92037D01*
X14366Y91481D01*
X13584Y90874D01*
X12842Y90220D01*
X12142Y89520D01*
X11488Y88778D01*
X10882Y87997D01*
X10326Y87178D01*
X9822Y86327D01*
X9373Y85445D01*
X8980Y84537D01*
X8645Y83607D01*
X8369Y82657D01*
X8153Y81691D01*
X7998Y80714D01*
X7905Y79729D01*
X7874Y78740D01*
Y-78740D02*
X7905Y-79729D01*
X7998Y-80714D01*
X8153Y-81691D01*
X8369Y-82657D01*
X8645Y-83607D01*
X8980Y-84537D01*
X9373Y-85445D01*
X9822Y-86327D01*
X10326Y-87178D01*
X10882Y-87997D01*
X11488Y-88778D01*
X12142Y-89520D01*
X12842Y-90220D01*
X13584Y-90874D01*
X14366Y-91481D01*
X15184Y-92037D01*
X16035Y-92540D01*
X16917Y-92989D01*
X17825Y-93382D01*
X18756Y-93717D01*
X19706Y-93993D01*
X20671Y-94209D01*
X21648Y-94364D01*
X22633Y-94457D01*
X23622Y-94488D01*
X307087Y78740D02*
X307055Y79729D01*
X306962Y80714D01*
X306808Y81691D01*
X306592Y82657D01*
X306316Y83607D01*
X305981Y84537D01*
X305588Y85445D01*
X305139Y86327D01*
X304635Y87178D01*
X304079Y87997D01*
X303473Y88778D01*
X302818Y89520D01*
X302119Y90220D01*
X301377Y90874D01*
X300595Y91481D01*
X299777Y92037D01*
X298925Y92540D01*
X298044Y92989D01*
X297136Y93382D01*
X296205Y93717D01*
X295255Y93993D01*
X294289Y94209D01*
X293312Y94364D01*
X292327Y94457D01*
X291339Y94488D01*
X291339Y-94488D02*
X292327Y-94457D01*
X293312Y-94364D01*
X294289Y-94209D01*
X295255Y-93993D01*
X296205Y-93717D01*
X297136Y-93382D01*
X298044Y-92989D01*
X298925Y-92540D01*
X299777Y-92037D01*
X300595Y-91481D01*
X301377Y-90874D01*
X302119Y-90220D01*
X302818Y-89520D01*
X303473Y-88778D01*
X304079Y-87997D01*
X304635Y-87178D01*
X305139Y-86327D01*
X305588Y-85445D01*
X305981Y-84537D01*
X306316Y-83606D01*
X306592Y-82657D01*
X306808Y-81691D01*
X306962Y-80714D01*
X307055Y-79729D01*
X307087Y-78740D01*
X7874Y24306D02*
Y25695D01*
X-39370Y31600D02*
X1969D01*
X7874Y-695D02*
Y695D01*
X-39370Y-6600D02*
X1969D01*
X7874Y-25695D02*
Y-24306D01*
X-39370Y-18400D02*
X1969D01*
X-39370Y-31600D02*
X1969D01*
X7874Y-78740D02*
Y-49305D01*
X-39370Y-43400D02*
X1969D01*
X-39370Y6600D02*
X1969D01*
X-39370Y18400D02*
X1969D01*
X-39370Y43400D02*
X1969D01*
X7874Y49305D02*
Y78740D01*
X-39370Y6600D02*
Y18400D01*
Y31600D02*
Y43400D01*
Y-43400D02*
Y-31600D01*
Y-18400D02*
Y-6600D01*
X23622Y94488D02*
X291339D01*
X307087Y0D02*
Y78740D01*
X23622Y-94488D02*
X291339D01*
X307087Y-78740D02*
Y0D01*
M02*
