G04*
G04 #@! TF.GenerationSoftware,Altium Limited,Altium Designer,18.1.9 (240)*
G04*
G04 Layer_Physical_Order=2*
G04 Layer_Color=16711680*
%FSLAX25Y25*%
%MOIN*%
G70*
G01*
G75*
%ADD13C,0.01000*%
%ADD51C,0.02000*%
%ADD52R,0.04921X0.11800*%
%ADD55C,0.02362*%
%ADD56R,0.05906X0.05906*%
%ADD57C,0.05906*%
%ADD58R,0.31496X0.11811*%
%ADD59C,0.09449*%
%ADD60C,0.11811*%
%ADD61O,0.18898X0.09449*%
%ADD62O,0.06890X0.09843*%
%ADD63R,0.04921X0.11806*%
%ADD64R,0.24606X0.37205*%
G36*
X149606Y27559D02*
X132874D01*
X129921Y24606D01*
Y20669D01*
X7874D01*
Y28543D01*
X4921Y31600D01*
X-11811D01*
Y43299D01*
X149606D01*
Y27559D01*
D02*
G37*
G36*
X291339Y94488D02*
X292371D01*
X294418Y94219D01*
X296411Y93684D01*
X298319Y92894D01*
X300107Y91862D01*
X301744Y90606D01*
X303204Y89146D01*
X304461Y87508D01*
X305493Y85720D01*
X306283Y83813D01*
X306817Y81819D01*
X307087Y79772D01*
Y78740D01*
X307087Y78740D01*
Y-78740D01*
X307087D01*
Y-79772D01*
X306817Y-81819D01*
X306283Y-83813D01*
X305493Y-85720D01*
X304461Y-87508D01*
X303204Y-89146D01*
X301744Y-90606D01*
X300107Y-91862D01*
X298319Y-92894D01*
X296411Y-93685D01*
X294418Y-94219D01*
X292371Y-94488D01*
X22590D01*
X20543Y-94219D01*
X18549Y-93685D01*
X16642Y-92894D01*
X14854Y-91862D01*
X13216Y-90606D01*
X11757Y-89146D01*
X10500Y-87508D01*
X9468Y-85720D01*
X8678Y-83813D01*
X8144Y-81819D01*
X7874Y-79772D01*
Y-78740D01*
X8021Y-78301D01*
X27263D01*
X27269Y-78302D01*
X36718D01*
X36724Y-78301D01*
X47244D01*
X47829Y-78185D01*
X48325Y-77853D01*
X48657Y-77357D01*
X48774Y-76772D01*
Y-20669D01*
X92959D01*
Y-76772D01*
X93075Y-77357D01*
X93407Y-77853D01*
X93903Y-78185D01*
X94488Y-78301D01*
X102066D01*
X102072Y-78302D01*
X111521D01*
X111527Y-78301D01*
X129921D01*
X130507Y-78185D01*
X131003Y-77853D01*
X131334Y-77357D01*
X131451Y-76772D01*
X131451Y-46986D01*
X133506Y-44931D01*
X149248Y-44978D01*
X149249Y-44978D01*
X149250Y-44978D01*
X149542Y-44921D01*
X149833Y-44864D01*
X149834Y-44863D01*
X149835Y-44863D01*
X150083Y-44698D01*
X150330Y-44534D01*
X150331Y-44533D01*
X150332Y-44532D01*
X150686Y-44179D01*
X150687Y-44178D01*
X150688Y-44177D01*
X150852Y-43931D01*
X151018Y-43683D01*
X151019Y-43682D01*
X151019Y-43681D01*
X151077Y-43390D01*
X151136Y-43098D01*
X151135Y-43097D01*
X151136Y-43096D01*
Y-27559D01*
X151019Y-26974D01*
X150688Y-26478D01*
X150191Y-26146D01*
X149606Y-26030D01*
X133508D01*
X131451Y-23973D01*
X131451Y-20669D01*
X206693D01*
Y-18504D01*
X200360Y-18502D01*
X200182Y-18001D01*
X200907Y-17406D01*
X201769Y-16355D01*
X202411Y-15155D01*
X202806Y-13854D01*
X202890Y-13000D01*
X196000D01*
X189110D01*
X189194Y-13854D01*
X189589Y-15155D01*
X190231Y-16355D01*
X191094Y-17406D01*
X191815Y-17998D01*
X191636Y-18498D01*
X2547Y-18428D01*
X1969Y-18400D01*
Y-18400D01*
X-6874D01*
Y-13000D01*
X-23622D01*
Y-12000D01*
X-6874D01*
Y-6600D01*
X1969D01*
X2547Y-6572D01*
X3683Y-6346D01*
X4752Y-5903D01*
X5715Y-5260D01*
X6533Y-4441D01*
X7177Y-3478D01*
X7620Y-2409D01*
X7846Y-1273D01*
X7874Y-695D01*
X7874Y-695D01*
Y695D01*
X7874D01*
X7874Y695D01*
X7846Y1273D01*
X7620Y2409D01*
X7177Y3478D01*
X6533Y4441D01*
X5715Y5260D01*
X4752Y5903D01*
X3683Y6346D01*
X2547Y6572D01*
X1969Y6600D01*
Y6600D01*
X-6874D01*
Y12000D01*
X-23622D01*
Y13000D01*
X-6874D01*
Y18400D01*
X1969D01*
X2547Y18428D01*
X191636Y18498D01*
X191815Y17998D01*
X191094Y17407D01*
X190231Y16355D01*
X189589Y15155D01*
X189194Y13854D01*
X189110Y13000D01*
X196000D01*
X202890D01*
X202806Y13854D01*
X202411Y15155D01*
X201769Y16355D01*
X200907Y17407D01*
X200182Y18001D01*
X200360Y18502D01*
X206693Y18504D01*
Y20669D01*
X131451D01*
X131451Y20669D01*
Y23973D01*
X133508Y26030D01*
X149606D01*
X150191Y26146D01*
X150688Y26478D01*
X151019Y26974D01*
X151136Y27559D01*
Y43299D01*
X151019Y43885D01*
X150688Y44381D01*
X150191Y44712D01*
X149606Y44829D01*
X6456D01*
X6265Y45291D01*
X6533Y45559D01*
X7177Y46522D01*
X7620Y47591D01*
X7846Y48727D01*
X7874Y49305D01*
X7874D01*
Y78740D01*
X7874Y79772D01*
X8144Y81819D01*
X8678Y83813D01*
X9468Y85720D01*
X10500Y87508D01*
X11757Y89146D01*
X13216Y90606D01*
X14854Y91862D01*
X16642Y92894D01*
X18549Y93684D01*
X20543Y94219D01*
X22590Y94488D01*
X23622D01*
Y94488D01*
X291339D01*
X291339Y94488D01*
D02*
G37*
G36*
X129921Y-24606D02*
X132874Y-27559D01*
X149606D01*
Y-43096D01*
X149252Y-43449D01*
X132874Y-43400D01*
X129921Y-46353D01*
X129921Y-76772D01*
X94488D01*
Y-20669D01*
X129921D01*
X129921Y-24606D01*
D02*
G37*
G36*
X47244Y-76772D02*
X7874D01*
Y-46260D01*
X4921Y-43387D01*
X-9843D01*
Y-31600D01*
X4921D01*
X7874Y-28543D01*
Y-20669D01*
X47244D01*
Y-76772D01*
D02*
G37*
%LPC*%
G36*
X257154Y85618D02*
Y80224D01*
X261137D01*
Y81201D01*
X260984Y82361D01*
X260536Y83442D01*
X259824Y84371D01*
X258895Y85083D01*
X257814Y85531D01*
X257154Y85618D01*
D02*
G37*
G36*
X256154D02*
X255493Y85531D01*
X254412Y85083D01*
X253484Y84371D01*
X252771Y83442D01*
X252323Y82361D01*
X252170Y81201D01*
Y80224D01*
X256154D01*
Y85618D01*
D02*
G37*
G36*
X210456Y83319D02*
X207035D01*
Y79898D01*
X207567Y79968D01*
X208529Y80366D01*
X209355Y81000D01*
X209988Y81826D01*
X210386Y82787D01*
X210456Y83319D01*
D02*
G37*
G36*
X206035D02*
X202614D01*
X202684Y82787D01*
X203083Y81826D01*
X203716Y81000D01*
X204542Y80366D01*
X205504Y79968D01*
X206035Y79898D01*
Y83319D01*
D02*
G37*
G36*
X266654Y85281D02*
X265598Y85142D01*
X264614Y84734D01*
X263769Y84086D01*
X263120Y83241D01*
X262713Y82257D01*
X262574Y81201D01*
Y78248D01*
X262713Y77192D01*
X263120Y76208D01*
X263769Y75363D01*
X264614Y74715D01*
X265598Y74307D01*
X266654Y74168D01*
X267709Y74307D01*
X268693Y74715D01*
X269538Y75363D01*
X270187Y76208D01*
X270594Y77192D01*
X270733Y78248D01*
Y81201D01*
X270594Y82257D01*
X270187Y83241D01*
X269538Y84086D01*
X268693Y84734D01*
X267709Y85142D01*
X266654Y85281D01*
D02*
G37*
G36*
X261137Y79224D02*
X257154D01*
Y73831D01*
X257814Y73918D01*
X258895Y74366D01*
X259824Y75078D01*
X260536Y76006D01*
X260984Y77088D01*
X261137Y78248D01*
Y79224D01*
D02*
G37*
G36*
X256154D02*
X252170D01*
Y78248D01*
X252323Y77088D01*
X252771Y76006D01*
X253484Y75078D01*
X254412Y74366D01*
X255493Y73918D01*
X256154Y73831D01*
Y79224D01*
D02*
G37*
G36*
X216535Y77402D02*
X215608Y77280D01*
X214744Y76922D01*
X214002Y76353D01*
X213432Y75611D01*
X213074Y74746D01*
X212952Y73819D01*
X213074Y72891D01*
X213432Y72027D01*
X214002Y71285D01*
X214744Y70716D01*
X215608Y70358D01*
X216535Y70236D01*
X217463Y70358D01*
X218327Y70716D01*
X219069Y71285D01*
X219639Y72027D01*
X219997Y72891D01*
X220119Y73819D01*
X219997Y74746D01*
X219639Y75611D01*
X219069Y76353D01*
X218327Y76922D01*
X217463Y77280D01*
X216535Y77402D01*
D02*
G37*
G36*
X206535D02*
X205608Y77280D01*
X204744Y76922D01*
X204002Y76353D01*
X203432Y75611D01*
X203074Y74746D01*
X202952Y73819D01*
X203074Y72891D01*
X203432Y72027D01*
X204002Y71285D01*
X204744Y70716D01*
X205608Y70358D01*
X206535Y70236D01*
X207463Y70358D01*
X208327Y70716D01*
X209069Y71285D01*
X209639Y72027D01*
X209997Y72891D01*
X210119Y73819D01*
X209997Y74746D01*
X209639Y75611D01*
X209069Y76353D01*
X208327Y76922D01*
X207463Y77280D01*
X206535Y77402D01*
D02*
G37*
G36*
X220088Y67372D02*
X212983D01*
Y60266D01*
X220088D01*
Y67372D01*
D02*
G37*
G36*
X190561D02*
X183455D01*
Y60266D01*
X190561D01*
Y67372D01*
D02*
G37*
G36*
X206535Y67402D02*
X205608Y67280D01*
X204744Y66922D01*
X204002Y66353D01*
X203432Y65611D01*
X203074Y64746D01*
X202952Y63819D01*
X203074Y62891D01*
X203432Y62027D01*
X204002Y61285D01*
X204744Y60716D01*
X205608Y60358D01*
X206535Y60236D01*
X207463Y60358D01*
X208327Y60716D01*
X209069Y61285D01*
X209639Y62027D01*
X209997Y62891D01*
X210119Y63819D01*
X209997Y64746D01*
X209639Y65611D01*
X209069Y66353D01*
X208327Y66922D01*
X207463Y67280D01*
X206535Y67402D01*
D02*
G37*
G36*
X84355Y60488D02*
X82965Y60306D01*
X81670Y59769D01*
X80558Y58916D01*
X79705Y57803D01*
X79168Y56508D01*
X78985Y55118D01*
X79168Y53728D01*
X79705Y52433D01*
X80558Y51321D01*
X81670Y50467D01*
X82965Y49931D01*
X84355Y49748D01*
X85745Y49931D01*
X87041Y50467D01*
X88153Y51321D01*
X89006Y52433D01*
X89543Y53728D01*
X89726Y55118D01*
X89543Y56508D01*
X89006Y57803D01*
X88153Y58916D01*
X87041Y59769D01*
X85745Y60306D01*
X84355Y60488D01*
D02*
G37*
G36*
X114473Y61655D02*
X113198Y61529D01*
X111972Y61158D01*
X110842Y60553D01*
X109851Y59741D01*
X109038Y58750D01*
X108434Y57620D01*
X108062Y56393D01*
X107937Y55118D01*
X108062Y53843D01*
X108434Y52617D01*
X109038Y51486D01*
X109851Y50496D01*
X110842Y49683D01*
X111972Y49079D01*
X113198Y48707D01*
X114473Y48581D01*
X115749Y48707D01*
X116975Y49079D01*
X118105Y49683D01*
X119096Y50496D01*
X119909Y51486D01*
X120513Y52617D01*
X120885Y53843D01*
X121010Y55118D01*
X120885Y56393D01*
X120513Y57620D01*
X119909Y58750D01*
X119096Y59741D01*
X118105Y60553D01*
X116975Y61158D01*
X115749Y61529D01*
X114473Y61655D01*
D02*
G37*
G36*
X24316D02*
X23041Y61529D01*
X21814Y61158D01*
X20684Y60553D01*
X19694Y59741D01*
X18881Y58750D01*
X18277Y57620D01*
X17905Y56393D01*
X17779Y55118D01*
X17905Y53843D01*
X18277Y52617D01*
X18881Y51486D01*
X19694Y50496D01*
X20684Y49683D01*
X21814Y49079D01*
X23041Y48707D01*
X24316Y48581D01*
X25591Y48707D01*
X26818Y49079D01*
X27948Y49683D01*
X28938Y50496D01*
X29751Y51486D01*
X30356Y52617D01*
X30727Y53843D01*
X30853Y55118D01*
X30727Y56393D01*
X30356Y57620D01*
X29751Y58750D01*
X28938Y59741D01*
X27948Y60553D01*
X26818Y61158D01*
X25591Y61529D01*
X24316Y61655D01*
D02*
G37*
G36*
X243110Y89704D02*
X243110Y89704D01*
X133858D01*
X133429Y89619D01*
X133065Y89376D01*
X133065Y89376D01*
X128145Y84455D01*
X127953Y84493D01*
X127258Y84355D01*
X126669Y83961D01*
X126275Y83372D01*
X126137Y82677D01*
X126275Y81982D01*
X126669Y81393D01*
X127258Y80999D01*
X127953Y80861D01*
X128648Y80999D01*
X129237Y81393D01*
X129630Y81982D01*
X129769Y82677D01*
X129731Y82869D01*
X134323Y87461D01*
X185211D01*
X185310Y86961D01*
X185216Y86922D01*
X184474Y86353D01*
X183905Y85611D01*
X183547Y84746D01*
X183424Y83819D01*
X183547Y82891D01*
X183905Y82027D01*
X184474Y81285D01*
X185216Y80716D01*
X186080Y80358D01*
X187008Y80235D01*
X187935Y80358D01*
X188800Y80716D01*
X189542Y81285D01*
X190111Y82027D01*
X190469Y82891D01*
X190591Y83819D01*
X190469Y84746D01*
X190111Y85611D01*
X189542Y86353D01*
X188800Y86922D01*
X188706Y86961D01*
X188805Y87461D01*
X203968D01*
X204137Y86961D01*
X203716Y86638D01*
X203083Y85812D01*
X202684Y84851D01*
X202614Y84319D01*
X206535D01*
X210456D01*
X210386Y84851D01*
X209988Y85812D01*
X209355Y86638D01*
X208933Y86961D01*
X209103Y87461D01*
X214738D01*
X214838Y86961D01*
X214744Y86922D01*
X214002Y86353D01*
X213432Y85611D01*
X213074Y84746D01*
X212952Y83819D01*
X213074Y82891D01*
X213432Y82027D01*
X214002Y81285D01*
X214744Y80716D01*
X215608Y80358D01*
X216535Y80235D01*
X217463Y80358D01*
X218133Y80635D01*
X221319Y77449D01*
Y61024D01*
X221319Y61024D01*
X221405Y60594D01*
X221648Y60231D01*
X263970Y17908D01*
X263932Y17717D01*
X264070Y17022D01*
X264464Y16432D01*
X265053Y16039D01*
X265748Y15901D01*
X266443Y16039D01*
X267032Y16432D01*
X267426Y17022D01*
X267564Y17717D01*
X267426Y18411D01*
X267032Y19001D01*
X266443Y19394D01*
X265748Y19533D01*
X265556Y19494D01*
X223563Y61488D01*
Y77913D01*
X223477Y78343D01*
X223234Y78706D01*
X223234Y78707D01*
X219719Y82221D01*
X219997Y82891D01*
X220119Y83819D01*
X219997Y84746D01*
X219639Y85611D01*
X219069Y86353D01*
X218327Y86922D01*
X218233Y86961D01*
X218333Y87461D01*
X242646D01*
X248879Y81228D01*
Y57087D01*
X248878Y57087D01*
X248964Y56657D01*
X249207Y56294D01*
X268891Y36609D01*
X268853Y36417D01*
X268991Y35722D01*
X269385Y35133D01*
X269974Y34740D01*
X270669Y34601D01*
X271364Y34740D01*
X271953Y35133D01*
X272347Y35722D01*
X272485Y36417D01*
X272347Y37112D01*
X271953Y37701D01*
X271364Y38095D01*
X270669Y38233D01*
X270478Y38195D01*
X251121Y57551D01*
Y81693D01*
X251122Y81693D01*
X251036Y82122D01*
X250793Y82486D01*
X250793Y82486D01*
X243903Y89376D01*
X243539Y89619D01*
X243110Y89704D01*
D02*
G37*
G36*
X246063Y68745D02*
X245368Y68607D01*
X244779Y68213D01*
X244385Y67624D01*
X244247Y66929D01*
X244385Y66234D01*
X244779Y65645D01*
X244941Y65536D01*
Y51181D01*
X244941Y51181D01*
X245027Y50752D01*
X245270Y50388D01*
X263970Y31688D01*
X263932Y31496D01*
X264070Y30801D01*
X264464Y30212D01*
X265053Y29818D01*
X265748Y29680D01*
X266443Y29818D01*
X267032Y30212D01*
X267426Y30801D01*
X267564Y31496D01*
X267426Y32191D01*
X267032Y32780D01*
X266443Y33174D01*
X265748Y33312D01*
X265556Y33274D01*
X247184Y51646D01*
Y65536D01*
X247347Y65645D01*
X247741Y66234D01*
X247879Y66929D01*
X247741Y67624D01*
X247347Y68213D01*
X246758Y68607D01*
X246063Y68745D01*
D02*
G37*
G36*
X286654Y85281D02*
X285598Y85142D01*
X284614Y84734D01*
X283769Y84086D01*
X283120Y83241D01*
X282713Y82257D01*
X282574Y81201D01*
Y78248D01*
X282713Y77192D01*
X283120Y76208D01*
X283769Y75363D01*
X284614Y74715D01*
X285532Y74335D01*
Y41055D01*
X271917Y27440D01*
X271390Y27621D01*
X271355Y27902D01*
X277447Y33993D01*
X277690Y34357D01*
X277775Y34786D01*
X277775Y34786D01*
Y74335D01*
X278694Y74715D01*
X279538Y75363D01*
X280187Y76208D01*
X280594Y77192D01*
X280733Y78248D01*
Y81201D01*
X280594Y82257D01*
X280187Y83241D01*
X279538Y84086D01*
X278694Y84734D01*
X277710Y85142D01*
X276654Y85281D01*
X275598Y85142D01*
X274614Y84734D01*
X273769Y84086D01*
X273120Y83241D01*
X272713Y82257D01*
X272574Y81201D01*
Y78248D01*
X272713Y77192D01*
X273120Y76208D01*
X273769Y75363D01*
X274614Y74715D01*
X275532Y74335D01*
Y35251D01*
X269618Y29337D01*
X269426Y29375D01*
X268731Y29237D01*
X268142Y28843D01*
X267749Y28254D01*
X267610Y27559D01*
X267749Y26864D01*
X268142Y26275D01*
X268213Y26228D01*
X268061Y25728D01*
X265172D01*
X265064Y25890D01*
X264475Y26284D01*
X263779Y26422D01*
X263085Y26284D01*
X262495Y25890D01*
X262102Y25301D01*
X261964Y24606D01*
X262102Y23911D01*
X262495Y23322D01*
X263085Y22929D01*
X263779Y22790D01*
X264475Y22929D01*
X265064Y23322D01*
X265172Y23485D01*
X270669D01*
X270669Y23485D01*
X271098Y23570D01*
X271462Y23813D01*
X287447Y39797D01*
X287690Y40161D01*
X287775Y40591D01*
X287775Y40591D01*
Y74335D01*
X288693Y74715D01*
X289538Y75363D01*
X290187Y76208D01*
X290594Y77192D01*
X290733Y78248D01*
Y81201D01*
X290594Y82257D01*
X290187Y83241D01*
X289538Y84086D01*
X288693Y84734D01*
X287709Y85142D01*
X286654Y85281D01*
D02*
G37*
G36*
X196000Y44941D02*
X195879Y44929D01*
X155610D01*
X155025Y44813D01*
X154529Y44481D01*
X154197Y43985D01*
X154081Y43400D01*
Y27559D01*
X154197Y26974D01*
X154529Y26478D01*
X155025Y26146D01*
X155610Y26030D01*
X206693D01*
X207278Y26146D01*
X207774Y26478D01*
X208106Y26974D01*
X208222Y27559D01*
Y43400D01*
X208106Y43985D01*
X207774Y44481D01*
X207278Y44813D01*
X206693Y44929D01*
X196122D01*
X196000Y44941D01*
D02*
G37*
G36*
X270669Y19533D02*
X269974Y19394D01*
X269385Y19001D01*
X268991Y18411D01*
X268853Y17717D01*
X268891Y17525D01*
X262488Y11122D01*
X225009D01*
Y13553D01*
X217904D01*
Y6447D01*
X225009D01*
Y8878D01*
X262953D01*
X262953Y8878D01*
X263382Y8964D01*
X263746Y9207D01*
X268264Y13725D01*
X268764Y13518D01*
X268798Y13186D01*
X256734Y1122D01*
X224838D01*
X224560Y1792D01*
X223991Y2534D01*
X223248Y3103D01*
X222384Y3461D01*
X221457Y3583D01*
X220529Y3461D01*
X219665Y3103D01*
X218923Y2534D01*
X218353Y1792D01*
X217995Y927D01*
X217873Y0D01*
X217995Y-927D01*
X218353Y-1792D01*
X218923Y-2534D01*
X219665Y-3103D01*
X220529Y-3461D01*
X221457Y-3583D01*
X222384Y-3461D01*
X223248Y-3103D01*
X223991Y-2534D01*
X224560Y-1792D01*
X224838Y-1122D01*
X257199D01*
X257199Y-1122D01*
X257628Y-1036D01*
X257992Y-793D01*
X270478Y11693D01*
X270669Y11655D01*
X271364Y11793D01*
X271953Y12187D01*
X272347Y12776D01*
X272485Y13471D01*
X272347Y14166D01*
X271953Y14755D01*
X271364Y15148D01*
X270861Y15249D01*
X270608Y15678D01*
X270593Y15773D01*
X270643Y15856D01*
X270715Y15910D01*
X271364Y16039D01*
X271953Y16432D01*
X272347Y17022D01*
X272485Y17717D01*
X272347Y18411D01*
X271953Y19001D01*
X271364Y19394D01*
X270669Y19533D01*
D02*
G37*
G36*
X195500Y12000D02*
X189110D01*
X189194Y11146D01*
X189589Y9845D01*
X190231Y8645D01*
X191094Y7593D01*
X192145Y6730D01*
X193345Y6089D01*
X194646Y5694D01*
X195500Y5610D01*
Y12000D01*
D02*
G37*
G36*
X202890D02*
X196500D01*
Y5610D01*
X197354Y5694D01*
X198655Y6089D01*
X199855Y6730D01*
X200907Y7593D01*
X201769Y8645D01*
X202411Y9845D01*
X202806Y11146D01*
X202890Y12000D01*
D02*
G37*
G36*
X221957Y-6079D02*
Y-9500D01*
X225378D01*
X225308Y-8968D01*
X224909Y-8007D01*
X224276Y-7181D01*
X223450Y-6547D01*
X222489Y-6149D01*
X221957Y-6079D01*
D02*
G37*
G36*
X220957D02*
X220425Y-6149D01*
X219463Y-6547D01*
X218638Y-7181D01*
X218004Y-8007D01*
X217606Y-8968D01*
X217536Y-9500D01*
X220957D01*
Y-6079D01*
D02*
G37*
G36*
X196500Y-5610D02*
Y-12000D01*
X202890D01*
X202806Y-11146D01*
X202411Y-9845D01*
X201769Y-8645D01*
X200907Y-7593D01*
X199855Y-6730D01*
X198655Y-6089D01*
X197354Y-5694D01*
X196500Y-5610D01*
D02*
G37*
G36*
X195500Y-5610D02*
X194646Y-5694D01*
X193345Y-6089D01*
X192145Y-6730D01*
X191094Y-7593D01*
X190231Y-8645D01*
X189589Y-9845D01*
X189194Y-11146D01*
X189110Y-12000D01*
X195500D01*
Y-5610D01*
D02*
G37*
G36*
X220957Y-10500D02*
X217536D01*
X217606Y-11032D01*
X218004Y-11993D01*
X218638Y-12819D01*
X219463Y-13453D01*
X220425Y-13851D01*
X220957Y-13921D01*
Y-10500D01*
D02*
G37*
G36*
X225378D02*
X221957D01*
Y-13921D01*
X222489Y-13851D01*
X223450Y-13453D01*
X224276Y-12819D01*
X224909Y-11993D01*
X225308Y-11032D01*
X225378Y-10500D01*
D02*
G37*
G36*
X206693Y-26030D02*
X155512D01*
X154927Y-26146D01*
X154430Y-26478D01*
X154099Y-26974D01*
X153982Y-27559D01*
Y-43400D01*
X154099Y-43985D01*
X154430Y-44481D01*
X154927Y-44813D01*
X155512Y-44929D01*
X195879D01*
X196000Y-44941D01*
X196121Y-44929D01*
X206693D01*
X207278Y-44813D01*
X207774Y-44481D01*
X208106Y-43985D01*
X208222Y-43400D01*
Y-27559D01*
X208106Y-26974D01*
X207774Y-26478D01*
X207278Y-26146D01*
X206693Y-26030D01*
D02*
G37*
G36*
X187008Y77402D02*
X186080Y77280D01*
X185216Y76922D01*
X184474Y76353D01*
X183905Y75611D01*
X183838Y75450D01*
X75000D01*
X74376Y75326D01*
X73847Y74972D01*
X57982Y59107D01*
X57119Y59769D01*
X55824Y60306D01*
X54434Y60488D01*
X53044Y60306D01*
X51749Y59769D01*
X50637Y58916D01*
X49783Y57803D01*
X49247Y56508D01*
X49064Y55118D01*
X49247Y53728D01*
X49783Y52433D01*
X50637Y51321D01*
X51749Y50467D01*
X53044Y49931D01*
X54434Y49748D01*
X55824Y49931D01*
X57119Y50467D01*
X58232Y51321D01*
X59085Y52433D01*
X59622Y53728D01*
X59805Y55118D01*
X59665Y56177D01*
X75676Y72188D01*
X151437D01*
Y61925D01*
X150980Y61619D01*
X150586Y61030D01*
X150448Y60335D01*
X150586Y59640D01*
X150980Y59051D01*
X151569Y58657D01*
X152264Y58519D01*
X152959Y58657D01*
X153548Y59051D01*
X153942Y59640D01*
X154080Y60335D01*
X153942Y61030D01*
X153681Y61420D01*
Y72188D01*
X183838D01*
X183905Y72027D01*
X184474Y71285D01*
X185216Y70716D01*
X186080Y70358D01*
X187008Y70236D01*
X187935Y70358D01*
X188605Y70635D01*
X210493Y48748D01*
Y-48748D01*
X207213Y-52028D01*
X160433D01*
X160004Y-52113D01*
X159640Y-52357D01*
X159640Y-52357D01*
X153735Y-58262D01*
X153543Y-58223D01*
X152848Y-58362D01*
X152259Y-58755D01*
X151866Y-59344D01*
X151727Y-60039D01*
X151866Y-60734D01*
X152259Y-61323D01*
X152848Y-61717D01*
X153543Y-61855D01*
X154238Y-61717D01*
X154827Y-61323D01*
X155221Y-60734D01*
X155359Y-60039D01*
X155321Y-59848D01*
X160898Y-54271D01*
X207677D01*
X207677Y-54271D01*
X208106Y-54186D01*
X208470Y-53943D01*
X212407Y-50006D01*
X212407Y-50006D01*
X212650Y-49642D01*
X212736Y-49213D01*
Y49213D01*
X212650Y49642D01*
X212407Y50006D01*
X212407Y50006D01*
X190192Y72221D01*
X190469Y72891D01*
X190591Y73819D01*
X190469Y74746D01*
X190111Y75611D01*
X189542Y76353D01*
X188800Y76922D01*
X187935Y77280D01*
X187008Y77402D01*
D02*
G37*
G36*
X280512Y29375D02*
X279817Y29237D01*
X279228Y28843D01*
X278834Y28254D01*
X278696Y27559D01*
X278834Y26864D01*
X279228Y26275D01*
X279390Y26166D01*
Y-40874D01*
X257409Y-62855D01*
X217165D01*
X217132Y-62355D01*
X217699Y-62280D01*
X218563Y-61922D01*
X219305Y-61353D01*
X219875Y-60611D01*
X220233Y-59746D01*
X220355Y-58819D01*
X220233Y-57891D01*
X219875Y-57027D01*
X219305Y-56285D01*
X218563Y-55716D01*
X217699Y-55358D01*
X216772Y-55235D01*
X215844Y-55358D01*
X214980Y-55716D01*
X214238Y-56285D01*
X213668Y-57027D01*
X213310Y-57891D01*
X213188Y-58819D01*
X213310Y-59746D01*
X213668Y-60611D01*
X214238Y-61353D01*
X214980Y-61922D01*
X215844Y-62280D01*
X216411Y-62355D01*
X216378Y-62855D01*
X207165D01*
X207132Y-62355D01*
X207699Y-62280D01*
X208563Y-61922D01*
X209306Y-61353D01*
X209875Y-60611D01*
X210233Y-59746D01*
X210355Y-58819D01*
X210233Y-57891D01*
X209875Y-57027D01*
X209306Y-56285D01*
X208563Y-55716D01*
X207699Y-55358D01*
X206772Y-55235D01*
X205844Y-55358D01*
X204980Y-55716D01*
X204238Y-56285D01*
X203668Y-57027D01*
X203310Y-57891D01*
X203188Y-58819D01*
X203310Y-59746D01*
X203668Y-60611D01*
X204238Y-61353D01*
X204980Y-61922D01*
X205844Y-62280D01*
X206411Y-62355D01*
X206378Y-62855D01*
X202394D01*
X199955Y-60417D01*
X200233Y-59746D01*
X200355Y-58819D01*
X200233Y-57891D01*
X199875Y-57027D01*
X199305Y-56285D01*
X198563Y-55716D01*
X197699Y-55358D01*
X196772Y-55235D01*
X195844Y-55358D01*
X194980Y-55716D01*
X194238Y-56285D01*
X193668Y-57027D01*
X193310Y-57891D01*
X193188Y-58819D01*
X193310Y-59746D01*
X193668Y-60611D01*
X194238Y-61353D01*
X194980Y-61922D01*
X195844Y-62280D01*
X196772Y-62402D01*
X197699Y-62280D01*
X198369Y-62003D01*
X200690Y-64323D01*
X200483Y-64823D01*
X194362D01*
X189955Y-60417D01*
X190233Y-59746D01*
X190355Y-58819D01*
X190233Y-57891D01*
X189875Y-57027D01*
X189305Y-56285D01*
X188563Y-55716D01*
X187699Y-55358D01*
X186772Y-55235D01*
X185844Y-55358D01*
X184980Y-55716D01*
X184238Y-56285D01*
X183668Y-57027D01*
X183310Y-57891D01*
X183188Y-58819D01*
X183310Y-59746D01*
X183668Y-60611D01*
X184238Y-61353D01*
X184980Y-61922D01*
X185844Y-62280D01*
X186772Y-62402D01*
X187699Y-62280D01*
X188369Y-62003D01*
X193105Y-66738D01*
X193105Y-66738D01*
X193468Y-66981D01*
X193898Y-67066D01*
X193898Y-67066D01*
X259842D01*
X259842Y-67066D01*
X260272Y-66981D01*
X260636Y-66738D01*
X284258Y-43116D01*
X284258Y-43116D01*
X284501Y-42752D01*
X284586Y-42323D01*
Y23522D01*
X284749Y23631D01*
X285142Y24220D01*
X285281Y24915D01*
X285142Y25610D01*
X284749Y26199D01*
X284159Y26593D01*
X283465Y26731D01*
X282770Y26593D01*
X282481Y26400D01*
X282120Y26760D01*
X282190Y26864D01*
X282328Y27559D01*
X282190Y28254D01*
X281796Y28843D01*
X281207Y29237D01*
X280512Y29375D01*
D02*
G37*
G36*
X257154Y-73831D02*
Y-79224D01*
X261137D01*
Y-78248D01*
X260984Y-77088D01*
X260536Y-76006D01*
X259824Y-75078D01*
X258895Y-74365D01*
X257814Y-73918D01*
X257154Y-73831D01*
D02*
G37*
G36*
X256154Y-73831D02*
X255493Y-73918D01*
X254412Y-74365D01*
X253484Y-75078D01*
X252771Y-76006D01*
X252323Y-77088D01*
X252170Y-78248D01*
Y-79224D01*
X256154D01*
Y-73831D01*
D02*
G37*
G36*
X286654Y-74168D02*
X285598Y-74307D01*
X284614Y-74715D01*
X283769Y-75363D01*
X283120Y-76208D01*
X282713Y-77192D01*
X282574Y-78248D01*
Y-81201D01*
X282713Y-82257D01*
X283120Y-83241D01*
X283769Y-84086D01*
X284614Y-84734D01*
X285598Y-85141D01*
X286654Y-85281D01*
X287710Y-85141D01*
X288694Y-84734D01*
X289539Y-84086D01*
X290187Y-83241D01*
X290595Y-82257D01*
X290734Y-81201D01*
Y-78248D01*
X290595Y-77192D01*
X290187Y-76208D01*
X289539Y-75363D01*
X288694Y-74715D01*
X287710Y-74307D01*
X286654Y-74168D01*
D02*
G37*
G36*
X276654D02*
X275598Y-74307D01*
X274614Y-74715D01*
X273769Y-75363D01*
X273120Y-76208D01*
X272713Y-77192D01*
X272574Y-78248D01*
Y-81201D01*
X272713Y-82257D01*
X273120Y-83241D01*
X273769Y-84086D01*
X274614Y-84734D01*
X275598Y-85141D01*
X276654Y-85281D01*
X277710Y-85141D01*
X278694Y-84734D01*
X279538Y-84086D01*
X280187Y-83241D01*
X280594Y-82257D01*
X280733Y-81201D01*
Y-78248D01*
X280594Y-77192D01*
X280187Y-76208D01*
X279538Y-75363D01*
X278694Y-74715D01*
X277710Y-74307D01*
X276654Y-74168D01*
D02*
G37*
G36*
X266654D02*
X265598Y-74307D01*
X264614Y-74715D01*
X263769Y-75363D01*
X263121Y-76208D01*
X262713Y-77192D01*
X262574Y-78248D01*
Y-81201D01*
X262713Y-82257D01*
X263121Y-83241D01*
X263769Y-84086D01*
X264614Y-84734D01*
X265598Y-85141D01*
X266654Y-85281D01*
X267710Y-85141D01*
X268694Y-84734D01*
X269538Y-84086D01*
X270187Y-83241D01*
X270595Y-82257D01*
X270733Y-81201D01*
Y-78248D01*
X270595Y-77192D01*
X270187Y-76208D01*
X269538Y-75363D01*
X268694Y-74715D01*
X267710Y-74307D01*
X266654Y-74168D01*
D02*
G37*
G36*
X261137Y-80224D02*
X257154D01*
Y-85618D01*
X257814Y-85531D01*
X258895Y-85083D01*
X259824Y-84371D01*
X260536Y-83442D01*
X260984Y-82361D01*
X261137Y-81201D01*
Y-80224D01*
D02*
G37*
G36*
X256154D02*
X252170D01*
Y-81201D01*
X252323Y-82361D01*
X252771Y-83442D01*
X253484Y-84371D01*
X254412Y-85083D01*
X255493Y-85531D01*
X256154Y-85618D01*
Y-80224D01*
D02*
G37*
G36*
X217272Y-84898D02*
Y-88319D01*
X220693D01*
X220623Y-87787D01*
X220224Y-86826D01*
X219591Y-86000D01*
X218765Y-85366D01*
X217804Y-84968D01*
X217272Y-84898D01*
D02*
G37*
G36*
X207272D02*
Y-88319D01*
X210693D01*
X210623Y-87787D01*
X210224Y-86826D01*
X209591Y-86000D01*
X208765Y-85366D01*
X207804Y-84968D01*
X207272Y-84898D01*
D02*
G37*
G36*
X197272D02*
Y-88319D01*
X200693D01*
X200623Y-87787D01*
X200224Y-86826D01*
X199591Y-86000D01*
X198765Y-85366D01*
X197803Y-84968D01*
X197272Y-84898D01*
D02*
G37*
G36*
X190724Y-84866D02*
X187272D01*
Y-88319D01*
X190724D01*
Y-84866D01*
D02*
G37*
G36*
X216272Y-84898D02*
X215740Y-84968D01*
X214778Y-85366D01*
X213952Y-86000D01*
X213319Y-86826D01*
X212921Y-87787D01*
X212851Y-88319D01*
X216272D01*
Y-84898D01*
D02*
G37*
G36*
X206272D02*
X205740Y-84968D01*
X204778Y-85366D01*
X203953Y-86000D01*
X203319Y-86826D01*
X202921Y-87787D01*
X202851Y-88319D01*
X206272D01*
Y-84898D01*
D02*
G37*
G36*
X196272D02*
X195740Y-84968D01*
X194778Y-85366D01*
X193953Y-86000D01*
X193319Y-86826D01*
X192921Y-87787D01*
X192851Y-88319D01*
X196272D01*
Y-84898D01*
D02*
G37*
G36*
X186272Y-84866D02*
X182819D01*
Y-88319D01*
X186272D01*
Y-84866D01*
D02*
G37*
G36*
X216272Y-89319D02*
X212851D01*
X212921Y-89851D01*
X213319Y-90812D01*
X213952Y-91638D01*
X214778Y-92272D01*
X215740Y-92670D01*
X216272Y-92740D01*
Y-89319D01*
D02*
G37*
G36*
X206272D02*
X202851D01*
X202921Y-89851D01*
X203319Y-90812D01*
X203953Y-91638D01*
X204778Y-92272D01*
X205740Y-92670D01*
X206272Y-92740D01*
Y-89319D01*
D02*
G37*
G36*
X196272D02*
X192851D01*
X192921Y-89851D01*
X193319Y-90812D01*
X193953Y-91638D01*
X194778Y-92272D01*
X195740Y-92670D01*
X196272Y-92740D01*
Y-89319D01*
D02*
G37*
G36*
X200693D02*
X197272D01*
Y-92740D01*
X197803Y-92670D01*
X198765Y-92272D01*
X199591Y-91638D01*
X200224Y-90812D01*
X200623Y-89851D01*
X200693Y-89319D01*
D02*
G37*
G36*
X220693D02*
X217272D01*
Y-92740D01*
X217804Y-92670D01*
X218765Y-92272D01*
X219591Y-91638D01*
X220224Y-90812D01*
X220623Y-89851D01*
X220693Y-89319D01*
D02*
G37*
G36*
X210693D02*
X207272D01*
Y-92740D01*
X207804Y-92670D01*
X208765Y-92272D01*
X209591Y-91638D01*
X210224Y-90812D01*
X210623Y-89851D01*
X210693Y-89319D01*
D02*
G37*
G36*
X190724D02*
X187272D01*
Y-92772D01*
X190724D01*
Y-89319D01*
D02*
G37*
G36*
X186272D02*
X182819D01*
Y-92772D01*
X186272D01*
Y-89319D01*
D02*
G37*
%LPD*%
G36*
X206693Y27559D02*
X155610D01*
Y43400D01*
X206693D01*
Y27559D01*
D02*
G37*
G36*
Y-43400D02*
X155512D01*
Y-27559D01*
X206693D01*
Y-43400D01*
D02*
G37*
G36*
X282343Y23276D02*
Y-41858D01*
X259720Y-64481D01*
X259672Y-64472D01*
X259507Y-63929D01*
X281305Y-42132D01*
X281305Y-42132D01*
X281548Y-41768D01*
X281633Y-41339D01*
Y23190D01*
X282133Y23437D01*
X282343Y23276D01*
D02*
G37*
D13*
X133858Y88583D02*
X243110D01*
X127953Y82677D02*
X133858Y88583D01*
X160433Y-53150D02*
X207677D01*
X153543Y-60039D02*
X160433Y-53150D01*
X262953Y10000D02*
X270669Y17717D01*
X221457Y10000D02*
X262953D01*
X221457Y0D02*
X257199D01*
X270669Y13471D01*
X243110Y88583D02*
X250000Y81693D01*
X259842Y-65945D02*
X283465Y-42323D01*
X193898Y-65945D02*
X259842D01*
X186772Y-58819D02*
X193898Y-65945D01*
X280512Y-41339D02*
Y27559D01*
X257874Y-63976D02*
X280512Y-41339D01*
X201929Y-63976D02*
X257874D01*
X196772Y-58819D02*
X201929Y-63976D01*
X283465Y-42323D02*
Y24915D01*
X270669Y24606D02*
X286654Y40591D01*
X263779Y24606D02*
X270669D01*
X286654Y40591D02*
Y79724D01*
X269426Y27559D02*
X276654Y34786D01*
Y79724D01*
X250000Y57087D02*
X270669Y36417D01*
X250000Y57087D02*
Y81693D01*
X246063Y51181D02*
X265748Y31496D01*
X246063Y51181D02*
Y66929D01*
X207677Y-53150D02*
X211614Y-49213D01*
X187008Y73819D02*
X211614Y49213D01*
Y-49213D02*
Y49213D01*
X216535Y83819D02*
X222441Y77913D01*
Y61024D02*
Y77913D01*
Y61024D02*
X265748Y17717D01*
X152559Y60630D02*
Y73819D01*
X152264Y60335D02*
X152559Y60630D01*
D51*
X55906Y54724D02*
X75000Y73819D01*
X152559D01*
X187008D01*
D52*
X-7382Y12500D02*
D03*
D55*
X172244Y-31496D02*
D03*
Y-35433D02*
D03*
Y-39370D02*
D03*
X175197Y-41339D02*
D03*
Y-37402D02*
D03*
Y-33465D02*
D03*
Y-29528D02*
D03*
X132874Y-31496D02*
D03*
Y-35433D02*
D03*
Y-39370D02*
D03*
X129921Y-41339D02*
D03*
Y-37402D02*
D03*
Y-33465D02*
D03*
Y-29528D02*
D03*
X132874Y39370D02*
D03*
Y35433D02*
D03*
Y31496D02*
D03*
X129921Y29528D02*
D03*
Y33465D02*
D03*
Y37402D02*
D03*
Y41339D02*
D03*
X175197D02*
D03*
Y37402D02*
D03*
Y33465D02*
D03*
Y29528D02*
D03*
X172244Y31496D02*
D03*
Y35433D02*
D03*
Y39370D02*
D03*
X-37402Y41437D02*
D03*
Y33563D02*
D03*
X-9843D02*
D03*
Y41437D02*
D03*
X-14764Y33563D02*
D03*
Y41437D02*
D03*
X-19685Y33563D02*
D03*
Y41437D02*
D03*
X-23622Y33563D02*
D03*
Y41437D02*
D03*
X-27559Y33563D02*
D03*
Y41437D02*
D03*
X-32480Y33563D02*
D03*
Y41437D02*
D03*
X-37402Y37500D02*
D03*
X-9843D02*
D03*
Y-16437D02*
D03*
Y-8563D02*
D03*
X-37402D02*
D03*
Y-16437D02*
D03*
X-32480Y-8563D02*
D03*
Y-16437D02*
D03*
X-27559Y-8563D02*
D03*
Y-16437D02*
D03*
X-23622Y-8563D02*
D03*
Y-16437D02*
D03*
X-19685Y-8563D02*
D03*
Y-16437D02*
D03*
X-14764Y-8563D02*
D03*
Y-16437D02*
D03*
X-9843Y-12500D02*
D03*
X-37402D02*
D03*
X-9843Y8563D02*
D03*
Y16437D02*
D03*
X-37402D02*
D03*
Y8563D02*
D03*
X-32480Y16437D02*
D03*
Y8563D02*
D03*
X-27559Y16437D02*
D03*
Y8563D02*
D03*
X-23622Y16437D02*
D03*
Y8563D02*
D03*
X-19685Y16437D02*
D03*
Y8563D02*
D03*
X-14764Y16437D02*
D03*
Y8563D02*
D03*
X-9843Y12500D02*
D03*
X-37402D02*
D03*
Y-33563D02*
D03*
Y-41437D02*
D03*
X-9843D02*
D03*
Y-33563D02*
D03*
X-14764Y-41437D02*
D03*
Y-33563D02*
D03*
X-19685Y-41437D02*
D03*
Y-33563D02*
D03*
X-23622Y-41437D02*
D03*
Y-33563D02*
D03*
X-27559Y-41437D02*
D03*
Y-33563D02*
D03*
X-32480Y-41437D02*
D03*
Y-33563D02*
D03*
X-37402Y-37500D02*
D03*
X-9843D02*
D03*
X127953Y82677D02*
D03*
X153543Y-60039D02*
D03*
X270669Y17717D02*
D03*
Y13471D02*
D03*
X283465Y24915D02*
D03*
X280512Y27559D02*
D03*
X269426D02*
D03*
X270669Y36417D02*
D03*
X263779Y24606D02*
D03*
X265748Y31496D02*
D03*
X246063Y66929D02*
D03*
X152264Y60335D02*
D03*
X265748Y17717D02*
D03*
D56*
X221457Y10000D02*
D03*
X216535Y63819D02*
D03*
X187008D02*
D03*
X186772Y-88819D02*
D03*
D57*
X221457Y0D02*
D03*
Y-10000D02*
D03*
X206535Y63819D02*
D03*
X216535Y73819D02*
D03*
X206535D02*
D03*
X216535Y83819D02*
D03*
X206535D02*
D03*
X187008Y73819D02*
D03*
Y83819D02*
D03*
X216772Y-58819D02*
D03*
X206772D02*
D03*
X196772D02*
D03*
X186772D02*
D03*
X216772Y-88819D02*
D03*
X206772D02*
D03*
X196772D02*
D03*
D58*
X-23622Y37500D02*
D03*
Y-12500D02*
D03*
Y12500D02*
D03*
Y-37500D02*
D03*
D59*
X84355Y55118D02*
D03*
X54434D02*
D03*
D60*
X114473D02*
D03*
X24316D02*
D03*
X196000Y-12500D02*
D03*
Y-37500D02*
D03*
Y12500D02*
D03*
Y37500D02*
D03*
D61*
X106797Y-28740D02*
D03*
Y-72047D02*
D03*
X31993D02*
D03*
Y-28740D02*
D03*
D62*
X276654Y79724D02*
D03*
X266654D02*
D03*
X256654D02*
D03*
X286654D02*
D03*
X256654Y-79724D02*
D03*
X286654D02*
D03*
X276654D02*
D03*
X266654D02*
D03*
D63*
X-7382Y-12503D02*
D03*
D64*
X194390Y98D02*
D03*
M02*
