G04*
G04 #@! TF.GenerationSoftware,Altium Limited,Altium Designer,18.1.9 (240)*
G04*
G04 Layer_Color=16711935*
%FSLAX25Y25*%
%MOIN*%
G70*
G01*
G75*
%ADD31C,0.03162*%
%ADD32R,0.06706X0.06706*%
%ADD33C,0.06706*%
%ADD34R,0.32296X0.12611*%
%ADD35C,0.10249*%
%ADD36C,0.12611*%
%ADD37O,0.19698X0.10249*%
%ADD38O,0.07690X0.10642*%
G36*
X102125Y-8874D02*
X101261D01*
Y-8021D01*
X102125D01*
Y-8874D01*
D02*
G37*
G36*
X104934Y-8896D02*
X104070D01*
Y-8021D01*
X104934D01*
Y-8896D01*
D02*
G37*
G36*
X126969Y-9027D02*
X126258Y-9147D01*
Y-14164D01*
X126969Y-14284D01*
Y-14830D01*
X124684D01*
Y-14284D01*
X125395Y-14164D01*
Y-9934D01*
X125373Y-9923D01*
X122312Y-14830D01*
X121449D01*
Y-9147D01*
X120738Y-9027D01*
Y-8469D01*
X123023D01*
Y-9027D01*
X122312Y-9147D01*
Y-13377D01*
X122334D01*
X125395Y-8469D01*
X126969D01*
Y-9027D01*
D02*
G37*
G36*
X115765D02*
X115055Y-9147D01*
Y-14164D01*
X115765Y-14284D01*
Y-14830D01*
X111186D01*
Y-13431D01*
X111918D01*
X111984Y-14164D01*
X114191D01*
Y-9147D01*
X113481Y-9027D01*
Y-8469D01*
X115765D01*
Y-9027D01*
D02*
G37*
G36*
X108573Y-10032D02*
X108715Y-10054D01*
X108858Y-10087D01*
X108989Y-10131D01*
X109240Y-10240D01*
X109448Y-10360D01*
X109623Y-10480D01*
X109688Y-10546D01*
X109743Y-10590D01*
X109787Y-10633D01*
X109819Y-10666D01*
X109841Y-10688D01*
X109852Y-10699D01*
X109961Y-10830D01*
X110049Y-10961D01*
X110125Y-11103D01*
X110202Y-11245D01*
X110311Y-11519D01*
X110377Y-11781D01*
X110399Y-11901D01*
X110421Y-12021D01*
X110431Y-12120D01*
X110442Y-12207D01*
X110453Y-12273D01*
Y-12327D01*
Y-12360D01*
Y-12371D01*
Y-12568D01*
X110442Y-12765D01*
X110431Y-12940D01*
X110366Y-13278D01*
X110322Y-13431D01*
X110267Y-13574D01*
X110213Y-13694D01*
X110158Y-13814D01*
X110115Y-13923D01*
X110060Y-14011D01*
X110005Y-14087D01*
X109961Y-14153D01*
X109929Y-14208D01*
X109896Y-14240D01*
X109885Y-14262D01*
X109874Y-14273D01*
X109754Y-14382D01*
X109634Y-14481D01*
X109513Y-14568D01*
X109382Y-14645D01*
X109240Y-14710D01*
X109109Y-14765D01*
X108858Y-14841D01*
X108748Y-14863D01*
X108639Y-14885D01*
X108540Y-14896D01*
X108453Y-14907D01*
X108387Y-14918D01*
X108289D01*
X108081Y-14907D01*
X107885Y-14896D01*
X107721Y-14863D01*
X107579Y-14830D01*
X107458Y-14809D01*
X107371Y-14776D01*
X107316Y-14765D01*
X107294Y-14754D01*
X107141Y-14688D01*
X107010Y-14623D01*
X106890Y-14557D01*
X106792Y-14492D01*
X106715Y-14437D01*
X106661Y-14393D01*
X106628Y-14360D01*
X106617Y-14349D01*
X106956Y-13792D01*
X107141Y-13934D01*
X107240Y-14000D01*
X107327Y-14043D01*
X107404Y-14076D01*
X107469Y-14109D01*
X107513Y-14120D01*
X107524Y-14131D01*
X107655Y-14175D01*
X107786Y-14197D01*
X107907Y-14218D01*
X108027Y-14240D01*
X108136D01*
X108213Y-14251D01*
X108289D01*
X108497Y-14229D01*
X108694Y-14186D01*
X108847Y-14109D01*
X108989Y-14033D01*
X109087Y-13956D01*
X109163Y-13880D01*
X109218Y-13836D01*
X109229Y-13814D01*
X109338Y-13639D01*
X109415Y-13453D01*
X109481Y-13268D01*
X109524Y-13093D01*
X109546Y-12940D01*
X109557Y-12808D01*
X109568Y-12765D01*
Y-12732D01*
Y-12710D01*
Y-12699D01*
X109557Y-12677D01*
X106486D01*
Y-12131D01*
Y-11956D01*
X106508Y-11792D01*
X106562Y-11486D01*
X106639Y-11224D01*
X106682Y-11103D01*
X106726Y-11005D01*
X106781Y-10907D01*
X106825Y-10830D01*
X106868Y-10764D01*
X106901Y-10699D01*
X106934Y-10655D01*
X106956Y-10622D01*
X106967Y-10611D01*
X106977Y-10601D01*
X107076Y-10502D01*
X107185Y-10404D01*
X107294Y-10327D01*
X107415Y-10262D01*
X107655Y-10163D01*
X107885Y-10098D01*
X108092Y-10054D01*
X108180Y-10043D01*
X108267Y-10032D01*
X108333Y-10021D01*
X108420D01*
X108573Y-10032D01*
D02*
G37*
G36*
X98332D02*
X98474Y-10054D01*
X98616Y-10087D01*
X98747Y-10131D01*
X98999Y-10240D01*
X99206Y-10360D01*
X99381Y-10480D01*
X99447Y-10546D01*
X99501Y-10590D01*
X99545Y-10633D01*
X99578Y-10666D01*
X99600Y-10688D01*
X99611Y-10699D01*
X99720Y-10830D01*
X99808Y-10961D01*
X99884Y-11103D01*
X99961Y-11245D01*
X100070Y-11519D01*
X100135Y-11781D01*
X100157Y-11901D01*
X100179Y-12021D01*
X100190Y-12120D01*
X100201Y-12207D01*
X100212Y-12273D01*
Y-12327D01*
Y-12360D01*
Y-12371D01*
Y-12568D01*
X100201Y-12765D01*
X100190Y-12940D01*
X100124Y-13278D01*
X100081Y-13431D01*
X100026Y-13574D01*
X99971Y-13694D01*
X99917Y-13814D01*
X99873Y-13923D01*
X99818Y-14011D01*
X99764Y-14087D01*
X99720Y-14153D01*
X99687Y-14208D01*
X99654Y-14240D01*
X99643Y-14262D01*
X99633Y-14273D01*
X99512Y-14382D01*
X99392Y-14481D01*
X99272Y-14568D01*
X99141Y-14645D01*
X98999Y-14710D01*
X98867Y-14765D01*
X98616Y-14841D01*
X98507Y-14863D01*
X98397Y-14885D01*
X98299Y-14896D01*
X98212Y-14907D01*
X98146Y-14918D01*
X98048D01*
X97840Y-14907D01*
X97643Y-14896D01*
X97479Y-14863D01*
X97337Y-14830D01*
X97217Y-14809D01*
X97130Y-14776D01*
X97075Y-14765D01*
X97053Y-14754D01*
X96900Y-14688D01*
X96769Y-14623D01*
X96649Y-14557D01*
X96550Y-14492D01*
X96474Y-14437D01*
X96419Y-14393D01*
X96386Y-14360D01*
X96375Y-14349D01*
X96714Y-13792D01*
X96900Y-13934D01*
X96999Y-14000D01*
X97086Y-14043D01*
X97162Y-14076D01*
X97228Y-14109D01*
X97272Y-14120D01*
X97283Y-14131D01*
X97414Y-14175D01*
X97545Y-14197D01*
X97665Y-14218D01*
X97785Y-14240D01*
X97895D01*
X97971Y-14251D01*
X98048D01*
X98255Y-14229D01*
X98452Y-14186D01*
X98605Y-14109D01*
X98747Y-14033D01*
X98846Y-13956D01*
X98922Y-13880D01*
X98977Y-13836D01*
X98988Y-13814D01*
X99097Y-13639D01*
X99173Y-13453D01*
X99239Y-13268D01*
X99283Y-13093D01*
X99305Y-12940D01*
X99316Y-12808D01*
X99326Y-12765D01*
Y-12732D01*
Y-12710D01*
Y-12699D01*
X99316Y-12677D01*
X96244D01*
Y-12131D01*
Y-11956D01*
X96266Y-11792D01*
X96321Y-11486D01*
X96397Y-11224D01*
X96441Y-11103D01*
X96485Y-11005D01*
X96539Y-10907D01*
X96583Y-10830D01*
X96627Y-10764D01*
X96660Y-10699D01*
X96692Y-10655D01*
X96714Y-10622D01*
X96725Y-10611D01*
X96736Y-10601D01*
X96834Y-10502D01*
X96944Y-10404D01*
X97053Y-10327D01*
X97173Y-10262D01*
X97414Y-10163D01*
X97643Y-10098D01*
X97851Y-10054D01*
X97938Y-10043D01*
X98026Y-10032D01*
X98091Y-10021D01*
X98179D01*
X98332Y-10032D01*
D02*
G37*
G36*
X119831Y-14830D02*
X118968D01*
Y-13956D01*
X119831D01*
Y-14830D01*
D02*
G37*
G36*
X105644Y-10666D02*
X104934Y-10786D01*
Y-14164D01*
X105644Y-14284D01*
Y-14830D01*
X103360D01*
Y-14284D01*
X104070Y-14164D01*
Y-10109D01*
X105644D01*
Y-10666D01*
D02*
G37*
G36*
X92747Y-10032D02*
X92900Y-10054D01*
X93042Y-10087D01*
X93162Y-10120D01*
X93260Y-10163D01*
X93337Y-10196D01*
X93381Y-10218D01*
X93402Y-10229D01*
X93523Y-10316D01*
X93643Y-10404D01*
X93741Y-10502D01*
X93818Y-10601D01*
X93894Y-10677D01*
X93938Y-10743D01*
X93971Y-10786D01*
X93982Y-10808D01*
X94047Y-10109D01*
X95523D01*
Y-10666D01*
X94813Y-10786D01*
Y-14164D01*
X95523Y-14284D01*
Y-14830D01*
X93239D01*
Y-14284D01*
X93960Y-14164D01*
Y-11388D01*
X93894Y-11278D01*
X93818Y-11180D01*
X93741Y-11103D01*
X93665Y-11027D01*
X93599Y-10983D01*
X93545Y-10939D01*
X93512Y-10917D01*
X93501Y-10907D01*
X93392Y-10841D01*
X93282Y-10797D01*
X93173Y-10764D01*
X93064Y-10743D01*
X92976Y-10732D01*
X92911Y-10721D01*
X92845D01*
X92670Y-10732D01*
X92506Y-10764D01*
X92375Y-10808D01*
X92277Y-10852D01*
X92189Y-10896D01*
X92135Y-10939D01*
X92102Y-10972D01*
X92091Y-10983D01*
X92003Y-11092D01*
X91949Y-11235D01*
X91905Y-11377D01*
X91872Y-11519D01*
X91850Y-11661D01*
X91839Y-11770D01*
Y-11814D01*
Y-11836D01*
Y-11857D01*
Y-11868D01*
Y-14164D01*
X92550Y-14284D01*
Y-14830D01*
X90266D01*
Y-14284D01*
X90976Y-14164D01*
Y-11847D01*
Y-11683D01*
X90998Y-11519D01*
X91020Y-11377D01*
X91042Y-11235D01*
X91074Y-11114D01*
X91107Y-11005D01*
X91151Y-10896D01*
X91184Y-10808D01*
X91271Y-10655D01*
X91337Y-10557D01*
X91380Y-10491D01*
X91402Y-10469D01*
X91577Y-10316D01*
X91763Y-10207D01*
X91960Y-10131D01*
X92146Y-10076D01*
X92320Y-10043D01*
X92397Y-10032D01*
X92452D01*
X92506Y-10021D01*
X92583D01*
X92747Y-10032D01*
D02*
G37*
G36*
X102813Y-10666D02*
X102103Y-10786D01*
Y-15213D01*
X102114Y-15366D01*
X102125Y-15497D01*
X102157Y-15607D01*
X102190Y-15683D01*
X102223Y-15749D01*
X102245Y-15803D01*
X102267Y-15825D01*
X102278Y-15836D01*
X102343Y-15902D01*
X102420Y-15945D01*
X102496Y-15989D01*
X102562Y-16011D01*
X102627Y-16022D01*
X102682Y-16033D01*
X102780D01*
X102846Y-16022D01*
X102890Y-16011D01*
X102912D01*
X102988Y-16000D01*
X103043Y-15989D01*
X103076Y-15978D01*
X103086D01*
X103141Y-16656D01*
X103054Y-16678D01*
X102977Y-16700D01*
X102933Y-16710D01*
X102912D01*
X102824Y-16721D01*
X102748Y-16732D01*
X102660D01*
X102420Y-16710D01*
X102212Y-16667D01*
X102037Y-16612D01*
X101895Y-16536D01*
X101775Y-16459D01*
X101687Y-16404D01*
X101644Y-16361D01*
X101622Y-16339D01*
X101491Y-16175D01*
X101403Y-16000D01*
X101338Y-15814D01*
X101283Y-15628D01*
X101261Y-15464D01*
X101250Y-15333D01*
X101239Y-15279D01*
Y-15246D01*
Y-15224D01*
Y-15213D01*
Y-10109D01*
X102813D01*
Y-10666D01*
D02*
G37*
G36*
X81073Y2413D02*
X80363Y2282D01*
Y-3183D01*
X81073Y-3303D01*
Y-3850D01*
X78789D01*
Y-3303D01*
X79500Y-3183D01*
Y-363D01*
X79423Y-264D01*
X79347Y-177D01*
X79270Y-101D01*
X79194Y-35D01*
X79117Y20D01*
X79062Y52D01*
X79030Y74D01*
X79019Y85D01*
X78909Y140D01*
X78789Y184D01*
X78680Y216D01*
X78581Y238D01*
X78505Y249D01*
X78428Y260D01*
X78374D01*
X78199Y249D01*
X78046Y216D01*
X77915Y173D01*
X77805Y118D01*
X77729Y63D01*
X77663Y20D01*
X77631Y-13D01*
X77620Y-24D01*
X77532Y-144D01*
X77478Y-276D01*
X77434Y-418D01*
X77401Y-560D01*
X77379Y-691D01*
X77368Y-789D01*
Y-833D01*
Y-866D01*
Y-877D01*
Y-888D01*
Y-3183D01*
X78089Y-3303D01*
Y-3850D01*
X75794D01*
Y-3303D01*
X76516Y-3183D01*
Y-888D01*
Y-713D01*
X76538Y-560D01*
X76548Y-407D01*
X76581Y-276D01*
X76614Y-144D01*
X76647Y-35D01*
X76680Y63D01*
X76723Y162D01*
X76767Y238D01*
X76800Y315D01*
X76865Y413D01*
X76909Y479D01*
X76931Y501D01*
X77106Y654D01*
X77292Y763D01*
X77488Y850D01*
X77674Y905D01*
X77849Y938D01*
X77926Y949D01*
X77980D01*
X78035Y960D01*
X78111D01*
X78275Y949D01*
X78417Y927D01*
X78549Y905D01*
X78669Y872D01*
X78767Y828D01*
X78833Y807D01*
X78887Y785D01*
X78898Y774D01*
X79030Y697D01*
X79139Y610D01*
X79237Y522D01*
X79325Y446D01*
X79401Y369D01*
X79456Y304D01*
X79489Y260D01*
X79500Y249D01*
Y2960D01*
X81073D01*
Y2413D01*
D02*
G37*
G36*
X86801Y949D02*
X86954Y927D01*
X87096Y905D01*
X87216Y872D01*
X87314Y828D01*
X87391Y807D01*
X87435Y785D01*
X87457Y774D01*
X87588Y697D01*
X87697Y621D01*
X87795Y533D01*
X87883Y457D01*
X87948Y380D01*
X87992Y315D01*
X88025Y271D01*
X88036Y260D01*
X88101Y872D01*
X89577D01*
Y315D01*
X88867Y195D01*
Y-3183D01*
X89577Y-3303D01*
Y-3850D01*
X87293D01*
Y-3303D01*
X88014Y-3183D01*
Y-352D01*
X87959Y-243D01*
X87894Y-155D01*
X87828Y-79D01*
X87763Y-13D01*
X87708Y31D01*
X87664Y63D01*
X87631Y85D01*
X87621Y96D01*
X87522Y151D01*
X87413Y195D01*
X87304Y216D01*
X87205Y238D01*
X87118Y249D01*
X87041Y260D01*
X86976D01*
X86812Y249D01*
X86670Y216D01*
X86549Y162D01*
X86440Y107D01*
X86364Y52D01*
X86309Y-2D01*
X86276Y-35D01*
X86265Y-46D01*
X86178Y-177D01*
X86123Y-330D01*
X86079Y-483D01*
X86047Y-647D01*
X86025Y-789D01*
X86014Y-909D01*
Y-953D01*
Y-986D01*
Y-1008D01*
Y-1019D01*
Y-3183D01*
X86724Y-3303D01*
Y-3850D01*
X84440D01*
Y-3303D01*
X85150Y-3183D01*
Y-855D01*
X85128Y-680D01*
X85085Y-527D01*
X85030Y-396D01*
X84975Y-276D01*
X84921Y-177D01*
X84877Y-111D01*
X84844Y-68D01*
X84833Y-57D01*
X84724Y52D01*
X84604Y129D01*
X84484Y184D01*
X84374Y216D01*
X84265Y249D01*
X84188Y260D01*
X84112D01*
X83948Y249D01*
X83806Y216D01*
X83686Y162D01*
X83576Y118D01*
X83500Y63D01*
X83445Y9D01*
X83412Y-24D01*
X83402Y-35D01*
X83325Y-155D01*
X83259Y-308D01*
X83216Y-472D01*
X83194Y-636D01*
X83172Y-778D01*
X83161Y-909D01*
Y-953D01*
Y-986D01*
Y-1008D01*
Y-1019D01*
Y-3183D01*
X83872Y-3303D01*
Y-3850D01*
X81576D01*
Y-3303D01*
X82287Y-3183D01*
Y-1030D01*
Y-844D01*
X82309Y-680D01*
X82330Y-527D01*
X82352Y-374D01*
X82385Y-243D01*
X82418Y-122D01*
X82462Y-13D01*
X82494Y85D01*
X82538Y173D01*
X82582Y249D01*
X82615Y315D01*
X82647Y369D01*
X82669Y402D01*
X82691Y435D01*
X82713Y457D01*
X82789Y544D01*
X82877Y621D01*
X83063Y752D01*
X83259Y839D01*
X83445Y894D01*
X83609Y938D01*
X83675Y949D01*
X83740D01*
X83795Y960D01*
X83861D01*
X84035Y949D01*
X84199Y927D01*
X84342Y883D01*
X84462Y839D01*
X84571Y796D01*
X84648Y752D01*
X84691Y730D01*
X84713Y719D01*
X84844Y632D01*
X84965Y522D01*
X85063Y413D01*
X85150Y315D01*
X85216Y227D01*
X85260Y151D01*
X85292Y107D01*
X85303Y85D01*
X85380Y238D01*
X85456Y369D01*
X85544Y490D01*
X85620Y577D01*
X85697Y654D01*
X85762Y697D01*
X85806Y730D01*
X85817Y741D01*
X85948Y817D01*
X86090Y872D01*
X86221Y905D01*
X86353Y938D01*
X86462Y949D01*
X86549Y960D01*
X86626D01*
X86801Y949D01*
D02*
G37*
G36*
X119252Y1954D02*
X118542Y1834D01*
Y-3183D01*
X119252Y-3303D01*
Y-3850D01*
X116968D01*
Y-3303D01*
X117678Y-3183D01*
Y-1041D01*
X114596D01*
Y-3183D01*
X115306Y-3303D01*
Y-3850D01*
X113022D01*
Y-3303D01*
X113732Y-3183D01*
Y1834D01*
X113022Y1954D01*
Y2512D01*
X115306D01*
Y1954D01*
X114596Y1834D01*
Y-363D01*
X117678D01*
Y1834D01*
X116968Y1954D01*
Y2512D01*
X119252D01*
Y1954D01*
D02*
G37*
G36*
X61246Y872D02*
X61990D01*
Y238D01*
X61246D01*
Y-2636D01*
X61235Y-2877D01*
X61203Y-3073D01*
X61148Y-3248D01*
X61093Y-3390D01*
X61039Y-3500D01*
X60984Y-3565D01*
X60951Y-3620D01*
X60940Y-3631D01*
X60809Y-3729D01*
X60678Y-3806D01*
X60536Y-3861D01*
X60405Y-3893D01*
X60285Y-3915D01*
X60186Y-3937D01*
X60099D01*
X59935Y-3926D01*
X59782Y-3915D01*
X59727Y-3904D01*
X59683D01*
X59651Y-3893D01*
X59640D01*
X59476Y-3850D01*
X59421Y-3828D01*
X59367Y-3806D01*
X59323Y-3795D01*
X59290Y-3773D01*
X59279Y-3762D01*
X59268D01*
X59388Y-3183D01*
X59465Y-3194D01*
X59541Y-3216D01*
X59607Y-3227D01*
X59629D01*
X59727Y-3238D01*
X59880D01*
X59957Y-3227D01*
X60033Y-3216D01*
X60153Y-3172D01*
X60197Y-3150D01*
X60230Y-3128D01*
X60241Y-3106D01*
X60252D01*
X60295Y-3041D01*
X60328Y-2975D01*
X60361Y-2822D01*
X60372Y-2746D01*
X60383Y-2691D01*
Y-2647D01*
Y-2636D01*
Y238D01*
X59487D01*
Y872D01*
X60383D01*
Y2020D01*
X61246D01*
Y872D01*
D02*
G37*
G36*
X126969Y1954D02*
X126258Y1834D01*
Y-3183D01*
X126969Y-3303D01*
Y-3850D01*
X124684D01*
Y-3303D01*
X125395Y-3183D01*
Y-1041D01*
X122935D01*
Y-363D01*
X125395D01*
Y1834D01*
X122859D01*
X122782Y981D01*
X122050D01*
Y2512D01*
X126969D01*
Y1954D01*
D02*
G37*
G36*
X121088Y-3850D02*
X120225D01*
Y-2975D01*
X121088D01*
Y-3850D01*
D02*
G37*
G36*
X112060D02*
X111196D01*
Y-2975D01*
X112060D01*
Y-3850D01*
D02*
G37*
G36*
X110224Y1954D02*
X109513Y1834D01*
Y-3183D01*
X110224Y-3303D01*
Y-3850D01*
X107163D01*
X106814Y-3828D01*
X106508Y-3773D01*
X106245Y-3708D01*
X106136Y-3664D01*
X106027Y-3620D01*
X105939Y-3576D01*
X105852Y-3533D01*
X105786Y-3500D01*
X105721Y-3467D01*
X105677Y-3434D01*
X105644Y-3412D01*
X105633Y-3390D01*
X105622D01*
X105524Y-3303D01*
X105436Y-3205D01*
X105360Y-3095D01*
X105294Y-2986D01*
X105196Y-2767D01*
X105119Y-2549D01*
X105087Y-2352D01*
X105076Y-2276D01*
X105065Y-2199D01*
X105054Y-2145D01*
Y-2090D01*
Y-2068D01*
Y-2057D01*
X105065Y-1849D01*
X105108Y-1653D01*
X105163Y-1478D01*
X105218Y-1336D01*
X105283Y-1204D01*
X105338Y-1117D01*
X105382Y-1062D01*
X105393Y-1041D01*
X105524Y-888D01*
X105677Y-767D01*
X105819Y-658D01*
X105972Y-592D01*
X106103Y-538D01*
X106202Y-494D01*
X106245Y-483D01*
X106278D01*
X106289Y-472D01*
X106300D01*
X106136Y-407D01*
X106005Y-330D01*
X105874Y-243D01*
X105775Y-166D01*
X105699Y-90D01*
X105633Y-35D01*
X105600Y9D01*
X105589Y20D01*
X105502Y151D01*
X105436Y282D01*
X105382Y413D01*
X105349Y533D01*
X105327Y632D01*
X105316Y708D01*
Y763D01*
Y785D01*
X105327Y938D01*
X105338Y1091D01*
X105404Y1353D01*
X105491Y1572D01*
X105600Y1757D01*
X105710Y1900D01*
X105797Y1998D01*
X105863Y2053D01*
X105874Y2074D01*
X105885D01*
X106114Y2217D01*
X106366Y2326D01*
X106617Y2402D01*
X106868Y2457D01*
X107087Y2490D01*
X107185Y2501D01*
X107273D01*
X107338Y2512D01*
X110224D01*
Y1954D01*
D02*
G37*
G36*
X104026Y-3850D02*
X103163D01*
Y-2975D01*
X104026D01*
Y-3850D01*
D02*
G37*
G36*
X67553Y949D02*
X67684Y927D01*
X67794Y894D01*
X67892Y861D01*
X67979Y817D01*
X68034Y785D01*
X68078Y763D01*
X68089Y752D01*
X68198Y675D01*
X68296Y577D01*
X68373Y490D01*
X68449Y391D01*
X68515Y315D01*
X68559Y249D01*
X68580Y205D01*
X68591Y184D01*
X68668Y872D01*
X70154D01*
Y315D01*
X69444Y195D01*
Y-3183D01*
X70154Y-3303D01*
Y-3850D01*
X67870D01*
Y-3303D01*
X68580Y-3183D01*
Y-472D01*
X68526Y-363D01*
X68471Y-276D01*
X68406Y-199D01*
X68351Y-133D01*
X68296Y-90D01*
X68252Y-57D01*
X68231Y-35D01*
X68220Y-24D01*
X68132Y31D01*
X68034Y74D01*
X67936Y96D01*
X67848Y118D01*
X67772Y129D01*
X67706Y140D01*
X67651D01*
X67160Y118D01*
X67050Y916D01*
X67094Y927D01*
X67149D01*
X67192Y938D01*
X67214D01*
X67291Y949D01*
X67356Y960D01*
X67422D01*
X67553Y949D01*
D02*
G37*
G36*
X97818Y2577D02*
X98135Y2523D01*
X98288Y2479D01*
X98419Y2435D01*
X98540Y2392D01*
X98649Y2348D01*
X98758Y2304D01*
X98846Y2260D01*
X98922Y2217D01*
X98977Y2173D01*
X99031Y2140D01*
X99064Y2118D01*
X99086Y2107D01*
X99097Y2096D01*
X99206Y1998D01*
X99305Y1900D01*
X99392Y1801D01*
X99458Y1692D01*
X99523Y1594D01*
X99578Y1495D01*
X99654Y1299D01*
X99698Y1124D01*
X99709Y1047D01*
X99720Y981D01*
X99731Y938D01*
Y894D01*
Y872D01*
Y861D01*
X99720Y730D01*
X99709Y610D01*
X99643Y380D01*
X99556Y173D01*
X99447Y9D01*
X99338Y-133D01*
X99250Y-232D01*
X99185Y-297D01*
X99173Y-308D01*
X99163Y-319D01*
X98933Y-483D01*
X98682Y-625D01*
X98419Y-746D01*
X98157Y-844D01*
X97938Y-920D01*
X97840Y-953D01*
X97753Y-975D01*
X97687Y-997D01*
X97632Y-1008D01*
X97600Y-1019D01*
X97589D01*
X97436Y-1062D01*
X97304Y-1095D01*
X97173Y-1139D01*
X97053Y-1183D01*
X96856Y-1270D01*
X96692Y-1347D01*
X96572Y-1412D01*
X96496Y-1467D01*
X96441Y-1511D01*
X96430Y-1522D01*
X96321Y-1642D01*
X96244Y-1762D01*
X96179Y-1882D01*
X96146Y-2002D01*
X96124Y-2101D01*
X96102Y-2177D01*
Y-2232D01*
Y-2254D01*
X96113Y-2418D01*
X96157Y-2571D01*
X96222Y-2691D01*
X96288Y-2800D01*
X96364Y-2888D01*
X96419Y-2942D01*
X96463Y-2986D01*
X96485Y-2997D01*
X96638Y-3084D01*
X96802Y-3150D01*
X96977Y-3205D01*
X97141Y-3238D01*
X97283Y-3259D01*
X97403Y-3270D01*
X97512D01*
X97687Y-3259D01*
X97840Y-3248D01*
X97982Y-3227D01*
X98102Y-3205D01*
X98212Y-3183D01*
X98277Y-3161D01*
X98332Y-3139D01*
X98343D01*
X98463Y-3084D01*
X98572Y-3030D01*
X98682Y-2975D01*
X98769Y-2921D01*
X98835Y-2877D01*
X98889Y-2844D01*
X98922Y-2822D01*
X98933Y-2811D01*
X99097Y-1893D01*
X99742D01*
Y-3073D01*
X99600Y-3216D01*
X99447Y-3336D01*
X99294Y-3445D01*
X99141Y-3533D01*
X99010Y-3609D01*
X98911Y-3664D01*
X98867Y-3686D01*
X98835Y-3697D01*
X98824Y-3708D01*
X98813D01*
X98594Y-3784D01*
X98365Y-3839D01*
X98146Y-3882D01*
X97949Y-3904D01*
X97774Y-3926D01*
X97698D01*
X97632Y-3937D01*
X97512D01*
X97151Y-3915D01*
X96824Y-3861D01*
X96681Y-3828D01*
X96550Y-3795D01*
X96419Y-3751D01*
X96310Y-3708D01*
X96211Y-3664D01*
X96124Y-3620D01*
X96048Y-3587D01*
X95982Y-3554D01*
X95938Y-3522D01*
X95905Y-3500D01*
X95884Y-3478D01*
X95873D01*
X95763Y-3390D01*
X95665Y-3292D01*
X95578Y-3194D01*
X95501Y-3084D01*
X95446Y-2986D01*
X95392Y-2877D01*
X95315Y-2680D01*
X95271Y-2505D01*
X95261Y-2440D01*
X95250Y-2374D01*
X95239Y-2319D01*
Y-2276D01*
Y-2254D01*
Y-2243D01*
X95250Y-2112D01*
X95261Y-1980D01*
X95315Y-1751D01*
X95403Y-1543D01*
X95501Y-1369D01*
X95599Y-1226D01*
X95676Y-1128D01*
X95741Y-1062D01*
X95752Y-1041D01*
X95763D01*
X95862Y-953D01*
X95982Y-866D01*
X96222Y-724D01*
X96474Y-592D01*
X96725Y-494D01*
X96944Y-418D01*
X97042Y-385D01*
X97130Y-352D01*
X97195Y-330D01*
X97250Y-319D01*
X97283Y-308D01*
X97294D01*
X97589Y-232D01*
X97829Y-144D01*
X98037Y-68D01*
X98212Y9D01*
X98343Y74D01*
X98430Y129D01*
X98485Y162D01*
X98507Y173D01*
X98627Y282D01*
X98725Y402D01*
X98791Y522D01*
X98835Y632D01*
X98857Y730D01*
X98867Y807D01*
X98878Y850D01*
Y872D01*
X98867Y1036D01*
X98824Y1189D01*
X98758Y1320D01*
X98693Y1430D01*
X98627Y1517D01*
X98561Y1572D01*
X98518Y1615D01*
X98507Y1626D01*
X98354Y1725D01*
X98190Y1801D01*
X98015Y1845D01*
X97840Y1889D01*
X97687Y1911D01*
X97567Y1922D01*
X97294D01*
X97151Y1900D01*
X97020Y1889D01*
X96911Y1867D01*
X96824Y1845D01*
X96747Y1834D01*
X96703Y1812D01*
X96692D01*
X96572Y1768D01*
X96474Y1725D01*
X96386Y1681D01*
X96310Y1637D01*
X96244Y1594D01*
X96201Y1572D01*
X96179Y1550D01*
X96168Y1539D01*
X96004Y632D01*
X95359D01*
Y1812D01*
X95490Y1932D01*
X95632Y2042D01*
X95774Y2129D01*
X95916Y2217D01*
X96048Y2282D01*
X96146Y2326D01*
X96211Y2359D01*
X96222Y2370D01*
X96233D01*
X96441Y2446D01*
X96660Y2501D01*
X96856Y2544D01*
X97053Y2566D01*
X97217Y2588D01*
X97283D01*
X97337Y2599D01*
X97643D01*
X97818Y2577D01*
D02*
G37*
G36*
X92484Y949D02*
X92659Y927D01*
X92812Y894D01*
X92965Y850D01*
X93107Y807D01*
X93228Y741D01*
X93348Y686D01*
X93457Y621D01*
X93545Y555D01*
X93632Y501D01*
X93698Y435D01*
X93752Y391D01*
X93807Y347D01*
X93840Y315D01*
X93851Y293D01*
X93862Y282D01*
X93960Y151D01*
X94047Y9D01*
X94124Y-133D01*
X94189Y-276D01*
X94288Y-560D01*
X94353Y-833D01*
X94386Y-964D01*
X94397Y-1073D01*
X94408Y-1183D01*
X94419Y-1270D01*
X94430Y-1347D01*
Y-1401D01*
Y-1434D01*
Y-1445D01*
Y-1543D01*
X94419Y-1740D01*
X94408Y-1915D01*
X94342Y-2254D01*
X94299Y-2407D01*
X94255Y-2549D01*
X94200Y-2680D01*
X94146Y-2800D01*
X94091Y-2910D01*
X94036Y-2997D01*
X93993Y-3084D01*
X93949Y-3150D01*
X93916Y-3205D01*
X93883Y-3238D01*
X93872Y-3259D01*
X93862Y-3270D01*
X93752Y-3390D01*
X93632Y-3489D01*
X93512Y-3576D01*
X93381Y-3653D01*
X93249Y-3718D01*
X93118Y-3773D01*
X92867Y-3850D01*
X92648Y-3904D01*
X92550Y-3915D01*
X92473Y-3926D01*
X92408Y-3937D01*
X92309D01*
X92135Y-3926D01*
X91960Y-3904D01*
X91796Y-3871D01*
X91654Y-3828D01*
X91512Y-3784D01*
X91380Y-3729D01*
X91271Y-3664D01*
X91162Y-3598D01*
X91074Y-3543D01*
X90987Y-3478D01*
X90921Y-3423D01*
X90856Y-3369D01*
X90812Y-3336D01*
X90779Y-3303D01*
X90768Y-3281D01*
X90757Y-3270D01*
X90659Y-3139D01*
X90572Y-3008D01*
X90495Y-2866D01*
X90430Y-2724D01*
X90331Y-2429D01*
X90255Y-2155D01*
X90233Y-2035D01*
X90222Y-1915D01*
X90211Y-1806D01*
X90200Y-1718D01*
X90189Y-1642D01*
Y-1587D01*
Y-1554D01*
Y-1543D01*
Y-1445D01*
X90200Y-1248D01*
X90211Y-1073D01*
X90276Y-734D01*
X90320Y-581D01*
X90375Y-439D01*
X90430Y-308D01*
X90473Y-188D01*
X90528Y-79D01*
X90583Y9D01*
X90637Y96D01*
X90681Y162D01*
X90714Y216D01*
X90746Y249D01*
X90757Y271D01*
X90768Y282D01*
X90878Y402D01*
X90998Y501D01*
X91118Y599D01*
X91249Y675D01*
X91380Y741D01*
X91501Y796D01*
X91752Y872D01*
X91971Y927D01*
X92069Y938D01*
X92146Y949D01*
X92211Y960D01*
X92309D01*
X92484Y949D01*
D02*
G37*
G36*
X73226D02*
X73401Y927D01*
X73554Y894D01*
X73707Y850D01*
X73849Y807D01*
X73969Y741D01*
X74089Y686D01*
X74199Y621D01*
X74286Y555D01*
X74373Y501D01*
X74439Y435D01*
X74494Y391D01*
X74548Y347D01*
X74581Y315D01*
X74592Y293D01*
X74603Y282D01*
X74701Y151D01*
X74789Y9D01*
X74865Y-133D01*
X74931Y-276D01*
X75029Y-560D01*
X75095Y-833D01*
X75128Y-964D01*
X75138Y-1073D01*
X75149Y-1183D01*
X75160Y-1270D01*
X75171Y-1347D01*
Y-1401D01*
Y-1434D01*
Y-1445D01*
Y-1543D01*
X75160Y-1740D01*
X75149Y-1915D01*
X75084Y-2254D01*
X75040Y-2407D01*
X74996Y-2549D01*
X74942Y-2680D01*
X74887Y-2800D01*
X74832Y-2910D01*
X74778Y-2997D01*
X74734Y-3084D01*
X74690Y-3150D01*
X74657Y-3205D01*
X74625Y-3238D01*
X74614Y-3259D01*
X74603Y-3270D01*
X74494Y-3390D01*
X74373Y-3489D01*
X74253Y-3576D01*
X74122Y-3653D01*
X73991Y-3718D01*
X73860Y-3773D01*
X73608Y-3850D01*
X73390Y-3904D01*
X73291Y-3915D01*
X73215Y-3926D01*
X73149Y-3937D01*
X73051D01*
X72876Y-3926D01*
X72701Y-3904D01*
X72537Y-3871D01*
X72395Y-3828D01*
X72253Y-3784D01*
X72122Y-3729D01*
X72013Y-3664D01*
X71903Y-3598D01*
X71816Y-3543D01*
X71728Y-3478D01*
X71663Y-3423D01*
X71597Y-3369D01*
X71553Y-3336D01*
X71521Y-3303D01*
X71510Y-3281D01*
X71499Y-3270D01*
X71400Y-3139D01*
X71313Y-3008D01*
X71236Y-2866D01*
X71171Y-2724D01*
X71073Y-2429D01*
X70996Y-2155D01*
X70974Y-2035D01*
X70963Y-1915D01*
X70952Y-1806D01*
X70941Y-1718D01*
X70930Y-1642D01*
Y-1587D01*
Y-1554D01*
Y-1543D01*
Y-1445D01*
X70941Y-1248D01*
X70952Y-1073D01*
X71018Y-734D01*
X71062Y-581D01*
X71116Y-439D01*
X71171Y-308D01*
X71215Y-188D01*
X71269Y-79D01*
X71324Y9D01*
X71378Y96D01*
X71422Y162D01*
X71455Y216D01*
X71488Y249D01*
X71499Y271D01*
X71510Y282D01*
X71619Y402D01*
X71739Y501D01*
X71860Y599D01*
X71991Y675D01*
X72122Y741D01*
X72242Y796D01*
X72493Y872D01*
X72712Y927D01*
X72810Y938D01*
X72887Y949D01*
X72952Y960D01*
X73051D01*
X73226Y949D01*
D02*
G37*
G36*
X64832Y938D02*
X65083Y894D01*
X65301Y828D01*
X65476Y763D01*
X65629Y686D01*
X65739Y621D01*
X65771Y588D01*
X65804Y577D01*
X65815Y555D01*
X65826D01*
X65913Y479D01*
X65990Y402D01*
X66110Y227D01*
X66198Y63D01*
X66252Y-90D01*
X66296Y-221D01*
X66307Y-330D01*
X66318Y-374D01*
Y-407D01*
Y-418D01*
Y-428D01*
X66296Y-625D01*
X66252Y-800D01*
X66176Y-942D01*
X66099Y-1073D01*
X66023Y-1172D01*
X65946Y-1237D01*
X65903Y-1292D01*
X65881Y-1303D01*
X65695Y-1423D01*
X65498Y-1522D01*
X65280Y-1609D01*
X65072Y-1685D01*
X64886Y-1740D01*
X64799Y-1762D01*
X64733Y-1784D01*
X64667Y-1795D01*
X64624Y-1806D01*
X64602Y-1817D01*
X64591D01*
X64383Y-1871D01*
X64209Y-1926D01*
X64066Y-1970D01*
X63946Y-2024D01*
X63870Y-2068D01*
X63815Y-2101D01*
X63782Y-2123D01*
X63771Y-2134D01*
X63695Y-2210D01*
X63640Y-2287D01*
X63607Y-2363D01*
X63574Y-2440D01*
X63564Y-2505D01*
X63553Y-2560D01*
Y-2593D01*
Y-2604D01*
X63564Y-2713D01*
X63596Y-2800D01*
X63640Y-2888D01*
X63684Y-2953D01*
X63727Y-3008D01*
X63771Y-3052D01*
X63804Y-3073D01*
X63815Y-3084D01*
X63913Y-3150D01*
X64034Y-3194D01*
X64154Y-3227D01*
X64263Y-3248D01*
X64362Y-3259D01*
X64449Y-3270D01*
X64525D01*
X64722Y-3259D01*
X64810Y-3248D01*
X64897Y-3238D01*
X64963D01*
X65017Y-3227D01*
X65050Y-3216D01*
X65061D01*
X65148Y-3183D01*
X65225Y-3161D01*
X65290Y-3128D01*
X65356Y-3095D01*
X65400Y-3063D01*
X65433Y-3041D01*
X65443Y-3019D01*
X65455D01*
X65618Y-2385D01*
X66263D01*
Y-3467D01*
X66001Y-3620D01*
X65870Y-3675D01*
X65750Y-3729D01*
X65651Y-3762D01*
X65575Y-3795D01*
X65520Y-3806D01*
X65498Y-3817D01*
X65334Y-3861D01*
X65170Y-3882D01*
X65006Y-3904D01*
X64853Y-3926D01*
X64722D01*
X64613Y-3937D01*
X64525D01*
X64230Y-3915D01*
X63968Y-3871D01*
X63749Y-3817D01*
X63553Y-3740D01*
X63400Y-3675D01*
X63290Y-3609D01*
X63257Y-3587D01*
X63225Y-3565D01*
X63214Y-3554D01*
X63203D01*
X63115Y-3478D01*
X63028Y-3401D01*
X62908Y-3238D01*
X62809Y-3063D01*
X62755Y-2899D01*
X62711Y-2757D01*
X62700Y-2647D01*
X62689Y-2604D01*
Y-2571D01*
Y-2549D01*
Y-2538D01*
X62711Y-2341D01*
X62755Y-2166D01*
X62831Y-2013D01*
X62908Y-1882D01*
X62984Y-1784D01*
X63061Y-1707D01*
X63104Y-1664D01*
X63126Y-1653D01*
X63312Y-1532D01*
X63520Y-1434D01*
X63739Y-1347D01*
X63957Y-1270D01*
X64154Y-1204D01*
X64241Y-1183D01*
X64318Y-1161D01*
X64372Y-1150D01*
X64416Y-1139D01*
X64449Y-1128D01*
X64460D01*
X64667Y-1084D01*
X64842Y-1030D01*
X64974Y-986D01*
X65083Y-942D01*
X65159Y-898D01*
X65214Y-866D01*
X65247Y-855D01*
X65258Y-844D01*
X65323Y-778D01*
X65367Y-702D01*
X65411Y-636D01*
X65433Y-560D01*
X65443Y-505D01*
X65455Y-450D01*
Y-418D01*
Y-407D01*
X65443Y-308D01*
X65422Y-210D01*
X65389Y-133D01*
X65345Y-57D01*
X65301Y-2D01*
X65269Y41D01*
X65247Y63D01*
X65236Y74D01*
X65137Y140D01*
X65028Y195D01*
X64919Y227D01*
X64810Y260D01*
X64700Y271D01*
X64624Y282D01*
X64547D01*
X64340Y271D01*
X64252Y260D01*
X64165Y238D01*
X64099Y227D01*
X64055Y205D01*
X64023Y195D01*
X64012D01*
X63848Y118D01*
X63782Y85D01*
X63727Y41D01*
X63684Y9D01*
X63640Y-24D01*
X63629Y-35D01*
X63618Y-46D01*
X63476Y-614D01*
X62831D01*
X62875Y435D01*
X62984Y522D01*
X63104Y599D01*
X63225Y665D01*
X63334Y719D01*
X63432Y763D01*
X63509Y796D01*
X63564Y807D01*
X63585Y817D01*
X63749Y861D01*
X63913Y905D01*
X64077Y927D01*
X64230Y938D01*
X64350Y949D01*
X64460Y960D01*
X64547D01*
X64832Y938D01*
D02*
G37*
G36*
X119777Y13765D02*
X119263Y13700D01*
X117875Y7961D01*
X117110D01*
X115831Y12366D01*
X115721Y12946D01*
X115700D01*
X115590Y12366D01*
X114322Y7961D01*
X113557D01*
X112169Y13700D01*
X111656Y13765D01*
Y14323D01*
X113689D01*
Y13765D01*
X113033Y13667D01*
X113831Y10158D01*
X113962Y9339D01*
X113984D01*
X114158Y10158D01*
X115339Y14323D01*
X116093D01*
X117274Y10158D01*
X117438Y9360D01*
X117470D01*
X117580Y10158D01*
X118399Y13667D01*
X117754Y13765D01*
Y14323D01*
X119777D01*
Y13765D01*
D02*
G37*
G36*
X71685Y12126D02*
X71291Y12060D01*
X69684Y7961D01*
X69039D01*
X67455Y12060D01*
X67061Y12126D01*
Y12683D01*
X68887D01*
Y12126D01*
X68318Y12038D01*
X69258Y9350D01*
X69346Y9011D01*
X69367D01*
X69444Y9350D01*
X70428Y12038D01*
X69859Y12126D01*
Y12683D01*
X71685D01*
Y12126D01*
D02*
G37*
G36*
X82626Y12683D02*
X83369D01*
Y12049D01*
X82626D01*
Y9175D01*
X82615Y8934D01*
X82582Y8738D01*
X82527Y8563D01*
X82472Y8421D01*
X82418Y8311D01*
X82363Y8246D01*
X82330Y8191D01*
X82319Y8180D01*
X82188Y8082D01*
X82057Y8005D01*
X81915Y7950D01*
X81784Y7918D01*
X81664Y7896D01*
X81565Y7874D01*
X81478D01*
X81314Y7885D01*
X81161Y7896D01*
X81106Y7907D01*
X81063D01*
X81030Y7918D01*
X81019D01*
X80855Y7961D01*
X80800Y7983D01*
X80746Y8005D01*
X80702Y8016D01*
X80669Y8038D01*
X80658Y8049D01*
X80647D01*
X80767Y8628D01*
X80844Y8617D01*
X80920Y8595D01*
X80986Y8585D01*
X81008D01*
X81106Y8574D01*
X81259D01*
X81336Y8585D01*
X81412Y8595D01*
X81533Y8639D01*
X81576Y8661D01*
X81609Y8683D01*
X81620Y8705D01*
X81631D01*
X81675Y8770D01*
X81707Y8836D01*
X81740Y8989D01*
X81751Y9065D01*
X81762Y9120D01*
Y9164D01*
Y9175D01*
Y12049D01*
X80866D01*
Y12683D01*
X81762D01*
Y13831D01*
X82626D01*
Y12683D01*
D02*
G37*
G36*
X78111Y12760D02*
X78254Y12738D01*
X78396Y12705D01*
X78527Y12661D01*
X78778Y12552D01*
X78986Y12432D01*
X79161Y12312D01*
X79226Y12246D01*
X79281Y12202D01*
X79325Y12159D01*
X79357Y12126D01*
X79379Y12104D01*
X79390Y12093D01*
X79500Y11962D01*
X79587Y11831D01*
X79663Y11689D01*
X79740Y11547D01*
X79849Y11273D01*
X79915Y11011D01*
X79937Y10891D01*
X79959Y10770D01*
X79970Y10672D01*
X79980Y10585D01*
X79991Y10519D01*
Y10464D01*
Y10432D01*
Y10421D01*
Y10224D01*
X79980Y10027D01*
X79970Y9852D01*
X79904Y9514D01*
X79860Y9360D01*
X79806Y9218D01*
X79751Y9098D01*
X79696Y8978D01*
X79653Y8869D01*
X79598Y8781D01*
X79543Y8705D01*
X79500Y8639D01*
X79467Y8585D01*
X79434Y8552D01*
X79423Y8530D01*
X79412Y8519D01*
X79292Y8410D01*
X79172Y8311D01*
X79051Y8224D01*
X78920Y8147D01*
X78778Y8082D01*
X78647Y8027D01*
X78396Y7950D01*
X78286Y7929D01*
X78177Y7907D01*
X78079Y7896D01*
X77991Y7885D01*
X77926Y7874D01*
X77827D01*
X77620Y7885D01*
X77423Y7896D01*
X77259Y7929D01*
X77117Y7961D01*
X76997Y7983D01*
X76909Y8016D01*
X76854Y8027D01*
X76833Y8038D01*
X76680Y8104D01*
X76548Y8169D01*
X76428Y8235D01*
X76330Y8300D01*
X76253Y8355D01*
X76199Y8399D01*
X76166Y8431D01*
X76155Y8442D01*
X76494Y9000D01*
X76680Y8858D01*
X76778Y8792D01*
X76865Y8748D01*
X76942Y8716D01*
X77008Y8683D01*
X77051Y8672D01*
X77062Y8661D01*
X77193Y8617D01*
X77324Y8595D01*
X77445Y8574D01*
X77565Y8552D01*
X77674D01*
X77751Y8541D01*
X77827D01*
X78035Y8563D01*
X78232Y8606D01*
X78385Y8683D01*
X78527Y8759D01*
X78625Y8836D01*
X78702Y8912D01*
X78756Y8956D01*
X78767Y8978D01*
X78877Y9153D01*
X78953Y9339D01*
X79019Y9524D01*
X79062Y9699D01*
X79084Y9852D01*
X79095Y9984D01*
X79106Y10027D01*
Y10060D01*
Y10082D01*
Y10093D01*
X79095Y10115D01*
X76024D01*
Y10661D01*
Y10836D01*
X76046Y11000D01*
X76100Y11306D01*
X76177Y11568D01*
X76221Y11689D01*
X76264Y11787D01*
X76319Y11885D01*
X76363Y11962D01*
X76406Y12027D01*
X76439Y12093D01*
X76472Y12137D01*
X76494Y12169D01*
X76505Y12180D01*
X76516Y12191D01*
X76614Y12290D01*
X76723Y12388D01*
X76833Y12465D01*
X76953Y12530D01*
X77193Y12629D01*
X77423Y12694D01*
X77631Y12738D01*
X77718Y12749D01*
X77805Y12760D01*
X77871Y12771D01*
X77958D01*
X78111Y12760D01*
D02*
G37*
G36*
X64602D02*
X64744Y12738D01*
X64886Y12705D01*
X65017Y12661D01*
X65269Y12552D01*
X65476Y12432D01*
X65651Y12312D01*
X65717Y12246D01*
X65771Y12202D01*
X65815Y12159D01*
X65848Y12126D01*
X65870Y12104D01*
X65881Y12093D01*
X65990Y11962D01*
X66078Y11831D01*
X66154Y11689D01*
X66230Y11547D01*
X66340Y11273D01*
X66405Y11011D01*
X66427Y10891D01*
X66449Y10770D01*
X66460Y10672D01*
X66471Y10585D01*
X66482Y10519D01*
Y10464D01*
Y10432D01*
Y10421D01*
Y10224D01*
X66471Y10027D01*
X66460Y9852D01*
X66394Y9514D01*
X66351Y9360D01*
X66296Y9218D01*
X66241Y9098D01*
X66187Y8978D01*
X66143Y8869D01*
X66088Y8781D01*
X66034Y8705D01*
X65990Y8639D01*
X65957Y8585D01*
X65925Y8552D01*
X65913Y8530D01*
X65903Y8519D01*
X65782Y8410D01*
X65662Y8311D01*
X65542Y8224D01*
X65411Y8147D01*
X65269Y8082D01*
X65137Y8027D01*
X64886Y7950D01*
X64777Y7929D01*
X64667Y7907D01*
X64569Y7896D01*
X64482Y7885D01*
X64416Y7874D01*
X64318D01*
X64110Y7885D01*
X63913Y7896D01*
X63749Y7929D01*
X63607Y7961D01*
X63487Y7983D01*
X63400Y8016D01*
X63345Y8027D01*
X63323Y8038D01*
X63170Y8104D01*
X63039Y8169D01*
X62919Y8235D01*
X62820Y8300D01*
X62744Y8355D01*
X62689Y8399D01*
X62656Y8431D01*
X62646Y8442D01*
X62984Y9000D01*
X63170Y8858D01*
X63269Y8792D01*
X63356Y8748D01*
X63432Y8716D01*
X63498Y8683D01*
X63542Y8672D01*
X63553Y8661D01*
X63684Y8617D01*
X63815Y8595D01*
X63935Y8574D01*
X64055Y8552D01*
X64165D01*
X64241Y8541D01*
X64318D01*
X64525Y8563D01*
X64722Y8606D01*
X64875Y8683D01*
X65017Y8759D01*
X65116Y8836D01*
X65192Y8912D01*
X65247Y8956D01*
X65258Y8978D01*
X65367Y9153D01*
X65443Y9339D01*
X65509Y9524D01*
X65553Y9699D01*
X65575Y9852D01*
X65586Y9984D01*
X65597Y10027D01*
Y10060D01*
Y10082D01*
Y10093D01*
X65586Y10115D01*
X62514D01*
Y10661D01*
Y10836D01*
X62536Y11000D01*
X62591Y11306D01*
X62667Y11568D01*
X62711Y11689D01*
X62755Y11787D01*
X62809Y11885D01*
X62853Y11962D01*
X62897Y12027D01*
X62930Y12093D01*
X62962Y12137D01*
X62984Y12169D01*
X62995Y12180D01*
X63006Y12191D01*
X63104Y12290D01*
X63214Y12388D01*
X63323Y12465D01*
X63443Y12530D01*
X63684Y12629D01*
X63913Y12694D01*
X64121Y12738D01*
X64209Y12749D01*
X64296Y12760D01*
X64362Y12771D01*
X64449D01*
X64602Y12760D01*
D02*
G37*
G36*
X121416Y7961D02*
X120553D01*
Y8836D01*
X121416D01*
Y7961D01*
D02*
G37*
G36*
X110912D02*
X110049D01*
Y8836D01*
X110912D01*
Y7961D01*
D02*
G37*
G36*
X103305D02*
X102442D01*
Y8836D01*
X103305D01*
Y7961D01*
D02*
G37*
G36*
X72581Y12760D02*
X72712Y12738D01*
X72821Y12705D01*
X72920Y12672D01*
X73007Y12629D01*
X73062Y12596D01*
X73106Y12574D01*
X73116Y12563D01*
X73226Y12487D01*
X73324Y12388D01*
X73401Y12301D01*
X73477Y12202D01*
X73543Y12126D01*
X73586Y12060D01*
X73608Y12016D01*
X73619Y11995D01*
X73696Y12683D01*
X75182D01*
Y12126D01*
X74472Y12005D01*
Y8628D01*
X75182Y8508D01*
Y7961D01*
X72898D01*
Y8508D01*
X73608Y8628D01*
Y11339D01*
X73554Y11448D01*
X73499Y11536D01*
X73433Y11612D01*
X73379Y11678D01*
X73324Y11721D01*
X73280Y11754D01*
X73259Y11776D01*
X73248Y11787D01*
X73160Y11842D01*
X73062Y11885D01*
X72963Y11907D01*
X72876Y11929D01*
X72799Y11940D01*
X72734Y11951D01*
X72679D01*
X72187Y11929D01*
X72078Y12727D01*
X72122Y12738D01*
X72176D01*
X72220Y12749D01*
X72242D01*
X72319Y12760D01*
X72384Y12771D01*
X72450D01*
X72581Y12760D01*
D02*
G37*
G36*
X61793Y14224D02*
X61083Y14093D01*
Y8628D01*
X61793Y8508D01*
Y7961D01*
X59509D01*
Y8508D01*
X60219Y8628D01*
Y14771D01*
X61793D01*
Y14224D01*
D02*
G37*
G36*
X125045Y14388D02*
X125362Y14334D01*
X125515Y14290D01*
X125646Y14246D01*
X125766Y14202D01*
X125875Y14159D01*
X125985Y14115D01*
X126072Y14071D01*
X126149Y14028D01*
X126203Y13984D01*
X126258Y13951D01*
X126291Y13929D01*
X126313Y13918D01*
X126324Y13907D01*
X126433Y13809D01*
X126531Y13711D01*
X126619Y13612D01*
X126684Y13503D01*
X126750Y13405D01*
X126805Y13306D01*
X126881Y13110D01*
X126925Y12935D01*
X126936Y12858D01*
X126947Y12792D01*
X126958Y12749D01*
Y12705D01*
Y12683D01*
Y12672D01*
X126947Y12541D01*
X126936Y12421D01*
X126870Y12191D01*
X126783Y11984D01*
X126673Y11820D01*
X126564Y11678D01*
X126477Y11579D01*
X126411Y11514D01*
X126400Y11503D01*
X126389Y11492D01*
X126160Y11328D01*
X125908Y11186D01*
X125646Y11066D01*
X125384Y10967D01*
X125165Y10891D01*
X125067Y10858D01*
X124979Y10836D01*
X124914Y10814D01*
X124859Y10803D01*
X124826Y10792D01*
X124815D01*
X124662Y10749D01*
X124531Y10716D01*
X124400Y10672D01*
X124280Y10628D01*
X124083Y10541D01*
X123919Y10464D01*
X123799Y10399D01*
X123722Y10344D01*
X123668Y10300D01*
X123657Y10289D01*
X123547Y10169D01*
X123471Y10049D01*
X123405Y9929D01*
X123372Y9809D01*
X123351Y9710D01*
X123329Y9634D01*
Y9579D01*
Y9557D01*
X123340Y9393D01*
X123383Y9240D01*
X123449Y9120D01*
X123515Y9011D01*
X123591Y8923D01*
X123646Y8869D01*
X123689Y8825D01*
X123711Y8814D01*
X123864Y8727D01*
X124028Y8661D01*
X124203Y8606D01*
X124367Y8574D01*
X124509Y8552D01*
X124629Y8541D01*
X124739D01*
X124914Y8552D01*
X125067Y8563D01*
X125209Y8585D01*
X125329Y8606D01*
X125438Y8628D01*
X125504Y8650D01*
X125558Y8672D01*
X125569D01*
X125690Y8727D01*
X125799Y8781D01*
X125908Y8836D01*
X125996Y8890D01*
X126061Y8934D01*
X126116Y8967D01*
X126149Y8989D01*
X126160Y9000D01*
X126324Y9918D01*
X126969D01*
Y8738D01*
X126826Y8595D01*
X126673Y8475D01*
X126520Y8366D01*
X126367Y8278D01*
X126236Y8202D01*
X126138Y8147D01*
X126094Y8125D01*
X126061Y8115D01*
X126050Y8104D01*
X126040D01*
X125821Y8027D01*
X125591Y7972D01*
X125373Y7929D01*
X125176Y7907D01*
X125001Y7885D01*
X124925D01*
X124859Y7874D01*
X124739D01*
X124378Y7896D01*
X124050Y7950D01*
X123908Y7983D01*
X123777Y8016D01*
X123646Y8060D01*
X123537Y8104D01*
X123438Y8147D01*
X123351Y8191D01*
X123274Y8224D01*
X123209Y8257D01*
X123165Y8289D01*
X123132Y8311D01*
X123110Y8333D01*
X123099D01*
X122990Y8421D01*
X122892Y8519D01*
X122804Y8617D01*
X122728Y8727D01*
X122673Y8825D01*
X122618Y8934D01*
X122542Y9131D01*
X122498Y9306D01*
X122487Y9371D01*
X122476Y9437D01*
X122465Y9492D01*
Y9535D01*
Y9557D01*
Y9568D01*
X122476Y9699D01*
X122487Y9831D01*
X122542Y10060D01*
X122629Y10268D01*
X122728Y10443D01*
X122826Y10585D01*
X122903Y10683D01*
X122968Y10749D01*
X122979Y10770D01*
X122990D01*
X123088Y10858D01*
X123209Y10945D01*
X123449Y11087D01*
X123700Y11219D01*
X123952Y11317D01*
X124170Y11394D01*
X124269Y11426D01*
X124356Y11459D01*
X124422Y11481D01*
X124477Y11492D01*
X124509Y11503D01*
X124520D01*
X124815Y11579D01*
X125056Y11667D01*
X125263Y11743D01*
X125438Y11820D01*
X125569Y11885D01*
X125657Y11940D01*
X125712Y11973D01*
X125733Y11984D01*
X125854Y12093D01*
X125952Y12213D01*
X126018Y12333D01*
X126061Y12443D01*
X126083Y12541D01*
X126094Y12618D01*
X126105Y12661D01*
Y12683D01*
X126094Y12847D01*
X126050Y13000D01*
X125985Y13131D01*
X125919Y13241D01*
X125854Y13328D01*
X125788Y13383D01*
X125744Y13426D01*
X125733Y13437D01*
X125580Y13536D01*
X125417Y13612D01*
X125242Y13656D01*
X125067Y13700D01*
X124914Y13722D01*
X124793Y13733D01*
X124520D01*
X124378Y13711D01*
X124247Y13700D01*
X124138Y13678D01*
X124050Y13656D01*
X123974Y13645D01*
X123930Y13623D01*
X123919D01*
X123799Y13579D01*
X123700Y13536D01*
X123613Y13492D01*
X123537Y13448D01*
X123471Y13405D01*
X123427Y13383D01*
X123405Y13361D01*
X123394Y13350D01*
X123230Y12443D01*
X122586D01*
Y13623D01*
X122717Y13743D01*
X122859Y13853D01*
X123001Y13940D01*
X123143Y14028D01*
X123274Y14093D01*
X123372Y14137D01*
X123438Y14170D01*
X123449Y14181D01*
X123460D01*
X123668Y14257D01*
X123886Y14312D01*
X124083Y14356D01*
X124280Y14377D01*
X124444Y14399D01*
X124509D01*
X124564Y14410D01*
X124870D01*
X125045Y14388D01*
D02*
G37*
G36*
X106934D02*
X107251Y14334D01*
X107404Y14290D01*
X107535Y14246D01*
X107655Y14202D01*
X107764Y14159D01*
X107874Y14115D01*
X107961Y14071D01*
X108038Y14028D01*
X108092Y13984D01*
X108147Y13951D01*
X108180Y13929D01*
X108202Y13918D01*
X108213Y13907D01*
X108322Y13809D01*
X108420Y13711D01*
X108508Y13612D01*
X108573Y13503D01*
X108639Y13405D01*
X108694Y13306D01*
X108770Y13110D01*
X108814Y12935D01*
X108825Y12858D01*
X108836Y12792D01*
X108847Y12749D01*
Y12705D01*
Y12683D01*
Y12672D01*
X108836Y12541D01*
X108825Y12421D01*
X108759Y12191D01*
X108672Y11984D01*
X108562Y11820D01*
X108453Y11678D01*
X108366Y11579D01*
X108300Y11514D01*
X108289Y11503D01*
X108278Y11492D01*
X108049Y11328D01*
X107797Y11186D01*
X107535Y11066D01*
X107273Y10967D01*
X107054Y10891D01*
X106956Y10858D01*
X106868Y10836D01*
X106803Y10814D01*
X106748Y10803D01*
X106715Y10792D01*
X106704D01*
X106551Y10749D01*
X106420Y10716D01*
X106289Y10672D01*
X106169Y10628D01*
X105972Y10541D01*
X105808Y10464D01*
X105688Y10399D01*
X105611Y10344D01*
X105557Y10300D01*
X105546Y10289D01*
X105436Y10169D01*
X105360Y10049D01*
X105294Y9929D01*
X105262Y9809D01*
X105240Y9710D01*
X105218Y9634D01*
Y9579D01*
Y9557D01*
X105229Y9393D01*
X105272Y9240D01*
X105338Y9120D01*
X105404Y9011D01*
X105480Y8923D01*
X105535Y8869D01*
X105578Y8825D01*
X105600Y8814D01*
X105753Y8727D01*
X105917Y8661D01*
X106092Y8606D01*
X106256Y8574D01*
X106398Y8552D01*
X106518Y8541D01*
X106628D01*
X106803Y8552D01*
X106956Y8563D01*
X107098Y8585D01*
X107218Y8606D01*
X107327Y8628D01*
X107393Y8650D01*
X107448Y8672D01*
X107458D01*
X107579Y8727D01*
X107688Y8781D01*
X107797Y8836D01*
X107885Y8890D01*
X107950Y8934D01*
X108005Y8967D01*
X108038Y8989D01*
X108049Y9000D01*
X108213Y9918D01*
X108858D01*
Y8738D01*
X108715Y8595D01*
X108562Y8475D01*
X108409Y8366D01*
X108256Y8278D01*
X108125Y8202D01*
X108027Y8147D01*
X107983Y8125D01*
X107950Y8115D01*
X107939Y8104D01*
X107928D01*
X107710Y8027D01*
X107480Y7972D01*
X107262Y7929D01*
X107065Y7907D01*
X106890Y7885D01*
X106814D01*
X106748Y7874D01*
X106628D01*
X106267Y7896D01*
X105939Y7950D01*
X105797Y7983D01*
X105666Y8016D01*
X105535Y8060D01*
X105426Y8104D01*
X105327Y8147D01*
X105240Y8191D01*
X105163Y8224D01*
X105098Y8257D01*
X105054Y8289D01*
X105021Y8311D01*
X104999Y8333D01*
X104988D01*
X104879Y8421D01*
X104781Y8519D01*
X104693Y8617D01*
X104617Y8727D01*
X104562Y8825D01*
X104507Y8934D01*
X104431Y9131D01*
X104387Y9306D01*
X104376Y9371D01*
X104365Y9437D01*
X104354Y9492D01*
Y9535D01*
Y9557D01*
Y9568D01*
X104365Y9699D01*
X104376Y9831D01*
X104431Y10060D01*
X104518Y10268D01*
X104617Y10443D01*
X104715Y10585D01*
X104791Y10683D01*
X104857Y10749D01*
X104868Y10770D01*
X104879D01*
X104977Y10858D01*
X105098Y10945D01*
X105338Y11087D01*
X105589Y11219D01*
X105841Y11317D01*
X106059Y11394D01*
X106158Y11426D01*
X106245Y11459D01*
X106311Y11481D01*
X106366Y11492D01*
X106398Y11503D01*
X106409D01*
X106704Y11579D01*
X106945Y11667D01*
X107152Y11743D01*
X107327Y11820D01*
X107458Y11885D01*
X107546Y11940D01*
X107600Y11973D01*
X107622Y11984D01*
X107743Y12093D01*
X107841Y12213D01*
X107907Y12333D01*
X107950Y12443D01*
X107972Y12541D01*
X107983Y12618D01*
X107994Y12661D01*
Y12683D01*
X107983Y12847D01*
X107939Y13000D01*
X107874Y13131D01*
X107808Y13241D01*
X107743Y13328D01*
X107677Y13383D01*
X107633Y13426D01*
X107622Y13437D01*
X107469Y13536D01*
X107305Y13612D01*
X107131Y13656D01*
X106956Y13700D01*
X106803Y13722D01*
X106682Y13733D01*
X106409D01*
X106267Y13711D01*
X106136Y13700D01*
X106027Y13678D01*
X105939Y13656D01*
X105863Y13645D01*
X105819Y13623D01*
X105808D01*
X105688Y13579D01*
X105589Y13536D01*
X105502Y13492D01*
X105426Y13448D01*
X105360Y13405D01*
X105316Y13383D01*
X105294Y13361D01*
X105283Y13350D01*
X105119Y12443D01*
X104475D01*
Y13623D01*
X104606Y13743D01*
X104748Y13853D01*
X104890Y13940D01*
X105032Y14028D01*
X105163Y14093D01*
X105262Y14137D01*
X105327Y14170D01*
X105338Y14181D01*
X105349D01*
X105557Y14257D01*
X105775Y14312D01*
X105972Y14356D01*
X106169Y14377D01*
X106333Y14399D01*
X106398D01*
X106453Y14410D01*
X106759D01*
X106934Y14388D01*
D02*
G37*
G36*
X96660Y14399D02*
X96867Y14366D01*
X97075Y14323D01*
X97261Y14268D01*
X97447Y14192D01*
X97610Y14115D01*
X97764Y14028D01*
X97895Y13951D01*
X98026Y13864D01*
X98135Y13776D01*
X98223Y13700D01*
X98299Y13623D01*
X98365Y13568D01*
X98408Y13525D01*
X98430Y13492D01*
X98441Y13481D01*
X98572Y13306D01*
X98693Y13120D01*
X98791Y12924D01*
X98878Y12738D01*
X98955Y12541D01*
X99020Y12355D01*
X99075Y12169D01*
X99108Y11995D01*
X99141Y11820D01*
X99163Y11667D01*
X99185Y11536D01*
X99195Y11415D01*
X99206Y11317D01*
Y11251D01*
Y11197D01*
Y11186D01*
Y11087D01*
X99195Y10836D01*
X99173Y10596D01*
X99141Y10355D01*
X99086Y10137D01*
X99031Y9940D01*
X98966Y9743D01*
X98889Y9568D01*
X98824Y9415D01*
X98747Y9273D01*
X98682Y9142D01*
X98616Y9033D01*
X98561Y8945D01*
X98507Y8880D01*
X98474Y8825D01*
X98452Y8792D01*
X98441Y8781D01*
X98288Y8617D01*
X98135Y8486D01*
X97971Y8366D01*
X97796Y8257D01*
X97632Y8169D01*
X97468Y8093D01*
X97304Y8038D01*
X97141Y7983D01*
X96999Y7950D01*
X96856Y7918D01*
X96736Y7907D01*
X96638Y7885D01*
X96550D01*
X96485Y7874D01*
X96430D01*
X96201Y7885D01*
X95982Y7918D01*
X95763Y7961D01*
X95567Y8016D01*
X95392Y8082D01*
X95217Y8158D01*
X95064Y8246D01*
X94922Y8333D01*
X94791Y8410D01*
X94681Y8497D01*
X94583Y8574D01*
X94506Y8639D01*
X94441Y8694D01*
X94397Y8738D01*
X94375Y8770D01*
X94364Y8781D01*
X94222Y8956D01*
X94102Y9142D01*
X93993Y9339D01*
X93905Y9524D01*
X93829Y9721D01*
X93763Y9918D01*
X93708Y10104D01*
X93665Y10279D01*
X93632Y10443D01*
X93610Y10596D01*
X93588Y10738D01*
X93577Y10858D01*
X93566Y10956D01*
Y11022D01*
Y11077D01*
Y11087D01*
Y11186D01*
X93577Y11437D01*
X93599Y11678D01*
X93643Y11907D01*
X93687Y12126D01*
X93752Y12333D01*
X93818Y12519D01*
X93894Y12694D01*
X93960Y12847D01*
X94036Y12989D01*
X94113Y13120D01*
X94178Y13230D01*
X94244Y13317D01*
X94288Y13383D01*
X94332Y13437D01*
X94353Y13470D01*
X94364Y13481D01*
X94517Y13645D01*
X94681Y13787D01*
X94856Y13907D01*
X95020Y14017D01*
X95195Y14104D01*
X95370Y14181D01*
X95534Y14246D01*
X95698Y14290D01*
X95851Y14334D01*
X95982Y14366D01*
X96113Y14377D01*
X96222Y14399D01*
X96310D01*
X96375Y14410D01*
X96430D01*
X96660Y14399D01*
D02*
G37*
G36*
X90899Y12760D02*
X91074Y12738D01*
X91227Y12705D01*
X91380Y12661D01*
X91523Y12618D01*
X91643Y12552D01*
X91763Y12497D01*
X91872Y12432D01*
X91960Y12366D01*
X92047Y12312D01*
X92113Y12246D01*
X92167Y12202D01*
X92222Y12159D01*
X92255Y12126D01*
X92266Y12104D01*
X92277Y12093D01*
X92375Y11962D01*
X92462Y11820D01*
X92539Y11678D01*
X92605Y11536D01*
X92703Y11251D01*
X92769Y10978D01*
X92801Y10847D01*
X92812Y10738D01*
X92823Y10628D01*
X92834Y10541D01*
X92845Y10464D01*
Y10410D01*
Y10377D01*
Y10366D01*
Y10268D01*
X92834Y10071D01*
X92823Y9896D01*
X92758Y9557D01*
X92714Y9404D01*
X92670Y9262D01*
X92615Y9131D01*
X92561Y9011D01*
X92506Y8901D01*
X92452Y8814D01*
X92408Y8727D01*
X92364Y8661D01*
X92331Y8606D01*
X92299Y8574D01*
X92288Y8552D01*
X92277Y8541D01*
X92167Y8421D01*
X92047Y8322D01*
X91927Y8235D01*
X91796Y8158D01*
X91665Y8093D01*
X91533Y8038D01*
X91282Y7961D01*
X91063Y7907D01*
X90965Y7896D01*
X90889Y7885D01*
X90823Y7874D01*
X90725D01*
X90550Y7885D01*
X90375Y7907D01*
X90211Y7940D01*
X90069Y7983D01*
X89927Y8027D01*
X89796Y8082D01*
X89686Y8147D01*
X89577Y8213D01*
X89490Y8268D01*
X89402Y8333D01*
X89337Y8388D01*
X89271Y8442D01*
X89227Y8475D01*
X89194Y8508D01*
X89183Y8530D01*
X89173Y8541D01*
X89074Y8672D01*
X88987Y8803D01*
X88910Y8945D01*
X88845Y9087D01*
X88746Y9382D01*
X88670Y9656D01*
X88648Y9776D01*
X88637Y9896D01*
X88626Y10005D01*
X88615Y10093D01*
X88604Y10169D01*
Y10224D01*
Y10257D01*
Y10268D01*
Y10366D01*
X88615Y10563D01*
X88626Y10738D01*
X88692Y11077D01*
X88735Y11230D01*
X88790Y11372D01*
X88845Y11503D01*
X88888Y11623D01*
X88943Y11732D01*
X88998Y11820D01*
X89052Y11907D01*
X89096Y11973D01*
X89129Y12027D01*
X89162Y12060D01*
X89173Y12082D01*
X89183Y12093D01*
X89293Y12213D01*
X89413Y12312D01*
X89533Y12410D01*
X89664Y12487D01*
X89796Y12552D01*
X89916Y12607D01*
X90167Y12683D01*
X90386Y12738D01*
X90484Y12749D01*
X90561Y12760D01*
X90626Y12771D01*
X90725D01*
X90899Y12760D01*
D02*
G37*
G36*
X86211Y12749D02*
X86462Y12705D01*
X86681Y12640D01*
X86855Y12574D01*
X87008Y12497D01*
X87118Y12432D01*
X87151Y12399D01*
X87183Y12388D01*
X87194Y12366D01*
X87205D01*
X87293Y12290D01*
X87369Y12213D01*
X87489Y12038D01*
X87577Y11874D01*
X87631Y11721D01*
X87675Y11590D01*
X87686Y11481D01*
X87697Y11437D01*
Y11404D01*
Y11394D01*
Y11383D01*
X87675Y11186D01*
X87631Y11011D01*
X87555Y10869D01*
X87478Y10738D01*
X87402Y10639D01*
X87325Y10574D01*
X87282Y10519D01*
X87260Y10508D01*
X87074Y10388D01*
X86877Y10289D01*
X86659Y10202D01*
X86451Y10126D01*
X86265Y10071D01*
X86178Y10049D01*
X86112Y10027D01*
X86047Y10016D01*
X86003Y10005D01*
X85981Y9994D01*
X85970D01*
X85762Y9940D01*
X85588Y9885D01*
X85445Y9841D01*
X85325Y9787D01*
X85249Y9743D01*
X85194Y9710D01*
X85161Y9688D01*
X85150Y9678D01*
X85074Y9601D01*
X85019Y9524D01*
X84986Y9448D01*
X84954Y9371D01*
X84943Y9306D01*
X84932Y9251D01*
Y9218D01*
Y9207D01*
X84943Y9098D01*
X84975Y9011D01*
X85019Y8923D01*
X85063Y8858D01*
X85107Y8803D01*
X85150Y8759D01*
X85183Y8738D01*
X85194Y8727D01*
X85292Y8661D01*
X85413Y8617D01*
X85533Y8585D01*
X85642Y8563D01*
X85741Y8552D01*
X85828Y8541D01*
X85905D01*
X86101Y8552D01*
X86189Y8563D01*
X86276Y8574D01*
X86342D01*
X86396Y8585D01*
X86429Y8595D01*
X86440D01*
X86528Y8628D01*
X86604Y8650D01*
X86670Y8683D01*
X86735Y8716D01*
X86779Y8748D01*
X86812Y8770D01*
X86823Y8792D01*
X86834D01*
X86997Y9426D01*
X87642D01*
Y8344D01*
X87380Y8191D01*
X87249Y8136D01*
X87129Y8082D01*
X87030Y8049D01*
X86954Y8016D01*
X86899Y8005D01*
X86877Y7994D01*
X86713Y7950D01*
X86549Y7929D01*
X86385Y7907D01*
X86232Y7885D01*
X86101D01*
X85992Y7874D01*
X85905D01*
X85609Y7896D01*
X85347Y7940D01*
X85128Y7994D01*
X84932Y8071D01*
X84779Y8136D01*
X84669Y8202D01*
X84637Y8224D01*
X84604Y8246D01*
X84593Y8257D01*
X84582D01*
X84495Y8333D01*
X84407Y8410D01*
X84287Y8574D01*
X84188Y8748D01*
X84134Y8912D01*
X84090Y9054D01*
X84079Y9164D01*
X84068Y9207D01*
Y9240D01*
Y9262D01*
Y9273D01*
X84090Y9470D01*
X84134Y9645D01*
X84210Y9798D01*
X84287Y9929D01*
X84363Y10027D01*
X84440Y10104D01*
X84484Y10148D01*
X84505Y10158D01*
X84691Y10279D01*
X84899Y10377D01*
X85118Y10464D01*
X85336Y10541D01*
X85533Y10606D01*
X85620Y10628D01*
X85697Y10650D01*
X85751Y10661D01*
X85795Y10672D01*
X85828Y10683D01*
X85839D01*
X86047Y10727D01*
X86221Y10781D01*
X86353Y10825D01*
X86462Y10869D01*
X86538Y10913D01*
X86593Y10945D01*
X86626Y10956D01*
X86637Y10967D01*
X86702Y11033D01*
X86746Y11109D01*
X86790Y11175D01*
X86812Y11251D01*
X86823Y11306D01*
X86834Y11361D01*
Y11394D01*
Y11404D01*
X86823Y11503D01*
X86801Y11601D01*
X86768Y11678D01*
X86724Y11754D01*
X86681Y11809D01*
X86648Y11852D01*
X86626Y11874D01*
X86615Y11885D01*
X86517Y11951D01*
X86407Y12005D01*
X86298Y12038D01*
X86189Y12071D01*
X86079Y12082D01*
X86003Y12093D01*
X85926D01*
X85719Y12082D01*
X85631Y12071D01*
X85544Y12049D01*
X85478Y12038D01*
X85435Y12016D01*
X85402Y12005D01*
X85391D01*
X85227Y11929D01*
X85161Y11896D01*
X85107Y11852D01*
X85063Y11820D01*
X85019Y11787D01*
X85008Y11776D01*
X84997Y11765D01*
X84855Y11197D01*
X84210D01*
X84254Y12246D01*
X84363Y12333D01*
X84484Y12410D01*
X84604Y12476D01*
X84713Y12530D01*
X84812Y12574D01*
X84888Y12607D01*
X84943Y12618D01*
X84965Y12629D01*
X85128Y12672D01*
X85292Y12716D01*
X85456Y12738D01*
X85609Y12749D01*
X85730Y12760D01*
X85839Y12771D01*
X85926D01*
X86211Y12749D01*
D02*
G37*
G36*
X56426Y14224D02*
X55705Y14093D01*
Y12169D01*
X55792Y12279D01*
X55891Y12366D01*
X55978Y12443D01*
X56066Y12508D01*
X56142Y12552D01*
X56208Y12585D01*
X56251Y12607D01*
X56262Y12618D01*
X56383Y12672D01*
X56514Y12705D01*
X56634Y12738D01*
X56743Y12749D01*
X56842Y12760D01*
X56929Y12771D01*
X56995D01*
X57159Y12760D01*
X57301Y12738D01*
X57443Y12705D01*
X57574Y12661D01*
X57814Y12552D01*
X58000Y12421D01*
X58164Y12290D01*
X58274Y12180D01*
X58306Y12137D01*
X58339Y12104D01*
X58350Y12082D01*
X58361Y12071D01*
X58448Y11940D01*
X58525Y11787D01*
X58645Y11492D01*
X58732Y11186D01*
X58787Y10891D01*
X58809Y10759D01*
X58831Y10628D01*
X58842Y10519D01*
Y10421D01*
X58853Y10344D01*
Y10289D01*
Y10246D01*
Y10235D01*
Y10137D01*
X58842Y9951D01*
X58831Y9776D01*
X58776Y9448D01*
X58743Y9306D01*
X58700Y9175D01*
X58656Y9043D01*
X58601Y8934D01*
X58558Y8836D01*
X58514Y8748D01*
X58470Y8672D01*
X58437Y8606D01*
X58405Y8563D01*
X58383Y8530D01*
X58361Y8508D01*
Y8497D01*
X58262Y8388D01*
X58164Y8289D01*
X58055Y8213D01*
X57946Y8136D01*
X57825Y8082D01*
X57716Y8027D01*
X57497Y7950D01*
X57301Y7907D01*
X57224Y7896D01*
X57148Y7885D01*
X57093Y7874D01*
X57006D01*
X56842Y7885D01*
X56700Y7896D01*
X56568Y7929D01*
X56459Y7961D01*
X56372Y7983D01*
X56295Y8016D01*
X56251Y8027D01*
X56240Y8038D01*
X56120Y8104D01*
X56011Y8180D01*
X55913Y8268D01*
X55825Y8344D01*
X55760Y8410D01*
X55705Y8464D01*
X55672Y8508D01*
X55661Y8519D01*
X55596Y7961D01*
X54131D01*
Y8508D01*
X54852Y8628D01*
Y14771D01*
X56426D01*
Y14224D01*
D02*
G37*
G36*
X96722Y40309D02*
X96897Y40243D01*
X96985Y40178D01*
X97028Y40134D01*
X97138Y39981D01*
X97203Y39806D01*
X97225Y39675D01*
Y39653D01*
Y39631D01*
X97203Y39434D01*
X97116Y39281D01*
X97050Y39193D01*
X97028Y39150D01*
X96854Y39040D01*
X96700Y38975D01*
X96547Y38953D01*
X96504D01*
X96285Y38975D01*
X96110Y39062D01*
X96022Y39128D01*
X95979Y39150D01*
X95869Y39303D01*
X95804Y39456D01*
X95782Y39587D01*
Y39609D01*
Y39631D01*
X95804Y39850D01*
X95869Y40003D01*
X95957Y40090D01*
X95979Y40134D01*
X96154Y40265D01*
X96307Y40331D01*
X96438Y40353D01*
X96504D01*
X96722Y40309D01*
D02*
G37*
G36*
X90205Y37072D02*
X90489Y37028D01*
X90774Y36963D01*
X91036Y36897D01*
X91474Y36678D01*
X91867Y36438D01*
X92173Y36197D01*
X92392Y35979D01*
X92458Y35913D01*
X92523Y35847D01*
X92545Y35804D01*
X92567Y35782D01*
X92742Y35541D01*
X92895Y35257D01*
X93136Y34688D01*
X93311Y34098D01*
X93420Y33529D01*
X93464Y33267D01*
X93507Y33026D01*
X93529Y32807D01*
Y32632D01*
X93551Y32479D01*
Y32370D01*
Y32283D01*
Y32261D01*
Y32129D01*
X93529Y31714D01*
X93507Y31342D01*
X93464Y30970D01*
X93398Y30642D01*
X93332Y30314D01*
X93245Y30030D01*
X93158Y29768D01*
X93048Y29527D01*
X92961Y29308D01*
X92873Y29111D01*
X92786Y28958D01*
X92720Y28827D01*
X92655Y28718D01*
X92611Y28652D01*
X92567Y28608D01*
Y28587D01*
X92370Y28346D01*
X92173Y28149D01*
X91955Y27974D01*
X91736Y27821D01*
X91517Y27712D01*
X91277Y27602D01*
X90861Y27449D01*
X90489Y27340D01*
X90336Y27318D01*
X90183Y27296D01*
X90074Y27274D01*
X89921D01*
X89571Y27296D01*
X89243Y27340D01*
X88937Y27406D01*
X88652Y27493D01*
X88390Y27602D01*
X88149Y27712D01*
X87931Y27843D01*
X87734Y27974D01*
X87559Y28105D01*
X87406Y28237D01*
X87274Y28346D01*
X87187Y28455D01*
X87099Y28543D01*
X87034Y28608D01*
X87012Y28652D01*
X86990Y28674D01*
Y27471D01*
X87034Y26990D01*
X87121Y26575D01*
X87231Y26203D01*
X87384Y25896D01*
X87515Y25656D01*
X87646Y25481D01*
X87734Y25394D01*
X87756Y25350D01*
X88040Y25087D01*
X88368Y24891D01*
X88718Y24759D01*
X89046Y24672D01*
X89330Y24606D01*
X89571Y24584D01*
X89658Y24563D01*
X89789D01*
X90074Y24584D01*
X90336Y24628D01*
X90599Y24694D01*
X90839Y24781D01*
X91299Y25000D01*
X91692Y25262D01*
X91998Y25503D01*
X92130Y25612D01*
X92239Y25722D01*
X92326Y25809D01*
X92392Y25875D01*
X92414Y25918D01*
X92436Y25940D01*
X93026Y25306D01*
X92808Y25044D01*
X92589Y24825D01*
X92348Y24628D01*
X92108Y24453D01*
X91911Y24322D01*
X91758Y24234D01*
X91649Y24169D01*
X91605Y24147D01*
X91277Y23994D01*
X90927Y23885D01*
X90621Y23797D01*
X90336Y23753D01*
X90074Y23709D01*
X89899Y23688D01*
X89724D01*
X89396Y23709D01*
X89112Y23731D01*
X88565Y23863D01*
X88084Y24038D01*
X87690Y24234D01*
X87384Y24431D01*
X87253Y24519D01*
X87143Y24584D01*
X87078Y24672D01*
X87012Y24715D01*
X86990Y24737D01*
X86968Y24759D01*
X86793Y24978D01*
X86618Y25197D01*
X86378Y25656D01*
X86181Y26137D01*
X86072Y26596D01*
X85984Y27012D01*
X85962Y27187D01*
Y27340D01*
X85940Y27471D01*
Y27559D01*
Y27624D01*
Y27646D01*
Y36919D01*
X86924D01*
X86968Y35541D01*
X87165Y35825D01*
X87384Y36044D01*
X87603Y36263D01*
X87843Y36438D01*
X88084Y36591D01*
X88346Y36722D01*
X88587Y36810D01*
X88805Y36897D01*
X89243Y37007D01*
X89418Y37050D01*
X89571Y37072D01*
X89724Y37094D01*
X89899D01*
X90205Y37072D01*
D02*
G37*
G36*
X30062Y36853D02*
X30216Y36788D01*
X30325Y36722D01*
X30369Y36678D01*
X30478Y36503D01*
X30544Y36329D01*
X30566Y36197D01*
Y36175D01*
Y36154D01*
X30544Y35957D01*
X30456Y35782D01*
X30391Y35694D01*
X30369Y35651D01*
X30194Y35541D01*
X30019Y35476D01*
X29888Y35454D01*
X29822D01*
X29581Y35476D01*
X29406Y35563D01*
X29319Y35629D01*
X29275Y35651D01*
X29144Y35804D01*
X29078Y35979D01*
X29057Y36110D01*
Y36132D01*
Y36154D01*
X29100Y36372D01*
X29166Y36525D01*
X29232Y36635D01*
X29275Y36678D01*
X29450Y36810D01*
X29625Y36875D01*
X29756Y36897D01*
X29822D01*
X30062Y36853D01*
D02*
G37*
G36*
X36361Y27493D02*
X36820Y26246D01*
X36952Y25918D01*
X37083Y25656D01*
X37214Y25415D01*
X37345Y25240D01*
X37455Y25109D01*
X37542Y25000D01*
X37608Y24956D01*
X37630Y24934D01*
X37826Y24803D01*
X38023Y24715D01*
X38242Y24628D01*
X38439Y24584D01*
X38614Y24563D01*
X38745Y24541D01*
X38876D01*
X39423Y24606D01*
X39401Y23753D01*
X39095Y23688D01*
X38832Y23644D01*
X38745Y23622D01*
X38592D01*
X38307Y23644D01*
X38023Y23688D01*
X37761Y23775D01*
X37542Y23885D01*
X37126Y24169D01*
X36777Y24497D01*
X36514Y24803D01*
X36339Y25087D01*
X36274Y25197D01*
X36230Y25284D01*
X36186Y25328D01*
Y25350D01*
X35989Y25853D01*
X31943Y36919D01*
X33081D01*
X35836Y28936D01*
X38767Y36919D01*
X39926D01*
X36361Y27493D01*
D02*
G37*
G36*
X112425Y37072D02*
X112797Y37007D01*
X113147Y36897D01*
X113453Y36788D01*
X113715Y36657D01*
X113890Y36569D01*
X114022Y36482D01*
X114043Y36460D01*
X114065D01*
X114393Y36197D01*
X114699Y35913D01*
X114940Y35629D01*
X115159Y35366D01*
X115334Y35104D01*
X115443Y34907D01*
X115531Y34776D01*
X115552Y34754D01*
Y34732D01*
X115727Y34317D01*
X115858Y33879D01*
X115946Y33485D01*
X116012Y33092D01*
X116055Y32764D01*
Y32632D01*
X116077Y32523D01*
Y32414D01*
Y32348D01*
Y32304D01*
Y32283D01*
Y31911D01*
X116055Y31430D01*
X115990Y30970D01*
X115902Y30555D01*
X115793Y30205D01*
X115706Y29921D01*
X115618Y29702D01*
X115574Y29614D01*
X115552Y29549D01*
X115531Y29527D01*
Y29505D01*
X115312Y29133D01*
X115071Y28805D01*
X114809Y28521D01*
X114568Y28302D01*
X114349Y28105D01*
X114175Y27974D01*
X114065Y27887D01*
X114022Y27865D01*
X113650Y27668D01*
X113256Y27515D01*
X112906Y27427D01*
X112556Y27340D01*
X112272Y27296D01*
X112031Y27274D01*
X111835D01*
X111441Y27296D01*
X111047Y27340D01*
X110697Y27427D01*
X110369Y27537D01*
X110063Y27668D01*
X109801Y27799D01*
X109538Y27952D01*
X109319Y28105D01*
X109123Y28258D01*
X108948Y28412D01*
X108794Y28543D01*
X108685Y28674D01*
X108598Y28783D01*
X108510Y28871D01*
X108488Y28915D01*
X108466Y28936D01*
X109123Y29439D01*
X109319Y29199D01*
X109538Y29002D01*
X109735Y28827D01*
X109910Y28696D01*
X110063Y28587D01*
X110194Y28521D01*
X110282Y28477D01*
X110304Y28455D01*
X110544Y28346D01*
X110807Y28280D01*
X111047Y28215D01*
X111288Y28193D01*
X111485Y28171D01*
X111638Y28149D01*
X111791D01*
X112053Y28171D01*
X112294Y28193D01*
X112753Y28324D01*
X113147Y28499D01*
X113475Y28696D01*
X113737Y28893D01*
X113934Y29046D01*
X114065Y29177D01*
X114087Y29199D01*
X114109Y29221D01*
X114415Y29636D01*
X114634Y30096D01*
X114809Y30533D01*
X114918Y30948D01*
X114984Y31320D01*
X115006Y31495D01*
Y31626D01*
X115027Y31736D01*
Y31823D01*
Y31867D01*
Y31889D01*
Y32108D01*
X108270D01*
Y32676D01*
Y33048D01*
X108313Y33398D01*
X108357Y33748D01*
X108423Y34054D01*
X108510Y34338D01*
X108598Y34601D01*
X108685Y34841D01*
X108773Y35060D01*
X108882Y35257D01*
X108969Y35432D01*
X109057Y35585D01*
X109144Y35694D01*
X109210Y35782D01*
X109254Y35869D01*
X109276Y35891D01*
X109298Y35913D01*
X109494Y36132D01*
X109713Y36307D01*
X109910Y36460D01*
X110151Y36591D01*
X110588Y36810D01*
X111025Y36941D01*
X111419Y37028D01*
X111572Y37050D01*
X111725Y37072D01*
X111835Y37094D01*
X112009D01*
X112425Y37072D01*
D02*
G37*
G36*
X70303D02*
X70675Y37007D01*
X71025Y36897D01*
X71331Y36788D01*
X71594Y36657D01*
X71769Y36569D01*
X71900Y36482D01*
X71922Y36460D01*
X71944D01*
X72272Y36197D01*
X72578Y35913D01*
X72818Y35629D01*
X73037Y35366D01*
X73212Y35104D01*
X73321Y34907D01*
X73409Y34776D01*
X73431Y34754D01*
Y34732D01*
X73606Y34317D01*
X73737Y33879D01*
X73824Y33485D01*
X73890Y33092D01*
X73934Y32764D01*
Y32632D01*
X73956Y32523D01*
Y32414D01*
Y32348D01*
Y32304D01*
Y32283D01*
Y31911D01*
X73934Y31430D01*
X73868Y30970D01*
X73781Y30555D01*
X73671Y30205D01*
X73584Y29921D01*
X73496Y29702D01*
X73453Y29614D01*
X73431Y29549D01*
X73409Y29527D01*
Y29505D01*
X73190Y29133D01*
X72950Y28805D01*
X72687Y28521D01*
X72447Y28302D01*
X72228Y28105D01*
X72053Y27974D01*
X71944Y27887D01*
X71900Y27865D01*
X71528Y27668D01*
X71134Y27515D01*
X70784Y27427D01*
X70435Y27340D01*
X70150Y27296D01*
X69910Y27274D01*
X69713D01*
X69319Y27296D01*
X68925Y27340D01*
X68576Y27427D01*
X68248Y27537D01*
X67941Y27668D01*
X67679Y27799D01*
X67417Y27952D01*
X67198Y28105D01*
X67001Y28258D01*
X66826Y28412D01*
X66673Y28543D01*
X66564Y28674D01*
X66476Y28783D01*
X66389Y28871D01*
X66367Y28915D01*
X66345Y28936D01*
X67001Y29439D01*
X67198Y29199D01*
X67417Y29002D01*
X67613Y28827D01*
X67788Y28696D01*
X67941Y28587D01*
X68073Y28521D01*
X68160Y28477D01*
X68182Y28455D01*
X68423Y28346D01*
X68685Y28280D01*
X68925Y28215D01*
X69166Y28193D01*
X69363Y28171D01*
X69516Y28149D01*
X69669D01*
X69932Y28171D01*
X70172Y28193D01*
X70631Y28324D01*
X71025Y28499D01*
X71353Y28696D01*
X71615Y28893D01*
X71812Y29046D01*
X71944Y29177D01*
X71965Y29199D01*
X71987Y29221D01*
X72294Y29636D01*
X72512Y30096D01*
X72687Y30533D01*
X72796Y30948D01*
X72862Y31320D01*
X72884Y31495D01*
Y31626D01*
X72906Y31736D01*
Y31823D01*
Y31867D01*
Y31889D01*
Y32108D01*
X66148D01*
Y32676D01*
Y33048D01*
X66192Y33398D01*
X66236Y33748D01*
X66301Y34054D01*
X66389Y34338D01*
X66476Y34601D01*
X66564Y34841D01*
X66651Y35060D01*
X66760Y35257D01*
X66848Y35432D01*
X66935Y35585D01*
X67023Y35694D01*
X67089Y35782D01*
X67132Y35869D01*
X67154Y35891D01*
X67176Y35913D01*
X67373Y36132D01*
X67592Y36307D01*
X67788Y36460D01*
X68029Y36591D01*
X68466Y36810D01*
X68904Y36941D01*
X69297Y37028D01*
X69450Y37050D01*
X69604Y37072D01*
X69713Y37094D01*
X69888D01*
X70303Y37072D01*
D02*
G37*
G36*
X126969Y27449D02*
X123491D01*
X122901Y27471D01*
X122354Y27559D01*
X121851Y27668D01*
X121435Y27799D01*
X121086Y27930D01*
X120932Y27996D01*
X120823Y28040D01*
X120736Y28084D01*
X120670Y28127D01*
X120626Y28149D01*
X120604D01*
X120167Y28455D01*
X119773Y28762D01*
X119445Y29111D01*
X119183Y29439D01*
X118964Y29724D01*
X118811Y29964D01*
X118745Y30052D01*
X118702Y30117D01*
X118680Y30161D01*
Y30183D01*
X118439Y30708D01*
X118264Y31211D01*
X118155Y31736D01*
X118067Y32195D01*
X118024Y32611D01*
X118002Y32786D01*
X117980Y32939D01*
Y33048D01*
Y33157D01*
Y33201D01*
Y33223D01*
Y34382D01*
X118002Y34995D01*
X118089Y35585D01*
X118199Y36088D01*
X118330Y36525D01*
X118395Y36722D01*
X118461Y36897D01*
X118527Y37050D01*
X118570Y37160D01*
X118614Y37269D01*
X118658Y37334D01*
X118680Y37378D01*
Y37400D01*
X118964Y37881D01*
X119270Y38275D01*
X119576Y38647D01*
X119904Y38931D01*
X120167Y39150D01*
X120407Y39325D01*
X120495Y39390D01*
X120539Y39412D01*
X120582Y39456D01*
X120604D01*
X121086Y39696D01*
X121567Y39871D01*
X122048Y40003D01*
X122463Y40090D01*
X122835Y40134D01*
X123010Y40156D01*
X123141Y40178D01*
X126969D01*
Y27449D01*
D02*
G37*
G36*
X97028D02*
X95979D01*
Y36919D01*
X97028D01*
Y27449D01*
D02*
G37*
G36*
X79445Y37072D02*
X79773Y37028D01*
X80079Y36941D01*
X80320Y36853D01*
X80538Y36766D01*
X80713Y36678D01*
X80801Y36635D01*
X80845Y36613D01*
X81129Y36416D01*
X81391Y36219D01*
X81610Y36000D01*
X81807Y35782D01*
X81960Y35585D01*
X82069Y35432D01*
X82157Y35322D01*
X82179Y35279D01*
X82201Y36919D01*
X83207D01*
Y27449D01*
X82157D01*
Y33923D01*
X82004Y34295D01*
X81829Y34623D01*
X81654Y34885D01*
X81479Y35126D01*
X81326Y35322D01*
X81195Y35454D01*
X81085Y35541D01*
X81063Y35563D01*
X80779Y35760D01*
X80473Y35913D01*
X80189Y36022D01*
X79926Y36110D01*
X79686Y36154D01*
X79511Y36175D01*
X79336D01*
X78920Y36154D01*
X78592Y36088D01*
X78286Y35979D01*
X78067Y35869D01*
X77870Y35738D01*
X77761Y35651D01*
X77674Y35563D01*
X77652Y35541D01*
X77477Y35279D01*
X77346Y34995D01*
X77258Y34688D01*
X77170Y34382D01*
X77149Y34098D01*
X77105Y33879D01*
Y33792D01*
Y33726D01*
Y33682D01*
Y33660D01*
Y27449D01*
X76077D01*
Y33660D01*
X76099Y34251D01*
X76186Y34776D01*
X76318Y35213D01*
X76449Y35585D01*
X76580Y35869D01*
X76711Y36066D01*
X76799Y36175D01*
X76821Y36219D01*
X77127Y36503D01*
X77499Y36722D01*
X77870Y36875D01*
X78242Y36985D01*
X78570Y37050D01*
X78723Y37072D01*
X78833D01*
X78942Y37094D01*
X79095D01*
X79445Y37072D01*
D02*
G37*
G36*
X49571Y27449D02*
X45306D01*
X44956Y27471D01*
X44606Y27493D01*
X44016Y27602D01*
X43753Y27668D01*
X43491Y27755D01*
X43272Y27843D01*
X43075Y27930D01*
X42878Y28018D01*
X42725Y28084D01*
X42594Y28171D01*
X42485Y28237D01*
X42397Y28302D01*
X42332Y28346D01*
X42310Y28390D01*
X42288D01*
X42091Y28565D01*
X41916Y28783D01*
X41785Y28980D01*
X41654Y29199D01*
X41457Y29636D01*
X41326Y30052D01*
X41260Y30424D01*
X41216Y30599D01*
Y30730D01*
X41194Y30861D01*
Y30948D01*
Y30992D01*
Y31014D01*
X41216Y31408D01*
X41304Y31780D01*
X41413Y32129D01*
X41522Y32414D01*
X41654Y32632D01*
X41763Y32807D01*
X41851Y32917D01*
X41872Y32961D01*
X42135Y33245D01*
X42441Y33485D01*
X42747Y33682D01*
X43031Y33835D01*
X43272Y33945D01*
X43491Y34032D01*
X43622Y34054D01*
X43644Y34076D01*
X43666D01*
X43338Y34207D01*
X43031Y34360D01*
X42791Y34535D01*
X42572Y34710D01*
X42419Y34863D01*
X42288Y34995D01*
X42222Y35082D01*
X42200Y35104D01*
X42025Y35388D01*
X41894Y35694D01*
X41785Y35979D01*
X41719Y36241D01*
X41675Y36482D01*
X41654Y36657D01*
Y36788D01*
Y36832D01*
X41675Y37138D01*
X41697Y37400D01*
X41807Y37903D01*
X41982Y38341D01*
X42178Y38691D01*
X42375Y38975D01*
X42528Y39172D01*
X42660Y39281D01*
X42682Y39325D01*
X42703D01*
X42900Y39478D01*
X43141Y39609D01*
X43622Y39828D01*
X44147Y39981D01*
X44650Y40068D01*
X45109Y40134D01*
X45306Y40156D01*
X45481D01*
X45612Y40178D01*
X49571D01*
Y27449D01*
D02*
G37*
G36*
X30084Y28783D02*
X30237Y28718D01*
X30347Y28652D01*
X30391Y28608D01*
X30500Y28433D01*
X30566Y28258D01*
X30587Y28127D01*
Y28105D01*
Y28084D01*
X30566Y27887D01*
X30478Y27712D01*
X30413Y27624D01*
X30391Y27580D01*
X30216Y27471D01*
X30041Y27406D01*
X29909Y27384D01*
X29844D01*
X29603Y27406D01*
X29428Y27493D01*
X29341Y27559D01*
X29297Y27580D01*
X29166Y27734D01*
X29100Y27909D01*
X29078Y28040D01*
Y28062D01*
Y28084D01*
X29122Y28302D01*
X29188Y28455D01*
X29253Y28565D01*
X29297Y28608D01*
X29472Y28740D01*
X29647Y28805D01*
X29778Y28827D01*
X29844D01*
X30084Y28783D01*
D02*
G37*
G36*
X103589Y37072D02*
X104049Y36985D01*
X104464Y36853D01*
X104814Y36722D01*
X105098Y36591D01*
X105295Y36460D01*
X105427Y36372D01*
X105448Y36350D01*
X105470D01*
X105645Y36219D01*
X105777Y36066D01*
X106017Y35760D01*
X106170Y35454D01*
X106301Y35148D01*
X106367Y34885D01*
X106389Y34688D01*
X106411Y34601D01*
Y34535D01*
Y34513D01*
Y34491D01*
X106389Y34229D01*
X106367Y34010D01*
X106301Y33814D01*
X106236Y33639D01*
X106192Y33485D01*
X106126Y33376D01*
X106105Y33310D01*
X106083Y33289D01*
X105930Y33114D01*
X105777Y32939D01*
X105602Y32807D01*
X105427Y32676D01*
X105273Y32567D01*
X105142Y32501D01*
X105055Y32458D01*
X105033Y32436D01*
X104749Y32326D01*
X104442Y32195D01*
X104114Y32108D01*
X103786Y31998D01*
X103524Y31933D01*
X103283Y31867D01*
X103196Y31845D01*
X103130D01*
X103108Y31823D01*
X103086D01*
X102649Y31714D01*
X102255Y31605D01*
X101927Y31473D01*
X101665Y31364D01*
X101468Y31255D01*
X101315Y31167D01*
X101227Y31102D01*
X101206Y31080D01*
X100987Y30905D01*
X100834Y30686D01*
X100724Y30489D01*
X100659Y30292D01*
X100593Y30117D01*
X100571Y29964D01*
Y29877D01*
Y29833D01*
X100593Y29571D01*
X100681Y29352D01*
X100790Y29133D01*
X100900Y28958D01*
X101031Y28827D01*
X101140Y28718D01*
X101227Y28652D01*
X101249Y28630D01*
X101512Y28477D01*
X101796Y28346D01*
X102080Y28258D01*
X102365Y28215D01*
X102627Y28171D01*
X102824Y28149D01*
X102999D01*
X103414Y28171D01*
X103786Y28237D01*
X104114Y28302D01*
X104399Y28412D01*
X104617Y28499D01*
X104771Y28565D01*
X104858Y28630D01*
X104902Y28652D01*
X105142Y28871D01*
X105317Y29090D01*
X105448Y29330D01*
X105536Y29571D01*
X105602Y29768D01*
X105645Y29943D01*
X105667Y30052D01*
Y30096D01*
X106717D01*
X106695Y29877D01*
X106673Y29658D01*
X106564Y29265D01*
X106389Y28915D01*
X106192Y28630D01*
X106017Y28390D01*
X105842Y28215D01*
X105733Y28105D01*
X105689Y28062D01*
X105273Y27799D01*
X104836Y27602D01*
X104377Y27471D01*
X103961Y27384D01*
X103568Y27318D01*
X103414Y27296D01*
X103283D01*
X103152Y27274D01*
X102999D01*
X102452Y27296D01*
X101949Y27384D01*
X101512Y27493D01*
X101162Y27624D01*
X100878Y27755D01*
X100659Y27865D01*
X100528Y27952D01*
X100484Y27974D01*
X100309Y28105D01*
X100156Y28258D01*
X99937Y28587D01*
X99762Y28893D01*
X99631Y29199D01*
X99565Y29483D01*
X99543Y29702D01*
X99522Y29789D01*
Y29855D01*
Y29877D01*
Y29899D01*
X99543Y30161D01*
X99565Y30402D01*
X99631Y30620D01*
X99675Y30795D01*
X99740Y30948D01*
X99806Y31058D01*
X99828Y31124D01*
X99850Y31145D01*
X99981Y31342D01*
X100156Y31495D01*
X100309Y31648D01*
X100484Y31780D01*
X100637Y31889D01*
X100768Y31955D01*
X100856Y31998D01*
X100878Y32020D01*
X101162Y32151D01*
X101490Y32283D01*
X101818Y32414D01*
X102168Y32501D01*
X102452Y32589D01*
X102715Y32654D01*
X102802Y32698D01*
X102868D01*
X102911Y32720D01*
X102933D01*
X103414Y32851D01*
X103808Y32982D01*
X104136Y33092D01*
X104399Y33201D01*
X104595Y33310D01*
X104727Y33376D01*
X104814Y33420D01*
X104836Y33442D01*
X105011Y33595D01*
X105142Y33770D01*
X105230Y33967D01*
X105295Y34141D01*
X105339Y34295D01*
X105361Y34426D01*
Y34513D01*
Y34535D01*
X105339Y34798D01*
X105252Y35038D01*
X105164Y35235D01*
X105033Y35410D01*
X104924Y35563D01*
X104814Y35651D01*
X104749Y35716D01*
X104727Y35738D01*
X104464Y35891D01*
X104202Y36000D01*
X103918Y36088D01*
X103655Y36132D01*
X103414Y36175D01*
X103240Y36197D01*
X103065D01*
X102693Y36175D01*
X102343Y36110D01*
X102059Y36022D01*
X101796Y35913D01*
X101599Y35804D01*
X101446Y35716D01*
X101337Y35651D01*
X101315Y35629D01*
X101074Y35410D01*
X100900Y35191D01*
X100790Y34951D01*
X100703Y34732D01*
X100659Y34535D01*
X100615Y34382D01*
Y34295D01*
Y34251D01*
X99565D01*
Y34491D01*
X99609Y34710D01*
X99718Y35104D01*
X99872Y35454D01*
X100047Y35760D01*
X100222Y36000D01*
X100375Y36175D01*
X100484Y36263D01*
X100506Y36307D01*
X100528D01*
X100921Y36569D01*
X101337Y36766D01*
X101752Y36897D01*
X102146Y37007D01*
X102518Y37050D01*
X102671Y37072D01*
X102802D01*
X102911Y37094D01*
X103065D01*
X103589Y37072D01*
D02*
G37*
G36*
X57969Y35563D02*
X58166Y35825D01*
X58384Y36066D01*
X58603Y36263D01*
X58843Y36460D01*
X59084Y36591D01*
X59325Y36722D01*
X59565Y36832D01*
X59806Y36897D01*
X60221Y37007D01*
X60396Y37050D01*
X60571Y37072D01*
X60702Y37094D01*
X60877D01*
X61184Y37072D01*
X61468Y37028D01*
X61752Y36963D01*
X62015Y36897D01*
X62452Y36678D01*
X62846Y36438D01*
X63152Y36197D01*
X63371Y35979D01*
X63436Y35913D01*
X63502Y35847D01*
X63524Y35804D01*
X63546Y35782D01*
X63721Y35519D01*
X63874Y35257D01*
X64114Y34688D01*
X64289Y34098D01*
X64398Y33529D01*
X64442Y33267D01*
X64486Y33026D01*
X64508Y32807D01*
Y32632D01*
X64530Y32479D01*
Y32348D01*
Y32283D01*
Y32261D01*
Y32129D01*
X64508Y31714D01*
X64486Y31342D01*
X64442Y30970D01*
X64377Y30642D01*
X64311Y30314D01*
X64223Y30030D01*
X64136Y29768D01*
X64027Y29527D01*
X63939Y29308D01*
X63852Y29111D01*
X63764Y28958D01*
X63699Y28827D01*
X63633Y28718D01*
X63589Y28652D01*
X63546Y28608D01*
Y28587D01*
X63349Y28346D01*
X63152Y28149D01*
X62933Y27974D01*
X62714Y27821D01*
X62496Y27712D01*
X62255Y27602D01*
X61840Y27449D01*
X61468Y27340D01*
X61315Y27318D01*
X61162Y27296D01*
X61052Y27274D01*
X60899D01*
X60549Y27296D01*
X60221Y27340D01*
X59893Y27406D01*
X59609Y27493D01*
X59346Y27602D01*
X59106Y27734D01*
X58887Y27843D01*
X58690Y27996D01*
X58515Y28127D01*
X58362Y28237D01*
X58231Y28368D01*
X58144Y28477D01*
X58056Y28565D01*
X57990Y28630D01*
X57969Y28674D01*
X57947Y28696D01*
X57903Y27449D01*
X56919D01*
Y40878D01*
X57969D01*
Y35563D01*
D02*
G37*
%LPC*%
G36*
X108497Y-10699D02*
X108420D01*
X108235Y-10710D01*
X108071Y-10754D01*
X107939Y-10808D01*
X107819Y-10863D01*
X107732Y-10928D01*
X107677Y-10983D01*
X107633Y-11027D01*
X107622Y-11038D01*
X107535Y-11169D01*
X107469Y-11311D01*
X107415Y-11453D01*
X107382Y-11595D01*
X107360Y-11705D01*
X107349Y-11803D01*
Y-11868D01*
Y-11879D01*
Y-11890D01*
Y-12000D01*
X109535D01*
Y-11978D01*
X109502Y-11781D01*
X109448Y-11606D01*
X109393Y-11453D01*
X109327Y-11322D01*
X109262Y-11213D01*
X109207Y-11136D01*
X109175Y-11082D01*
X109163Y-11071D01*
X109043Y-10950D01*
X108923Y-10852D01*
X108792Y-10786D01*
X108672Y-10743D01*
X108573Y-10721D01*
X108497Y-10699D01*
D02*
G37*
G36*
X98255D02*
X98179D01*
X97993Y-10710D01*
X97829Y-10754D01*
X97698Y-10808D01*
X97578Y-10863D01*
X97490Y-10928D01*
X97436Y-10983D01*
X97392Y-11027D01*
X97381Y-11038D01*
X97294Y-11169D01*
X97228Y-11311D01*
X97173Y-11453D01*
X97141Y-11595D01*
X97119Y-11705D01*
X97108Y-11803D01*
Y-11868D01*
Y-11879D01*
Y-11890D01*
Y-12000D01*
X99294D01*
Y-11978D01*
X99261Y-11781D01*
X99206Y-11606D01*
X99152Y-11453D01*
X99086Y-11322D01*
X99020Y-11213D01*
X98966Y-11136D01*
X98933Y-11082D01*
X98922Y-11071D01*
X98802Y-10950D01*
X98682Y-10852D01*
X98550Y-10786D01*
X98430Y-10743D01*
X98332Y-10721D01*
X98255Y-10699D01*
D02*
G37*
G36*
X108650Y1834D02*
X107437D01*
X107218Y1823D01*
X107032Y1790D01*
X106868Y1747D01*
X106737Y1703D01*
X106639Y1659D01*
X106562Y1615D01*
X106518Y1583D01*
X106508Y1572D01*
X106398Y1462D01*
X106322Y1342D01*
X106256Y1222D01*
X106223Y1091D01*
X106202Y981D01*
X106180Y894D01*
Y828D01*
Y817D01*
Y807D01*
X106191Y643D01*
X106223Y490D01*
X106267Y369D01*
X106322Y260D01*
X106376Y184D01*
X106420Y118D01*
X106453Y85D01*
X106464Y74D01*
X106573Y-13D01*
X106704Y-79D01*
X106825Y-122D01*
X106945Y-155D01*
X107054Y-177D01*
X107141Y-188D01*
X107196Y-199D01*
X108650D01*
Y1834D01*
D02*
G37*
G36*
Y-866D02*
X107032D01*
X106835Y-877D01*
X106672Y-920D01*
X106529Y-964D01*
X106409Y-1030D01*
X106322Y-1084D01*
X106256Y-1139D01*
X106212Y-1183D01*
X106202Y-1194D01*
X106114Y-1325D01*
X106049Y-1467D01*
X105994Y-1609D01*
X105961Y-1751D01*
X105939Y-1871D01*
X105928Y-1980D01*
Y-2046D01*
Y-2057D01*
Y-2068D01*
X105939Y-2254D01*
X105983Y-2429D01*
X106027Y-2571D01*
X106092Y-2680D01*
X106147Y-2778D01*
X106202Y-2844D01*
X106245Y-2888D01*
X106256Y-2899D01*
X106387Y-2997D01*
X106529Y-3063D01*
X106682Y-3117D01*
X106825Y-3150D01*
X106956Y-3172D01*
X107065Y-3183D01*
X108650D01*
Y-866D01*
D02*
G37*
G36*
X92364Y282D02*
X92200D01*
X92091Y260D01*
X91905Y205D01*
X91741Y129D01*
X91610Y41D01*
X91512Y-57D01*
X91435Y-133D01*
X91391Y-188D01*
X91380Y-199D01*
Y-210D01*
X91271Y-407D01*
X91195Y-614D01*
X91129Y-811D01*
X91096Y-1008D01*
X91074Y-1183D01*
X91063Y-1259D01*
X91053Y-1325D01*
Y-1369D01*
Y-1412D01*
Y-1434D01*
Y-1445D01*
Y-1543D01*
X91063Y-1817D01*
X91107Y-2057D01*
X91151Y-2265D01*
X91216Y-2451D01*
X91271Y-2593D01*
X91326Y-2702D01*
X91369Y-2767D01*
X91380Y-2778D01*
Y-2789D01*
X91446Y-2877D01*
X91512Y-2942D01*
X91654Y-3063D01*
X91818Y-3150D01*
X91960Y-3205D01*
X92102Y-3248D01*
X92211Y-3259D01*
X92255Y-3270D01*
X92309D01*
X92419Y-3259D01*
X92528Y-3248D01*
X92714Y-3194D01*
X92878Y-3117D01*
X93009Y-3030D01*
X93118Y-2942D01*
X93195Y-2866D01*
X93239Y-2811D01*
X93249Y-2789D01*
X93359Y-2593D01*
X93435Y-2385D01*
X93490Y-2177D01*
X93523Y-1980D01*
X93545Y-1806D01*
X93555Y-1729D01*
X93566Y-1664D01*
Y-1620D01*
Y-1576D01*
Y-1554D01*
Y-1543D01*
Y-1445D01*
X93555Y-1183D01*
X93512Y-942D01*
X93468Y-724D01*
X93402Y-549D01*
X93348Y-407D01*
X93293Y-297D01*
X93260Y-232D01*
X93249Y-210D01*
X93184Y-122D01*
X93118Y-46D01*
X92965Y74D01*
X92812Y162D01*
X92659Y216D01*
X92528Y260D01*
X92408Y271D01*
X92364Y282D01*
D02*
G37*
G36*
X73106D02*
X72941D01*
X72832Y260D01*
X72646Y205D01*
X72483Y129D01*
X72351Y41D01*
X72253Y-57D01*
X72176Y-133D01*
X72133Y-188D01*
X72122Y-199D01*
Y-210D01*
X72013Y-407D01*
X71936Y-614D01*
X71870Y-811D01*
X71838Y-1008D01*
X71816Y-1183D01*
X71805Y-1259D01*
X71794Y-1325D01*
Y-1369D01*
Y-1412D01*
Y-1434D01*
Y-1445D01*
Y-1543D01*
X71805Y-1817D01*
X71848Y-2057D01*
X71892Y-2265D01*
X71958Y-2451D01*
X72013Y-2593D01*
X72067Y-2702D01*
X72111Y-2767D01*
X72122Y-2778D01*
Y-2789D01*
X72187Y-2877D01*
X72253Y-2942D01*
X72395Y-3063D01*
X72559Y-3150D01*
X72701Y-3205D01*
X72843Y-3248D01*
X72952Y-3259D01*
X72996Y-3270D01*
X73051D01*
X73160Y-3259D01*
X73269Y-3248D01*
X73455Y-3194D01*
X73619Y-3117D01*
X73750Y-3030D01*
X73860Y-2942D01*
X73936Y-2866D01*
X73980Y-2811D01*
X73991Y-2789D01*
X74100Y-2593D01*
X74177Y-2385D01*
X74231Y-2177D01*
X74264Y-1980D01*
X74286Y-1806D01*
X74297Y-1729D01*
X74308Y-1664D01*
Y-1620D01*
Y-1576D01*
Y-1554D01*
Y-1543D01*
Y-1445D01*
X74297Y-1183D01*
X74253Y-942D01*
X74209Y-724D01*
X74144Y-549D01*
X74089Y-407D01*
X74035Y-297D01*
X74002Y-232D01*
X73991Y-210D01*
X73925Y-122D01*
X73860Y-46D01*
X73707Y74D01*
X73554Y162D01*
X73401Y216D01*
X73269Y260D01*
X73149Y271D01*
X73106Y282D01*
D02*
G37*
G36*
X78035Y12093D02*
X77958D01*
X77773Y12082D01*
X77609Y12038D01*
X77478Y11984D01*
X77357Y11929D01*
X77270Y11863D01*
X77215Y11809D01*
X77171Y11765D01*
X77161Y11754D01*
X77073Y11623D01*
X77008Y11481D01*
X76953Y11339D01*
X76920Y11197D01*
X76898Y11087D01*
X76887Y10989D01*
Y10924D01*
Y10913D01*
Y10902D01*
Y10792D01*
X79073D01*
Y10814D01*
X79040Y11011D01*
X78986Y11186D01*
X78931Y11339D01*
X78866Y11470D01*
X78800Y11579D01*
X78745Y11656D01*
X78713Y11710D01*
X78702Y11721D01*
X78581Y11842D01*
X78461Y11940D01*
X78330Y12005D01*
X78210Y12049D01*
X78111Y12071D01*
X78035Y12093D01*
D02*
G37*
G36*
X64525D02*
X64449D01*
X64263Y12082D01*
X64099Y12038D01*
X63968Y11984D01*
X63848Y11929D01*
X63760Y11863D01*
X63706Y11809D01*
X63662Y11765D01*
X63651Y11754D01*
X63564Y11623D01*
X63498Y11481D01*
X63443Y11339D01*
X63411Y11197D01*
X63389Y11087D01*
X63378Y10989D01*
Y10924D01*
Y10913D01*
Y10902D01*
Y10792D01*
X65564D01*
Y10814D01*
X65531Y11011D01*
X65476Y11186D01*
X65422Y11339D01*
X65356Y11470D01*
X65290Y11579D01*
X65236Y11656D01*
X65203Y11710D01*
X65192Y11721D01*
X65072Y11842D01*
X64952Y11940D01*
X64820Y12005D01*
X64700Y12049D01*
X64602Y12071D01*
X64525Y12093D01*
D02*
G37*
G36*
X96517Y13700D02*
X96430D01*
X96255Y13689D01*
X96102Y13667D01*
X95949Y13634D01*
X95807Y13590D01*
X95556Y13481D01*
X95446Y13416D01*
X95348Y13350D01*
X95261Y13284D01*
X95184Y13219D01*
X95118Y13164D01*
X95064Y13110D01*
X95020Y13066D01*
X94987Y13033D01*
X94976Y13011D01*
X94965Y13000D01*
X94867Y12869D01*
X94791Y12727D01*
X94714Y12574D01*
X94659Y12421D01*
X94561Y12115D01*
X94495Y11831D01*
X94474Y11699D01*
X94463Y11579D01*
X94441Y11470D01*
Y11372D01*
X94430Y11295D01*
Y11240D01*
Y11197D01*
Y11186D01*
Y11087D01*
X94441Y10880D01*
X94452Y10683D01*
X94474Y10497D01*
X94506Y10322D01*
X94550Y10169D01*
X94594Y10016D01*
X94638Y9874D01*
X94692Y9754D01*
X94736Y9645D01*
X94791Y9546D01*
X94834Y9459D01*
X94867Y9393D01*
X94911Y9339D01*
X94933Y9295D01*
X94944Y9273D01*
X94955Y9262D01*
X95053Y9142D01*
X95173Y9033D01*
X95282Y8934D01*
X95403Y8858D01*
X95534Y8792D01*
X95654Y8738D01*
X95884Y8650D01*
X96102Y8595D01*
X96190Y8585D01*
X96277Y8574D01*
X96343Y8563D01*
X96430D01*
X96594Y8574D01*
X96747Y8595D01*
X96900Y8628D01*
X97031Y8672D01*
X97272Y8781D01*
X97479Y8912D01*
X97632Y9043D01*
X97698Y9098D01*
X97742Y9153D01*
X97785Y9196D01*
X97818Y9229D01*
X97829Y9251D01*
X97840Y9262D01*
X97927Y9404D01*
X98004Y9546D01*
X98135Y9852D01*
X98223Y10148D01*
X98277Y10443D01*
X98299Y10574D01*
X98321Y10694D01*
X98332Y10803D01*
Y10902D01*
X98343Y10978D01*
Y11044D01*
Y11077D01*
Y11087D01*
Y11186D01*
X98332Y11394D01*
X98321Y11579D01*
X98299Y11765D01*
X98266Y11940D01*
X98223Y12104D01*
X98179Y12246D01*
X98135Y12388D01*
X98091Y12508D01*
X98048Y12618D01*
X98004Y12716D01*
X97960Y12803D01*
X97917Y12869D01*
X97884Y12924D01*
X97862Y12967D01*
X97840Y12989D01*
Y13000D01*
X97742Y13120D01*
X97632Y13230D01*
X97523Y13328D01*
X97403Y13405D01*
X97294Y13470D01*
X97173Y13525D01*
X96944Y13612D01*
X96747Y13667D01*
X96660Y13678D01*
X96583Y13689D01*
X96517Y13700D01*
D02*
G37*
G36*
X90779Y12093D02*
X90615D01*
X90506Y12071D01*
X90320Y12016D01*
X90156Y11940D01*
X90025Y11852D01*
X89927Y11754D01*
X89850Y11678D01*
X89806Y11623D01*
X89796Y11612D01*
Y11601D01*
X89686Y11404D01*
X89610Y11197D01*
X89544Y11000D01*
X89511Y10803D01*
X89490Y10628D01*
X89479Y10552D01*
X89468Y10486D01*
Y10443D01*
Y10399D01*
Y10377D01*
Y10366D01*
Y10268D01*
X89479Y9994D01*
X89522Y9754D01*
X89566Y9546D01*
X89632Y9360D01*
X89686Y9218D01*
X89741Y9109D01*
X89785Y9043D01*
X89796Y9033D01*
Y9022D01*
X89861Y8934D01*
X89927Y8869D01*
X90069Y8748D01*
X90233Y8661D01*
X90375Y8606D01*
X90517Y8563D01*
X90626Y8552D01*
X90670Y8541D01*
X90725D01*
X90834Y8552D01*
X90943Y8563D01*
X91129Y8617D01*
X91293Y8694D01*
X91424Y8781D01*
X91533Y8869D01*
X91610Y8945D01*
X91654Y9000D01*
X91665Y9022D01*
X91774Y9218D01*
X91850Y9426D01*
X91905Y9634D01*
X91938Y9831D01*
X91960Y10005D01*
X91971Y10082D01*
X91982Y10148D01*
Y10191D01*
Y10235D01*
Y10257D01*
Y10268D01*
Y10366D01*
X91971Y10628D01*
X91927Y10869D01*
X91883Y11087D01*
X91818Y11262D01*
X91763Y11404D01*
X91708Y11514D01*
X91676Y11579D01*
X91665Y11601D01*
X91599Y11689D01*
X91533Y11765D01*
X91380Y11885D01*
X91227Y11973D01*
X91074Y12027D01*
X90943Y12071D01*
X90823Y12082D01*
X90779Y12093D01*
D02*
G37*
G36*
X56831Y12071D02*
X56776D01*
X56645Y12060D01*
X56525Y12049D01*
X56415Y12016D01*
X56317Y11984D01*
X56240Y11951D01*
X56186Y11929D01*
X56153Y11907D01*
X56142Y11896D01*
X56044Y11831D01*
X55967Y11754D01*
X55891Y11667D01*
X55825Y11601D01*
X55770Y11525D01*
X55738Y11481D01*
X55716Y11437D01*
X55705Y11426D01*
Y9229D01*
X55770Y9120D01*
X55847Y9022D01*
X55923Y8934D01*
X55989Y8869D01*
X56055Y8814D01*
X56098Y8770D01*
X56131Y8748D01*
X56142Y8738D01*
X56240Y8683D01*
X56350Y8639D01*
X56459Y8606D01*
X56557Y8585D01*
X56656Y8574D01*
X56721Y8563D01*
X56787D01*
X57006Y8585D01*
X57191Y8628D01*
X57344Y8694D01*
X57465Y8781D01*
X57563Y8858D01*
X57639Y8923D01*
X57683Y8967D01*
X57694Y8989D01*
X57793Y9164D01*
X57869Y9350D01*
X57913Y9546D01*
X57956Y9732D01*
X57978Y9885D01*
X57989Y10016D01*
Y10071D01*
Y10104D01*
Y10126D01*
Y10137D01*
Y10235D01*
X57978Y10530D01*
X57946Y10792D01*
X57891Y11011D01*
X57836Y11208D01*
X57793Y11361D01*
X57738Y11470D01*
X57716Y11503D01*
X57705Y11536D01*
X57694Y11547D01*
Y11557D01*
X57639Y11645D01*
X57574Y11732D01*
X57421Y11852D01*
X57279Y11951D01*
X57126Y12005D01*
X56984Y12049D01*
X56874Y12060D01*
X56831Y12071D01*
D02*
G37*
G36*
X89833Y36175D02*
X89702D01*
X89352Y36154D01*
X89046Y36110D01*
X88762Y36022D01*
X88521Y35935D01*
X88324Y35847D01*
X88171Y35760D01*
X88084Y35716D01*
X88062Y35694D01*
X87821Y35497D01*
X87603Y35279D01*
X87406Y35038D01*
X87253Y34819D01*
X87143Y34601D01*
X87056Y34448D01*
X87012Y34338D01*
X86990Y34295D01*
Y29921D01*
X87143Y29614D01*
X87340Y29352D01*
X87537Y29111D01*
X87756Y28915D01*
X87974Y28762D01*
X88215Y28608D01*
X88434Y28499D01*
X88652Y28412D01*
X89068Y28280D01*
X89243Y28237D01*
X89418Y28215D01*
X89549D01*
X89636Y28193D01*
X89724D01*
X89964Y28215D01*
X90205Y28237D01*
X90599Y28346D01*
X90970Y28521D01*
X91255Y28718D01*
X91474Y28893D01*
X91649Y29068D01*
X91736Y29177D01*
X91780Y29221D01*
X92020Y29636D01*
X92195Y30117D01*
X92326Y30599D01*
X92414Y31058D01*
X92458Y31451D01*
X92479Y31626D01*
Y31780D01*
X92501Y31911D01*
Y31998D01*
Y32064D01*
Y32086D01*
Y32458D01*
X92479Y32786D01*
X92436Y33114D01*
X92392Y33420D01*
X92326Y33682D01*
X92283Y33923D01*
X92217Y34163D01*
X92130Y34360D01*
X92064Y34535D01*
X91998Y34688D01*
X91955Y34819D01*
X91889Y34929D01*
X91845Y35016D01*
X91802Y35082D01*
X91780Y35104D01*
Y35126D01*
X91627Y35301D01*
X91474Y35476D01*
X91145Y35738D01*
X90795Y35913D01*
X90468Y36044D01*
X90161Y36132D01*
X89921Y36154D01*
X89833Y36175D01*
D02*
G37*
G36*
X112119Y36197D02*
X112009D01*
X111594Y36154D01*
X111222Y36066D01*
X110894Y35913D01*
X110610Y35760D01*
X110391Y35607D01*
X110238Y35454D01*
X110129Y35366D01*
X110107Y35322D01*
X109866Y34973D01*
X109669Y34623D01*
X109538Y34251D01*
X109429Y33901D01*
X109363Y33595D01*
X109341Y33332D01*
X109319Y33245D01*
Y33179D01*
Y33136D01*
Y33114D01*
Y33004D01*
X114984D01*
X114896Y33529D01*
X114765Y33967D01*
X114590Y34382D01*
X114415Y34710D01*
X114262Y34973D01*
X114131Y35169D01*
X114043Y35279D01*
X114000Y35322D01*
X113672Y35607D01*
X113344Y35825D01*
X113015Y35979D01*
X112709Y36088D01*
X112425Y36154D01*
X112206Y36175D01*
X112119Y36197D01*
D02*
G37*
G36*
X69997D02*
X69888D01*
X69472Y36154D01*
X69100Y36066D01*
X68772Y35913D01*
X68488Y35760D01*
X68269Y35607D01*
X68116Y35454D01*
X68007Y35366D01*
X67985Y35322D01*
X67745Y34973D01*
X67548Y34623D01*
X67417Y34251D01*
X67307Y33901D01*
X67242Y33595D01*
X67220Y33332D01*
X67198Y33245D01*
Y33179D01*
Y33136D01*
Y33114D01*
Y33004D01*
X72862D01*
X72775Y33529D01*
X72643Y33967D01*
X72469Y34382D01*
X72294Y34710D01*
X72140Y34973D01*
X72009Y35169D01*
X71922Y35279D01*
X71878Y35322D01*
X71550Y35607D01*
X71222Y35825D01*
X70894Y35979D01*
X70588Y36088D01*
X70303Y36154D01*
X70085Y36175D01*
X69997Y36197D01*
D02*
G37*
G36*
X125897Y39259D02*
X123382D01*
X123032Y39237D01*
X122682Y39193D01*
X122376Y39128D01*
X122070Y39040D01*
X121523Y38822D01*
X121282Y38712D01*
X121086Y38581D01*
X120889Y38472D01*
X120714Y38341D01*
X120561Y38231D01*
X120451Y38122D01*
X120364Y38056D01*
X120298Y37991D01*
X120254Y37947D01*
X120232Y37925D01*
X120014Y37663D01*
X119839Y37400D01*
X119664Y37116D01*
X119533Y36832D01*
X119314Y36241D01*
X119183Y35672D01*
X119139Y35410D01*
X119095Y35169D01*
X119073Y34951D01*
X119052Y34776D01*
X119030Y34623D01*
Y34491D01*
Y34426D01*
Y34404D01*
Y33289D01*
X119052Y32873D01*
X119073Y32479D01*
X119139Y32108D01*
X119227Y31758D01*
X119314Y31451D01*
X119423Y31145D01*
X119533Y30883D01*
X119642Y30642D01*
X119751Y30424D01*
X119861Y30227D01*
X119970Y30052D01*
X120058Y29921D01*
X120145Y29811D01*
X120211Y29746D01*
X120232Y29702D01*
X120254Y29680D01*
X120495Y29439D01*
X120736Y29243D01*
X120998Y29068D01*
X121260Y28915D01*
X121523Y28805D01*
X121807Y28696D01*
X122310Y28543D01*
X122551Y28477D01*
X122769Y28433D01*
X122966Y28412D01*
X123141Y28390D01*
X123273Y28368D01*
X125897D01*
Y39259D01*
D02*
G37*
G36*
X48499D02*
X45809D01*
X45262Y39237D01*
X44781Y39172D01*
X44387Y39062D01*
X44059Y38975D01*
X43819Y38865D01*
X43644Y38756D01*
X43534Y38691D01*
X43491Y38669D01*
X43228Y38428D01*
X43053Y38144D01*
X42922Y37837D01*
X42813Y37531D01*
X42769Y37269D01*
X42747Y37050D01*
X42725Y36963D01*
Y36897D01*
Y36875D01*
Y36853D01*
X42747Y36438D01*
X42835Y36088D01*
X42966Y35782D01*
X43097Y35541D01*
X43228Y35344D01*
X43360Y35191D01*
X43447Y35104D01*
X43469Y35082D01*
X43775Y34885D01*
X44103Y34732D01*
X44453Y34623D01*
X44781Y34557D01*
X45087Y34513D01*
X45328Y34491D01*
X45415Y34470D01*
X48499D01*
Y39259D01*
D02*
G37*
G36*
Y33551D02*
X45175D01*
X44694Y33529D01*
X44278Y33442D01*
X43906Y33332D01*
X43600Y33201D01*
X43360Y33070D01*
X43185Y32961D01*
X43097Y32873D01*
X43053Y32851D01*
X42791Y32567D01*
X42594Y32283D01*
X42463Y31976D01*
X42353Y31670D01*
X42310Y31408D01*
X42288Y31189D01*
X42266Y31102D01*
Y31036D01*
Y31014D01*
Y30992D01*
X42310Y30555D01*
X42397Y30183D01*
X42528Y29855D01*
X42660Y29571D01*
X42813Y29352D01*
X42944Y29199D01*
X43031Y29111D01*
X43075Y29068D01*
X43403Y28827D01*
X43753Y28674D01*
X44125Y28543D01*
X44475Y28455D01*
X44781Y28412D01*
X45044Y28390D01*
X45131Y28368D01*
X48499D01*
Y33551D01*
D02*
G37*
G36*
X60812Y36175D02*
X60681D01*
X60331Y36154D01*
X60024Y36088D01*
X59718Y36000D01*
X59456Y35891D01*
X59215Y35738D01*
X58997Y35585D01*
X58778Y35410D01*
X58603Y35257D01*
X58450Y35082D01*
X58319Y34907D01*
X58122Y34601D01*
X58056Y34491D01*
X58012Y34404D01*
X57969Y34338D01*
Y34317D01*
Y29877D01*
X58122Y29571D01*
X58319Y29330D01*
X58515Y29090D01*
X58734Y28915D01*
X58953Y28740D01*
X59193Y28608D01*
X59412Y28499D01*
X59631Y28412D01*
X60046Y28280D01*
X60221Y28237D01*
X60396Y28215D01*
X60527D01*
X60615Y28193D01*
X60702D01*
X60943Y28215D01*
X61184Y28237D01*
X61577Y28346D01*
X61949Y28521D01*
X62233Y28718D01*
X62452Y28893D01*
X62627Y29068D01*
X62714Y29177D01*
X62758Y29221D01*
X62999Y29636D01*
X63174Y30117D01*
X63305Y30599D01*
X63392Y31058D01*
X63436Y31451D01*
X63458Y31626D01*
Y31780D01*
X63480Y31911D01*
Y31998D01*
Y32064D01*
Y32086D01*
Y32458D01*
X63458Y32786D01*
X63414Y33114D01*
X63371Y33420D01*
X63305Y33682D01*
X63261Y33923D01*
X63196Y34163D01*
X63108Y34360D01*
X63042Y34535D01*
X62977Y34688D01*
X62933Y34819D01*
X62867Y34929D01*
X62824Y35016D01*
X62780Y35082D01*
X62758Y35104D01*
Y35126D01*
X62605Y35301D01*
X62452Y35476D01*
X62124Y35738D01*
X61774Y35913D01*
X61446Y36044D01*
X61140Y36132D01*
X60899Y36154D01*
X60812Y36175D01*
D02*
G37*
%LPD*%
D31*
X172244Y-31496D02*
D03*
Y-35433D02*
D03*
Y-39370D02*
D03*
X175197Y-41339D02*
D03*
Y-37402D02*
D03*
Y-33465D02*
D03*
Y-29528D02*
D03*
X132874Y-31496D02*
D03*
Y-35433D02*
D03*
Y-39370D02*
D03*
X129921Y-41339D02*
D03*
Y-37402D02*
D03*
Y-33465D02*
D03*
Y-29528D02*
D03*
X132874Y39370D02*
D03*
Y35433D02*
D03*
Y31496D02*
D03*
X129921Y29528D02*
D03*
Y33465D02*
D03*
Y37402D02*
D03*
Y41339D02*
D03*
X175197D02*
D03*
Y37402D02*
D03*
Y33465D02*
D03*
Y29528D02*
D03*
X172244Y31496D02*
D03*
Y35433D02*
D03*
Y39370D02*
D03*
X-37402Y41437D02*
D03*
Y33563D02*
D03*
X-9843D02*
D03*
Y41437D02*
D03*
X-14764Y33563D02*
D03*
Y41437D02*
D03*
X-19685Y33563D02*
D03*
Y41437D02*
D03*
X-23622Y33563D02*
D03*
Y41437D02*
D03*
X-27559Y33563D02*
D03*
Y41437D02*
D03*
X-32480Y33563D02*
D03*
Y41437D02*
D03*
X-37402Y37500D02*
D03*
X-9843D02*
D03*
Y-16437D02*
D03*
Y-8563D02*
D03*
X-37402D02*
D03*
Y-16437D02*
D03*
X-32480Y-8563D02*
D03*
Y-16437D02*
D03*
X-27559Y-8563D02*
D03*
Y-16437D02*
D03*
X-23622Y-8563D02*
D03*
Y-16437D02*
D03*
X-19685Y-8563D02*
D03*
Y-16437D02*
D03*
X-14764Y-8563D02*
D03*
Y-16437D02*
D03*
X-9843Y-12500D02*
D03*
X-37402D02*
D03*
X-9843Y8563D02*
D03*
Y16437D02*
D03*
X-37402D02*
D03*
Y8563D02*
D03*
X-32480Y16437D02*
D03*
Y8563D02*
D03*
X-27559Y16437D02*
D03*
Y8563D02*
D03*
X-23622Y16437D02*
D03*
Y8563D02*
D03*
X-19685Y16437D02*
D03*
Y8563D02*
D03*
X-14764Y16437D02*
D03*
Y8563D02*
D03*
X-9843Y12500D02*
D03*
X-37402D02*
D03*
Y-33563D02*
D03*
Y-41437D02*
D03*
X-9843D02*
D03*
Y-33563D02*
D03*
X-14764Y-41437D02*
D03*
Y-33563D02*
D03*
X-19685Y-41437D02*
D03*
Y-33563D02*
D03*
X-23622Y-41437D02*
D03*
Y-33563D02*
D03*
X-27559Y-41437D02*
D03*
Y-33563D02*
D03*
X-32480Y-41437D02*
D03*
Y-33563D02*
D03*
X-37402Y-37500D02*
D03*
X-9843D02*
D03*
X127953Y82677D02*
D03*
X153543Y-60039D02*
D03*
X270669Y17717D02*
D03*
Y13471D02*
D03*
X283465Y24915D02*
D03*
X280512Y27559D02*
D03*
X269426D02*
D03*
X270669Y36417D02*
D03*
X263779Y24606D02*
D03*
X265748Y31496D02*
D03*
X246063Y66929D02*
D03*
X152264Y60335D02*
D03*
X265748Y17717D02*
D03*
D32*
X221457Y10000D02*
D03*
X216535Y63819D02*
D03*
X187008D02*
D03*
X186772Y-88819D02*
D03*
D33*
X221457Y0D02*
D03*
Y-10000D02*
D03*
X206535Y63819D02*
D03*
X216535Y73819D02*
D03*
X206535D02*
D03*
X216535Y83819D02*
D03*
X206535D02*
D03*
X187008Y73819D02*
D03*
Y83819D02*
D03*
X216772Y-58819D02*
D03*
X206772D02*
D03*
X196772D02*
D03*
X186772D02*
D03*
X216772Y-88819D02*
D03*
X206772D02*
D03*
X196772D02*
D03*
D34*
X-23622Y37500D02*
D03*
Y-12500D02*
D03*
Y12500D02*
D03*
Y-37500D02*
D03*
D35*
X84355Y55118D02*
D03*
X54434D02*
D03*
D36*
X114473D02*
D03*
X24316D02*
D03*
X196000Y-12500D02*
D03*
Y-37500D02*
D03*
Y12500D02*
D03*
Y37500D02*
D03*
D37*
X106797Y-28740D02*
D03*
Y-72047D02*
D03*
X31993D02*
D03*
Y-28740D02*
D03*
D38*
X276654Y79724D02*
D03*
X266654D02*
D03*
X256654D02*
D03*
X286654D02*
D03*
X256654Y-79724D02*
D03*
X286654D02*
D03*
X276654D02*
D03*
X266654D02*
D03*
M02*
