G04*
G04 #@! TF.GenerationSoftware,Altium Limited,Altium Designer,18.1.9 (240)*
G04*
G04 Layer_Physical_Order=1*
G04 Layer_Color=255*
%FSLAX25Y25*%
%MOIN*%
G70*
G01*
G75*
%ADD13C,0.01000*%
%ADD39R,0.04724X0.02756*%
%ADD40R,0.02559X0.03740*%
%ADD41O,0.05512X0.01575*%
%ADD42R,0.05315X0.04528*%
%ADD43R,0.03740X0.02559*%
%ADD44R,0.04528X0.05315*%
G04:AMPARAMS|DCode=45|XSize=19.68mil|YSize=47.24mil|CornerRadius=0mil|HoleSize=0mil|Usage=FLASHONLY|Rotation=225.000|XOffset=0mil|YOffset=0mil|HoleType=Round|Shape=Round|*
%AMOVALD45*
21,1,0.02756,0.01968,0.00000,0.00000,315.0*
1,1,0.01968,-0.00974,0.00974*
1,1,0.01968,0.00974,-0.00974*
%
%ADD45OVALD45*%

G04:AMPARAMS|DCode=46|XSize=19.68mil|YSize=47.24mil|CornerRadius=0mil|HoleSize=0mil|Usage=FLASHONLY|Rotation=135.000|XOffset=0mil|YOffset=0mil|HoleType=Round|Shape=Round|*
%AMOVALD46*
21,1,0.02756,0.01968,0.00000,0.00000,225.0*
1,1,0.01968,0.00974,0.00974*
1,1,0.01968,-0.00974,-0.00974*
%
%ADD46OVALD46*%

%ADD47R,0.05512X0.05118*%
%ADD48R,0.04724X0.04724*%
%ADD49R,0.13386X0.04724*%
%ADD50R,0.13386X0.02362*%
%ADD51C,0.02000*%
%ADD52R,0.04921X0.11800*%
%ADD53R,0.04921X0.11670*%
%ADD54R,0.24606X0.39370*%
%ADD55C,0.02362*%
%ADD56R,0.05906X0.05906*%
%ADD57C,0.05906*%
%ADD58R,0.31496X0.11811*%
%ADD59C,0.09449*%
%ADD60C,0.11811*%
%ADD61O,0.18898X0.09449*%
%ADD62O,0.06890X0.09843*%
G36*
X291339Y94488D02*
X292371D01*
X294418Y94219D01*
X296411Y93684D01*
X298319Y92894D01*
X300107Y91862D01*
X301744Y90606D01*
X303204Y89146D01*
X304461Y87508D01*
X305493Y85720D01*
X306283Y83813D01*
X306817Y81819D01*
X307087Y79772D01*
Y78740D01*
X307087Y78740D01*
Y-78740D01*
X307087D01*
Y-79772D01*
X306817Y-81819D01*
X306283Y-83813D01*
X305493Y-85720D01*
X304461Y-87508D01*
X303204Y-89146D01*
X301744Y-90606D01*
X300107Y-91862D01*
X298319Y-92894D01*
X296411Y-93685D01*
X294418Y-94219D01*
X292371Y-94488D01*
X22590D01*
X20543Y-94219D01*
X18549Y-93685D01*
X16642Y-92894D01*
X14854Y-91862D01*
X13216Y-90606D01*
X11757Y-89146D01*
X10500Y-87508D01*
X9468Y-85720D01*
X8678Y-83813D01*
X8144Y-81819D01*
X7874Y-79772D01*
Y-78740D01*
X8021Y-78301D01*
X27263D01*
X27269Y-78302D01*
X36718D01*
X36724Y-78301D01*
X47244D01*
X47829Y-78185D01*
X48325Y-77853D01*
X48657Y-77357D01*
X48774Y-76772D01*
Y-20669D01*
X92959Y-20669D01*
Y-76772D01*
X93075Y-77357D01*
X93407Y-77853D01*
X93903Y-78185D01*
X94488Y-78301D01*
X102066D01*
X102072Y-78302D01*
X111521D01*
X111527Y-78301D01*
X129921D01*
X130507Y-78185D01*
X131003Y-77853D01*
X131334Y-77357D01*
X131451Y-76772D01*
X131451Y-46986D01*
X133506Y-44931D01*
X149248Y-44978D01*
X149249Y-44978D01*
X149250Y-44978D01*
X149542Y-44921D01*
X149833Y-44864D01*
X149834Y-44863D01*
X149835Y-44863D01*
X149919Y-44807D01*
X150453D01*
Y-48748D01*
X145399Y-53802D01*
X141929D01*
X141388Y-53910D01*
X140929Y-54216D01*
X140622Y-54675D01*
X140515Y-55216D01*
X140622Y-55758D01*
X140687Y-55855D01*
X140640Y-56487D01*
X140245Y-57078D01*
X140206Y-57276D01*
X143898D01*
X147589D01*
X147550Y-57078D01*
X147155Y-56487D01*
X147108Y-55855D01*
X147173Y-55758D01*
X147281Y-55216D01*
X147260Y-55113D01*
X152237Y-50137D01*
X152425Y-50089D01*
X152693Y-50089D01*
X152882Y-50137D01*
X157858Y-55113D01*
X157837Y-55216D01*
X157945Y-55758D01*
X158010Y-55855D01*
X157963Y-56487D01*
X157568Y-57078D01*
X157529Y-57276D01*
X161221D01*
X164912D01*
X164873Y-57078D01*
X164478Y-56487D01*
X164431Y-55855D01*
X164496Y-55758D01*
X164603Y-55216D01*
X164496Y-54675D01*
X164189Y-54216D01*
X163730Y-53910D01*
X163189Y-53802D01*
X159719D01*
X154665Y-48748D01*
Y-45232D01*
X154706Y-45166D01*
X155165Y-44860D01*
X155512Y-44929D01*
X195879D01*
X196000Y-44941D01*
X196121Y-44929D01*
X206693D01*
X207278Y-44813D01*
X207774Y-44481D01*
X208106Y-43985D01*
X208222Y-43400D01*
Y-39539D01*
X232063D01*
Y-41657D01*
X240378D01*
Y-34130D01*
X239869D01*
X239478Y-33868D01*
X239478Y-33630D01*
Y-28140D01*
X237342D01*
Y-21072D01*
X239478D01*
Y-18014D01*
X243903Y-13588D01*
X243903Y-13588D01*
X244146Y-13225D01*
X244232Y-12795D01*
Y12173D01*
X249885Y17825D01*
X250057Y17830D01*
X250531Y17357D01*
X250526Y17184D01*
X245270Y11929D01*
X245027Y11565D01*
X244941Y11136D01*
X244941Y11135D01*
Y-43827D01*
X236740Y-52028D01*
X177165D01*
X176736Y-52113D01*
X176372Y-52357D01*
X176372Y-52357D01*
X171451Y-57278D01*
X171208Y-57642D01*
X171123Y-58071D01*
X171123Y-58071D01*
Y-78276D01*
X168630Y-80768D01*
X167726D01*
Y-79150D01*
X168126D01*
Y-76091D01*
X160614D01*
Y-79150D01*
X161014D01*
Y-81063D01*
X155816D01*
Y-79321D01*
X149302D01*
Y-85049D01*
X155816D01*
Y-83307D01*
X161014D01*
Y-85049D01*
X167726D01*
Y-83011D01*
X169094D01*
X169095Y-83011D01*
X169524Y-82926D01*
X169888Y-82683D01*
X173037Y-79533D01*
X173037Y-79533D01*
X173280Y-79169D01*
X173366Y-78740D01*
X173366Y-78740D01*
Y-58535D01*
X177630Y-54271D01*
X237205D01*
X237205Y-54271D01*
X237634Y-54186D01*
X237998Y-53943D01*
X246856Y-45084D01*
X246856Y-45084D01*
X247099Y-44721D01*
X247184Y-44291D01*
X247184Y-44291D01*
Y10671D01*
X252112Y15598D01*
X252557Y15611D01*
X252920Y15202D01*
X252907Y15141D01*
X253030Y14523D01*
X253381Y13999D01*
X253905Y13649D01*
X254523Y13526D01*
X254756Y13572D01*
X255181Y13147D01*
X255135Y12914D01*
X255258Y12296D01*
X255608Y11772D01*
X256132Y11422D01*
X256750Y11299D01*
X256983Y11345D01*
X257408Y10920D01*
X257362Y10687D01*
X257485Y10069D01*
X257835Y9545D01*
X258359Y9195D01*
X258977Y9072D01*
X259210Y9118D01*
X259635Y8693D01*
X259589Y8460D01*
X259712Y7842D01*
X260062Y7318D01*
X260586Y6967D01*
X261204Y6844D01*
X261437Y6891D01*
X261862Y6466D01*
X261816Y6233D01*
X261939Y5615D01*
X262289Y5091D01*
X262813Y4740D01*
X263431Y4617D01*
X263492Y4629D01*
X263901Y4267D01*
X263888Y3822D01*
X255112Y-4954D01*
X254869Y-5318D01*
X254784Y-5747D01*
X254784Y-5747D01*
Y-8455D01*
X252648D01*
Y-14183D01*
X259163D01*
Y-8455D01*
X257027D01*
Y-6212D01*
X265634Y2395D01*
X265658Y2390D01*
X266277Y2513D01*
X266800Y2863D01*
X268749Y4812D01*
X269099Y5336D01*
X269222Y5954D01*
X269099Y6572D01*
X268749Y7096D01*
X268225Y7447D01*
X267607Y7570D01*
X267374Y7523D01*
X266949Y7948D01*
X266995Y8181D01*
X266990Y8206D01*
X270478Y11693D01*
X270669Y11655D01*
X271364Y11793D01*
X271953Y12187D01*
X272347Y12776D01*
X272485Y13471D01*
X272347Y14166D01*
X271953Y14755D01*
X271364Y15148D01*
X270861Y15249D01*
X270608Y15678D01*
X270593Y15773D01*
X270643Y15856D01*
X270715Y15910D01*
X271364Y16039D01*
X271953Y16432D01*
X272347Y17022D01*
X272485Y17717D01*
X272347Y18411D01*
X271953Y19001D01*
X271364Y19394D01*
X270669Y19533D01*
X269974Y19394D01*
X269385Y19001D01*
X268991Y18411D01*
X268853Y17717D01*
X268891Y17525D01*
X263351Y11984D01*
X263153Y12024D01*
X262920Y11977D01*
X262495Y12403D01*
X262541Y12636D01*
X262536Y12660D01*
X265784Y15908D01*
X266443Y16039D01*
X267032Y16432D01*
X267426Y17022D01*
X267564Y17717D01*
X267426Y18411D01*
X267032Y19001D01*
X266443Y19394D01*
X265748Y19533D01*
X265640Y19511D01*
X265394Y19972D01*
X270219Y24798D01*
X270219Y24798D01*
X270462Y25161D01*
X270548Y25591D01*
Y26166D01*
X270710Y26275D01*
X271104Y26864D01*
X271242Y27559D01*
X271104Y28254D01*
X270710Y28843D01*
X270121Y29237D01*
X269426Y29375D01*
X268731Y29237D01*
X268142Y28843D01*
X267749Y28254D01*
X267610Y27559D01*
X267749Y26864D01*
X268142Y26275D01*
X268011Y25761D01*
X265852Y23603D01*
X265457Y23911D01*
X265596Y24606D01*
X265457Y25301D01*
X265064Y25890D01*
X264475Y26284D01*
X263779Y26422D01*
X263085Y26284D01*
X262495Y25890D01*
X262102Y25301D01*
X261964Y24606D01*
X262036Y24241D01*
X256496Y18700D01*
X256471Y18705D01*
X256239Y18659D01*
X255813Y19084D01*
X255860Y19317D01*
X255737Y19935D01*
X255387Y20459D01*
X254862Y20809D01*
X254244Y20932D01*
X254011Y20886D01*
X253586Y21311D01*
X253632Y21544D01*
X253510Y22162D01*
X253159Y22686D01*
X252635Y23036D01*
X252017Y23159D01*
X251399Y23036D01*
X250875Y22686D01*
X248926Y20738D01*
X248576Y20213D01*
X248453Y19595D01*
X248458Y19571D01*
X242317Y13430D01*
X242074Y13066D01*
X241989Y12637D01*
X241989Y12637D01*
Y-12331D01*
X240340Y-13979D01*
X239878Y-13788D01*
Y-11819D01*
X236721D01*
Y-14583D01*
X238953D01*
X239158Y-15052D01*
X238922Y-15345D01*
X232963D01*
Y-21072D01*
X235099D01*
Y-28140D01*
X232963D01*
Y-33630D01*
X232963Y-33868D01*
X232572Y-34130D01*
X232063D01*
Y-35461D01*
X208222D01*
Y-27559D01*
X208106Y-26974D01*
X207774Y-26478D01*
X207278Y-26146D01*
X206693Y-26030D01*
X155512D01*
X155365Y-26059D01*
X154209D01*
Y-26809D01*
X154099Y-26974D01*
X153982Y-27559D01*
Y-33652D01*
X154099Y-34237D01*
X154430Y-34733D01*
X154448Y-34911D01*
X152882Y-36477D01*
X152559Y-36560D01*
X152237Y-36477D01*
X150670Y-34911D01*
X150688Y-34733D01*
X151019Y-34237D01*
X151136Y-33652D01*
Y-27559D01*
X151019Y-26974D01*
X150909Y-26810D01*
Y-26059D01*
X149754D01*
X149606Y-26030D01*
X133508D01*
X131451Y-23973D01*
X131451Y-20669D01*
X131334Y-20084D01*
X131145Y-19801D01*
X131145Y-18476D01*
X2547Y-18428D01*
X1969Y-18400D01*
Y-18400D01*
X-6874D01*
Y-13000D01*
X-23622D01*
Y-12000D01*
X-6874D01*
Y-6600D01*
X1969D01*
X2547Y-6572D01*
X3683Y-6346D01*
X4752Y-5903D01*
X5715Y-5260D01*
X6533Y-4441D01*
X7177Y-3478D01*
X7620Y-2409D01*
X7846Y-1273D01*
X7874Y-695D01*
X7874Y-695D01*
Y695D01*
X7874D01*
X7874Y695D01*
X7846Y1273D01*
X7620Y2409D01*
X7177Y3478D01*
X6533Y4441D01*
X5715Y5260D01*
X4752Y5903D01*
X3683Y6346D01*
X2547Y6572D01*
X1969Y6600D01*
Y6600D01*
X-6874D01*
Y12000D01*
X-23622D01*
Y13000D01*
X-6874D01*
Y18400D01*
X1969D01*
X2547Y18428D01*
X131145Y18476D01*
X131145Y19801D01*
X131334Y20084D01*
X131451Y20669D01*
Y23973D01*
X133508Y26030D01*
X149606D01*
X149754Y26059D01*
X150909D01*
Y26809D01*
X151019Y26974D01*
X151136Y27559D01*
Y33652D01*
X151019Y34237D01*
X150688Y34733D01*
X150670Y34911D01*
X152276Y36517D01*
X152382Y36559D01*
X152613Y36576D01*
X152921Y36536D01*
X154546Y34911D01*
X154529Y34733D01*
X154197Y34237D01*
X154081Y33652D01*
Y27559D01*
X154197Y26974D01*
X154209Y26957D01*
Y26059D01*
X155463D01*
X155610Y26030D01*
X206693D01*
X207278Y26146D01*
X207774Y26478D01*
X208106Y26974D01*
X208222Y27559D01*
Y35461D01*
X232063D01*
Y34130D01*
X232572D01*
X232963Y33868D01*
X232963Y33630D01*
Y28140D01*
X235099D01*
Y21072D01*
X232963D01*
Y15345D01*
X239478D01*
Y21072D01*
X237342D01*
Y28140D01*
X239478D01*
Y29882D01*
X248063D01*
X248453Y29617D01*
X248576Y28999D01*
X248926Y28475D01*
X250875Y26526D01*
X251399Y26176D01*
X252017Y26053D01*
X252635Y26176D01*
X253159Y26526D01*
X253510Y27050D01*
X253632Y27669D01*
X253586Y27902D01*
X254011Y28327D01*
X254244Y28280D01*
X254862Y28403D01*
X255386Y28754D01*
X255737Y29278D01*
X255860Y29896D01*
X255813Y30129D01*
X256239Y30554D01*
X256471Y30507D01*
X257090Y30630D01*
X257614Y30981D01*
X257964Y31505D01*
X258051Y31946D01*
X258510Y32364D01*
X258699Y32327D01*
X259473Y32481D01*
X259705Y32636D01*
X257371Y34971D01*
X255036Y37305D01*
X254881Y37073D01*
X254727Y36299D01*
X254764Y36110D01*
X254346Y35652D01*
X253905Y35564D01*
X253381Y35214D01*
X253030Y34690D01*
X252907Y34071D01*
X252920Y34010D01*
X252557Y33602D01*
X252112Y33614D01*
X233752Y51974D01*
X233388Y52217D01*
X232959Y52303D01*
X232959Y52303D01*
X184520D01*
X171397Y65425D01*
Y78740D01*
X171397Y78740D01*
X171312Y79169D01*
X171069Y79533D01*
X171069Y79533D01*
X167919Y82683D01*
X167726Y82812D01*
Y85049D01*
X161014D01*
Y83307D01*
X155816D01*
Y85049D01*
X149302D01*
Y79321D01*
X155816D01*
Y81063D01*
X161014D01*
Y79150D01*
X160614D01*
Y76091D01*
X164370D01*
X168126D01*
Y78597D01*
X168626Y78804D01*
X169154Y78276D01*
Y64961D01*
X169154Y64961D01*
X169239Y64531D01*
X169483Y64168D01*
X183262Y50388D01*
X183262Y50388D01*
X183626Y50145D01*
X184055Y50059D01*
X184055Y50060D01*
X232494D01*
X240409Y42145D01*
X240189Y41658D01*
X232063D01*
Y39539D01*
X208222D01*
Y43400D01*
X208106Y43985D01*
X207774Y44481D01*
X207278Y44813D01*
X206693Y44929D01*
X196122D01*
X196000Y44941D01*
X195879Y44929D01*
X155610D01*
X155165Y44841D01*
X154665Y45128D01*
Y48748D01*
X159719Y53802D01*
X163189D01*
X163730Y53910D01*
X164189Y54216D01*
X164496Y54675D01*
X164604Y55216D01*
X164496Y55758D01*
X164431Y55855D01*
X164478Y56487D01*
X164873Y57078D01*
X164912Y57276D01*
X161221D01*
X157529D01*
X157568Y57078D01*
X157963Y56487D01*
X158010Y55855D01*
X157945Y55758D01*
X157837Y55216D01*
X157858Y55113D01*
X152882Y50137D01*
X152693Y50089D01*
X152425Y50089D01*
X152237Y50137D01*
X147260Y55113D01*
X147281Y55216D01*
X147173Y55758D01*
X147108Y55855D01*
X147155Y56487D01*
X147550Y57078D01*
X147589Y57276D01*
X143898D01*
X140206D01*
X140245Y57078D01*
X140640Y56487D01*
X140687Y55855D01*
X140622Y55758D01*
X140515Y55216D01*
X140622Y54675D01*
X140929Y54216D01*
X141388Y53910D01*
X141929Y53802D01*
X145399D01*
X150453Y48748D01*
Y44807D01*
X149715D01*
X149606Y44829D01*
X6456D01*
X6265Y45291D01*
X6533Y45559D01*
X7177Y46522D01*
X7620Y47591D01*
X7846Y48727D01*
X7874Y49305D01*
X7874D01*
Y78740D01*
X7874Y79772D01*
X8144Y81819D01*
X8678Y83813D01*
X9468Y85720D01*
X10500Y87508D01*
X11757Y89146D01*
X13216Y90606D01*
X14854Y91862D01*
X16642Y92894D01*
X18549Y93684D01*
X20543Y94219D01*
X22590Y94488D01*
X23622D01*
Y94488D01*
X291339D01*
X291339Y94488D01*
D02*
G37*
G36*
X250526Y32028D02*
X250531Y31856D01*
X250057Y31382D01*
X249885Y31387D01*
X249475Y31797D01*
X249111Y32040D01*
X248682Y32125D01*
X248682Y32125D01*
X239831D01*
X239478Y32479D01*
X239478Y33868D01*
X239869Y34130D01*
X240378D01*
Y41469D01*
X240865Y41689D01*
X250526Y32028D01*
D02*
G37*
G36*
X206693Y27559D02*
X155610D01*
Y33652D01*
X169694D01*
Y37214D01*
X155610D01*
Y43400D01*
X206693D01*
Y27559D01*
D02*
G37*
G36*
X149606Y37214D02*
X135424D01*
Y33652D01*
X149606D01*
Y27559D01*
X132874D01*
X129921Y24606D01*
Y20669D01*
X7874D01*
Y28543D01*
X4921Y31600D01*
X-11811D01*
Y43299D01*
X149606D01*
Y37214D01*
D02*
G37*
G36*
X206693Y-43400D02*
X155512D01*
Y-37214D01*
X169694D01*
Y-33652D01*
X155512D01*
Y-27559D01*
X206693D01*
Y-43400D01*
D02*
G37*
G36*
X129921Y-20669D02*
X129921Y-24606D01*
X132874Y-27559D01*
X149606D01*
Y-33652D01*
X135424D01*
Y-37214D01*
X149606D01*
Y-43096D01*
X149252Y-43449D01*
X132874Y-43400D01*
X129921Y-46353D01*
X129921Y-76772D01*
X94488D01*
Y-20669D01*
X129921Y-20669D01*
D02*
G37*
G36*
X47244Y-20669D02*
Y-76772D01*
X7874D01*
Y-46260D01*
X4921Y-43387D01*
X-9843D01*
Y-31600D01*
X4921D01*
X7874Y-28543D01*
Y-20669D01*
X47244Y-20669D01*
D02*
G37*
%LPC*%
G36*
X102870Y86138D02*
X101091D01*
Y83768D01*
X102870D01*
Y86138D01*
D02*
G37*
G36*
X100091D02*
X98311D01*
Y83768D01*
X100091D01*
Y86138D01*
D02*
G37*
G36*
X86138D02*
X84358D01*
Y83768D01*
X86138D01*
Y86138D01*
D02*
G37*
G36*
X83358D02*
X81579D01*
Y83768D01*
X83358D01*
Y86138D01*
D02*
G37*
G36*
X69406D02*
X67626D01*
Y83768D01*
X69406D01*
Y86138D01*
D02*
G37*
G36*
X66626D02*
X64846D01*
Y83768D01*
X66626D01*
Y86138D01*
D02*
G37*
G36*
X142535Y85495D02*
X139279D01*
Y82436D01*
X142535D01*
Y85495D01*
D02*
G37*
G36*
X138279D02*
X135024D01*
Y82436D01*
X138279D01*
Y85495D01*
D02*
G37*
G36*
X123336Y85049D02*
X116821D01*
Y79321D01*
X123336D01*
Y81556D01*
X126560D01*
X126669Y81393D01*
X127258Y80999D01*
X127953Y80861D01*
X128648Y80999D01*
X129237Y81393D01*
X129630Y81982D01*
X129769Y82677D01*
X129630Y83372D01*
X129237Y83961D01*
X128648Y84355D01*
X127953Y84493D01*
X127258Y84355D01*
X126669Y83961D01*
X126560Y83799D01*
X123336D01*
Y85049D01*
D02*
G37*
G36*
X102870Y82768D02*
X101091D01*
Y80398D01*
X102870D01*
Y82768D01*
D02*
G37*
G36*
X100091D02*
X98311D01*
Y80398D01*
X100091D01*
Y82768D01*
D02*
G37*
G36*
X86138D02*
X84358D01*
Y80398D01*
X86138D01*
Y82768D01*
D02*
G37*
G36*
X83358D02*
X81579D01*
Y80398D01*
X83358D01*
Y82768D01*
D02*
G37*
G36*
X69406D02*
X67626D01*
Y80398D01*
X69406D01*
Y82768D01*
D02*
G37*
G36*
X66626D02*
X64846D01*
Y80398D01*
X66626D01*
Y82768D01*
D02*
G37*
G36*
X109950Y85738D02*
X106191D01*
Y82876D01*
X103177Y79862D01*
X96232D01*
X93218Y82876D01*
Y85738D01*
X89459D01*
Y82876D01*
X86445Y79862D01*
X79500D01*
X76486Y82876D01*
Y85738D01*
X72727D01*
Y80798D01*
X75392D01*
X78242Y77947D01*
X78242Y77947D01*
X78606Y77704D01*
X79035Y77619D01*
X79036Y77619D01*
X86909D01*
X86910Y77619D01*
X87339Y77704D01*
X87703Y77947D01*
X90553Y80798D01*
X92124D01*
X94975Y77947D01*
X94975Y77947D01*
X95338Y77704D01*
X95768Y77619D01*
X95768Y77619D01*
X103642D01*
X103642Y77619D01*
X104071Y77704D01*
X104435Y77947D01*
X107285Y80798D01*
X108856D01*
X115152Y74502D01*
X115152Y74502D01*
X115516Y74259D01*
X115945Y74174D01*
X116821D01*
Y72431D01*
X123336D01*
Y78159D01*
X116821D01*
Y76630D01*
X116321Y76505D01*
X109950Y82876D01*
Y85738D01*
D02*
G37*
G36*
X254843Y93167D02*
X194724D01*
X194100Y93043D01*
X193571Y92689D01*
X188096Y87214D01*
X187935Y87280D01*
X187008Y87402D01*
X186080Y87280D01*
X185216Y86922D01*
X184474Y86353D01*
X183905Y85611D01*
X183547Y84746D01*
X183424Y83819D01*
X183547Y82891D01*
X183905Y82027D01*
X184474Y81285D01*
X185216Y80716D01*
X186080Y80358D01*
X187008Y80235D01*
X187935Y80358D01*
X188800Y80716D01*
X189542Y81285D01*
X190111Y82027D01*
X190469Y82891D01*
X190591Y83819D01*
X190469Y84746D01*
X190403Y84907D01*
X195400Y89904D01*
X200869D01*
X201021Y89404D01*
X200979Y89376D01*
X200979Y89376D01*
X188605Y77003D01*
X187935Y77280D01*
X187008Y77402D01*
X186080Y77280D01*
X185216Y76922D01*
X184474Y76353D01*
X183905Y75611D01*
X183547Y74746D01*
X183424Y73819D01*
X183547Y72891D01*
X183824Y72221D01*
X180309Y68706D01*
X180066Y68343D01*
X179981Y67913D01*
X179981Y67913D01*
Y60039D01*
X179981Y60039D01*
X180066Y59610D01*
X180309Y59246D01*
X185231Y54325D01*
X185231Y54325D01*
X185594Y54082D01*
X186024Y53997D01*
X250829D01*
X261661Y43164D01*
X261674Y42719D01*
X261265Y42356D01*
X261204Y42368D01*
X260586Y42245D01*
X260062Y41895D01*
X259712Y41371D01*
X259589Y40753D01*
X259635Y40520D01*
X259210Y40095D01*
X258977Y40141D01*
X258359Y40018D01*
X257835Y39668D01*
X257485Y39144D01*
X257397Y38703D01*
X256939Y38284D01*
X256750Y38322D01*
X255976Y38168D01*
X255743Y38012D01*
X258078Y35678D01*
X260412Y33343D01*
X260568Y33576D01*
X260702Y34249D01*
X260992Y34403D01*
X261212Y34446D01*
X263970Y31688D01*
X263932Y31496D01*
X264070Y30801D01*
X264464Y30212D01*
X265053Y29818D01*
X265748Y29680D01*
X266443Y29818D01*
X267032Y30212D01*
X267426Y30801D01*
X267564Y31496D01*
X267426Y32191D01*
X267331Y32332D01*
X267720Y32651D01*
X283058Y17312D01*
X282812Y16852D01*
X282640Y16886D01*
X281866Y16732D01*
X281633Y16577D01*
X283968Y14242D01*
X283261Y13535D01*
X280926Y15869D01*
X280771Y15637D01*
X280617Y14863D01*
X280654Y14674D01*
X280236Y14216D01*
X279795Y14128D01*
X279271Y13778D01*
X278921Y13254D01*
X278833Y12813D01*
X278375Y12394D01*
X278186Y12432D01*
X277412Y12278D01*
X277179Y12122D01*
X279514Y9788D01*
X281848Y7453D01*
X282004Y7686D01*
X282158Y8460D01*
X282120Y8649D01*
X282133Y8669D01*
X282571Y8944D01*
X282777Y8806D01*
X283206Y8721D01*
X283206Y8721D01*
X285433D01*
X285433Y8721D01*
X285862Y8806D01*
X286226Y9049D01*
X288195Y11018D01*
X288438Y11382D01*
X288523Y11811D01*
X288523Y11811D01*
Y14555D01*
X288523Y14555D01*
X288438Y14985D01*
X288409Y15028D01*
X288431Y15141D01*
X288385Y15374D01*
X288810Y15799D01*
X289043Y15753D01*
X289661Y15876D01*
X290185Y16226D01*
X290535Y16750D01*
X290658Y17368D01*
X290612Y17601D01*
X291037Y18026D01*
X291270Y17980D01*
X291888Y18103D01*
X292412Y18453D01*
X292670Y18839D01*
X293170Y18687D01*
Y-1996D01*
X286711Y-8455D01*
X282176D01*
Y-14183D01*
X288690D01*
Y-9647D01*
X295084Y-3254D01*
X295084Y-3254D01*
X295113Y-3211D01*
X295613Y-3363D01*
Y-41778D01*
X265500Y-71890D01*
X265146Y-72420D01*
X265022Y-73044D01*
Y-74546D01*
X264614Y-74715D01*
X263769Y-75363D01*
X263121Y-76208D01*
X262713Y-77192D01*
X262574Y-78248D01*
Y-81201D01*
X262713Y-82257D01*
X263121Y-83241D01*
X263769Y-84086D01*
X264614Y-84734D01*
X265598Y-85141D01*
X266654Y-85281D01*
X267710Y-85141D01*
X268694Y-84734D01*
X269538Y-84086D01*
X270187Y-83241D01*
X270595Y-82257D01*
X270733Y-81201D01*
Y-78248D01*
X270595Y-77192D01*
X270187Y-76208D01*
X269538Y-75363D01*
X268694Y-74715D01*
X268285Y-74546D01*
Y-73720D01*
X298398Y-43607D01*
X298751Y-43078D01*
X298875Y-42454D01*
Y49134D01*
X298751Y49758D01*
X298398Y50287D01*
X274439Y74246D01*
X274722Y74670D01*
X275598Y74307D01*
X276654Y74168D01*
X277710Y74307D01*
X278694Y74715D01*
X279476Y75316D01*
X300060Y54732D01*
Y-54732D01*
X279476Y-75315D01*
X278694Y-74715D01*
X277710Y-74307D01*
X276654Y-74168D01*
X275598Y-74307D01*
X274614Y-74715D01*
X273769Y-75363D01*
X273120Y-76208D01*
X272713Y-77192D01*
X272574Y-78248D01*
Y-81201D01*
X272713Y-82257D01*
X273120Y-83241D01*
X273769Y-84086D01*
X274614Y-84734D01*
X275598Y-85141D01*
X276654Y-85281D01*
X277710Y-85141D01*
X278694Y-84734D01*
X279538Y-84086D01*
X280187Y-83241D01*
X280594Y-82257D01*
X280733Y-81201D01*
Y-78248D01*
X280615Y-77349D01*
X301528Y-56436D01*
X302028Y-56643D01*
Y-62764D01*
X289476Y-75315D01*
X288694Y-74715D01*
X287710Y-74307D01*
X286654Y-74168D01*
X285598Y-74307D01*
X284614Y-74715D01*
X283769Y-75363D01*
X283120Y-76208D01*
X282713Y-77192D01*
X282574Y-78248D01*
Y-81201D01*
X282713Y-82257D01*
X283120Y-83241D01*
X283769Y-84086D01*
X284614Y-84734D01*
X285598Y-85141D01*
X286654Y-85281D01*
X287710Y-85141D01*
X288694Y-84734D01*
X289539Y-84086D01*
X290187Y-83241D01*
X290595Y-82257D01*
X290734Y-81201D01*
Y-78248D01*
X290615Y-77349D01*
X303943Y-64021D01*
X303943Y-64021D01*
X304186Y-63658D01*
X304271Y-63228D01*
Y63228D01*
X304271Y63228D01*
X304186Y63658D01*
X303943Y64021D01*
X303943Y64021D01*
X290615Y77349D01*
X290733Y78248D01*
Y81201D01*
X290594Y82257D01*
X290187Y83241D01*
X289538Y84086D01*
X288693Y84734D01*
X287709Y85142D01*
X286654Y85281D01*
X285598Y85142D01*
X284614Y84734D01*
X283769Y84086D01*
X283120Y83241D01*
X282713Y82257D01*
X282574Y81201D01*
Y78248D01*
X282713Y77192D01*
X283120Y76208D01*
X283769Y75363D01*
X284614Y74715D01*
X285598Y74307D01*
X286654Y74168D01*
X287709Y74307D01*
X288693Y74715D01*
X289476Y75316D01*
X302028Y62764D01*
Y56643D01*
X301528Y56436D01*
X280615Y77349D01*
X280733Y78248D01*
Y81201D01*
X280594Y82257D01*
X280187Y83241D01*
X279538Y84086D01*
X278694Y84734D01*
X277710Y85142D01*
X276654Y85281D01*
X275598Y85142D01*
X274614Y84734D01*
X273769Y84086D01*
X273120Y83241D01*
X272713Y82257D01*
X272574Y81201D01*
Y78248D01*
X272713Y77192D01*
X273075Y76317D01*
X272652Y76034D01*
X270699Y77986D01*
X270733Y78248D01*
Y81201D01*
X270594Y82257D01*
X270187Y83241D01*
X269538Y84086D01*
X268693Y84734D01*
X267709Y85142D01*
X266654Y85281D01*
X265598Y85142D01*
X264614Y84734D01*
X264239Y84446D01*
X255996Y92689D01*
X255467Y93043D01*
X254843Y93167D01*
D02*
G37*
G36*
X168126Y75091D02*
X164870D01*
Y72031D01*
X168126D01*
Y75091D01*
D02*
G37*
G36*
X163870D02*
X160614D01*
Y72031D01*
X163870D01*
Y75091D01*
D02*
G37*
G36*
X54537Y80718D02*
X48613D01*
Y76762D01*
X53017D01*
X56622Y73158D01*
X57151Y72804D01*
X57776Y72680D01*
X68987D01*
Y71742D01*
X72746D01*
Y72680D01*
X85719D01*
Y71742D01*
X85967D01*
Y60711D01*
X85467Y60342D01*
X84355Y60488D01*
X82965Y60306D01*
X81670Y59769D01*
X80558Y58916D01*
X79705Y57803D01*
X79168Y56508D01*
X78985Y55118D01*
X79168Y53728D01*
X79705Y52433D01*
X80558Y51321D01*
X81670Y50467D01*
X82965Y49931D01*
X84355Y49748D01*
X85745Y49931D01*
X87041Y50467D01*
X88153Y51321D01*
X89006Y52433D01*
X89543Y53728D01*
X89726Y55118D01*
X89543Y56508D01*
X89230Y57264D01*
Y71742D01*
X89478D01*
Y72680D01*
X102451D01*
Y71742D01*
X106210D01*
Y76683D01*
X102451D01*
Y75942D01*
X89478D01*
Y76683D01*
X85719D01*
Y75942D01*
X72746D01*
Y76683D01*
X68987D01*
Y75942D01*
X58451D01*
X54537Y79857D01*
Y80718D01*
D02*
G37*
G36*
X163189Y64308D02*
X159252D01*
X158711Y64201D01*
X158252Y63894D01*
X157945Y63435D01*
X157837Y62894D01*
X157945Y62352D01*
X158010Y62256D01*
X157963Y61623D01*
X157568Y61032D01*
X157529Y60835D01*
X161221D01*
X164912D01*
X164873Y61032D01*
X164478Y61623D01*
X164431Y62256D01*
X164496Y62352D01*
X164604Y62894D01*
X164496Y63435D01*
X164189Y63894D01*
X163730Y64201D01*
X163189Y64308D01*
D02*
G37*
G36*
X142535Y81436D02*
X138779D01*
X135024D01*
Y78377D01*
X135424D01*
Y72478D01*
X137658D01*
Y62008D01*
X137658Y62008D01*
X137743Y61579D01*
X137987Y61215D01*
X139660Y59542D01*
X139660Y59542D01*
X140024Y59298D01*
X140175Y59268D01*
X140417Y58744D01*
X140416Y58728D01*
X140245Y58473D01*
X140206Y58276D01*
X143898D01*
X147589D01*
X147550Y58473D01*
X147389Y58713D01*
X147657Y59213D01*
X150871D01*
X150980Y59051D01*
X151569Y58657D01*
X152264Y58519D01*
X152959Y58657D01*
X153548Y59051D01*
X153942Y59640D01*
X154080Y60335D01*
X153942Y61030D01*
X153548Y61619D01*
X152959Y62012D01*
X152264Y62151D01*
X151569Y62012D01*
X150980Y61619D01*
X150871Y61456D01*
X147112D01*
X146980Y61691D01*
X146908Y61956D01*
X147173Y62352D01*
X147281Y62894D01*
X147173Y63435D01*
X146866Y63894D01*
X146788Y63946D01*
X146739Y64444D01*
X153352Y71057D01*
X153595Y71421D01*
X153681Y71850D01*
X153681Y71850D01*
Y72431D01*
X155816D01*
Y78159D01*
X149302D01*
Y72431D01*
X150847D01*
X151054Y71931D01*
X143431Y64308D01*
X141929D01*
X141388Y64201D01*
X140929Y63894D01*
X140622Y63435D01*
X140515Y62894D01*
X140532Y62806D01*
X140080Y62515D01*
X139901Y62644D01*
Y72478D01*
X142135D01*
Y78377D01*
X142535D01*
Y81436D01*
D02*
G37*
G36*
X164912Y59835D02*
X161221D01*
X157529D01*
X157568Y59637D01*
X157957Y59055D01*
X157568Y58473D01*
X157529Y58276D01*
X161221D01*
X164912D01*
X164873Y58473D01*
X164484Y59055D01*
X164873Y59637D01*
X164912Y59835D01*
D02*
G37*
G36*
X39970Y80718D02*
X34046D01*
Y76762D01*
X35886D01*
Y72545D01*
X35886Y72544D01*
X35972Y72115D01*
X36215Y71751D01*
X49948Y58018D01*
X49783Y57803D01*
X49247Y56508D01*
X49064Y55118D01*
X49247Y53728D01*
X49783Y52433D01*
X50637Y51321D01*
X51749Y50467D01*
X53044Y49931D01*
X54434Y49748D01*
X55824Y49931D01*
X57119Y50467D01*
X58232Y51321D01*
X59085Y52433D01*
X59622Y53728D01*
X59805Y55118D01*
X59622Y56508D01*
X59085Y57803D01*
X58232Y58916D01*
X57119Y59769D01*
X55824Y60306D01*
X54434Y60488D01*
X53044Y60306D01*
X51749Y59769D01*
X51534Y59604D01*
X38129Y73009D01*
Y76762D01*
X39970D01*
Y80718D01*
D02*
G37*
G36*
X114473Y61655D02*
X113198Y61529D01*
X111972Y61158D01*
X110842Y60553D01*
X109851Y59741D01*
X109038Y58750D01*
X108434Y57620D01*
X108062Y56393D01*
X107937Y55118D01*
X108062Y53843D01*
X108434Y52617D01*
X109038Y51486D01*
X109851Y50496D01*
X110842Y49683D01*
X111972Y49079D01*
X113198Y48707D01*
X114473Y48581D01*
X115749Y48707D01*
X116975Y49079D01*
X118105Y49683D01*
X119096Y50496D01*
X119909Y51486D01*
X120513Y52617D01*
X120885Y53843D01*
X121010Y55118D01*
X120885Y56393D01*
X120513Y57620D01*
X119909Y58750D01*
X119096Y59741D01*
X118105Y60553D01*
X116975Y61158D01*
X115749Y61529D01*
X114473Y61655D01*
D02*
G37*
G36*
X24316D02*
X23041Y61529D01*
X21814Y61158D01*
X20684Y60553D01*
X19694Y59741D01*
X18881Y58750D01*
X18277Y57620D01*
X17905Y56393D01*
X17779Y55118D01*
X17905Y53843D01*
X18277Y52617D01*
X18881Y51486D01*
X19694Y50496D01*
X20684Y49683D01*
X21814Y49079D01*
X23041Y48707D01*
X24316Y48581D01*
X25591Y48707D01*
X26818Y49079D01*
X27948Y49683D01*
X28938Y50496D01*
X29751Y51486D01*
X30356Y52617D01*
X30727Y53843D01*
X30853Y55118D01*
X30727Y56393D01*
X30356Y57620D01*
X29751Y58750D01*
X28938Y59741D01*
X27948Y60553D01*
X26818Y61158D01*
X25591Y61529D01*
X24316Y61655D01*
D02*
G37*
G36*
X196500Y19390D02*
Y13000D01*
X202890D01*
X202806Y13854D01*
X202411Y15155D01*
X201769Y16355D01*
X200907Y17407D01*
X199855Y18270D01*
X198655Y18911D01*
X197354Y19306D01*
X196500Y19390D01*
D02*
G37*
G36*
X195500Y19390D02*
X194646Y19306D01*
X193345Y18911D01*
X192145Y18270D01*
X191094Y17407D01*
X190231Y16355D01*
X189589Y15155D01*
X189194Y13854D01*
X189110Y13000D01*
X195500D01*
Y19390D01*
D02*
G37*
G36*
X239878Y14583D02*
X236720D01*
Y11819D01*
X239878D01*
Y14583D01*
D02*
G37*
G36*
X235720D02*
X232563D01*
Y11819D01*
X235720D01*
Y14583D01*
D02*
G37*
G36*
X239878Y10819D02*
X236720D01*
Y8055D01*
X239878D01*
Y10819D01*
D02*
G37*
G36*
X235720D02*
X232563D01*
Y8055D01*
X235720D01*
Y10819D01*
D02*
G37*
G36*
X276472Y11415D02*
X276317Y11183D01*
X276163Y10408D01*
X276200Y10220D01*
X275782Y9761D01*
X275341Y9674D01*
X274816Y9324D01*
X274466Y8800D01*
X274343Y8181D01*
X274390Y7948D01*
X273965Y7523D01*
X273732Y7570D01*
X273113Y7447D01*
X272589Y7096D01*
X272239Y6572D01*
X272116Y5954D01*
X272239Y5336D01*
X272589Y4812D01*
X274538Y2863D01*
X275062Y2513D01*
X275453Y2435D01*
Y-37921D01*
X255677Y-57697D01*
X220153D01*
X219875Y-57027D01*
X219305Y-56285D01*
X218563Y-55716D01*
X217699Y-55358D01*
X216772Y-55235D01*
X215844Y-55358D01*
X214980Y-55716D01*
X214238Y-56285D01*
X213668Y-57027D01*
X213310Y-57891D01*
X213188Y-58819D01*
X213310Y-59746D01*
X213668Y-60611D01*
X214238Y-61353D01*
X214980Y-61922D01*
X215844Y-62280D01*
X216411Y-62355D01*
X216378Y-62855D01*
X212394D01*
X209955Y-60417D01*
X210233Y-59746D01*
X210355Y-58819D01*
X210233Y-57891D01*
X209875Y-57027D01*
X209306Y-56285D01*
X208563Y-55716D01*
X207699Y-55358D01*
X206772Y-55235D01*
X205844Y-55358D01*
X204980Y-55716D01*
X204238Y-56285D01*
X203668Y-57027D01*
X203310Y-57891D01*
X203188Y-58819D01*
X203310Y-59746D01*
X203668Y-60611D01*
X204238Y-61353D01*
X204980Y-61922D01*
X205844Y-62280D01*
X206772Y-62402D01*
X207699Y-62280D01*
X208369Y-62003D01*
X211136Y-64769D01*
X211136Y-64769D01*
X211500Y-65013D01*
X211929Y-65098D01*
X211929Y-65098D01*
X253937D01*
X253937Y-65098D01*
X254366Y-65013D01*
X254730Y-64769D01*
X279336Y-40163D01*
X279336Y-40163D01*
X279579Y-39799D01*
X279665Y-39370D01*
X279665Y-39370D01*
Y5597D01*
X279665Y5597D01*
X279579Y6026D01*
X279571Y6039D01*
X279678Y6271D01*
X279946Y6474D01*
X280135Y6437D01*
X280909Y6591D01*
X281141Y6746D01*
X278807Y9081D01*
X276472Y11415D01*
D02*
G37*
G36*
X225009Y13553D02*
X217904D01*
Y6447D01*
X225009D01*
Y13553D01*
D02*
G37*
G36*
X195500Y12000D02*
X189110D01*
X189194Y11146D01*
X189589Y9845D01*
X190231Y8645D01*
X191094Y7593D01*
X192145Y6730D01*
X193345Y6089D01*
X194646Y5694D01*
X195500Y5610D01*
Y12000D01*
D02*
G37*
G36*
X202890D02*
X196500D01*
Y5610D01*
X197354Y5694D01*
X198655Y6089D01*
X199855Y6730D01*
X200907Y7593D01*
X201769Y8645D01*
X202411Y9845D01*
X202806Y11146D01*
X202890Y12000D01*
D02*
G37*
G36*
X221457Y3583D02*
X220529Y3461D01*
X219665Y3103D01*
X218923Y2534D01*
X218353Y1792D01*
X217995Y927D01*
X217873Y0D01*
X217995Y-927D01*
X218353Y-1792D01*
X218923Y-2534D01*
X219665Y-3103D01*
X220529Y-3461D01*
X221457Y-3583D01*
X222384Y-3461D01*
X223248Y-3103D01*
X223991Y-2534D01*
X224560Y-1792D01*
X224918Y-927D01*
X225040Y0D01*
X224918Y927D01*
X224560Y1792D01*
X223991Y2534D01*
X223248Y3103D01*
X222384Y3461D01*
X221457Y3583D01*
D02*
G37*
G36*
X221957Y-6079D02*
Y-9500D01*
X225378D01*
X225308Y-8968D01*
X224909Y-8007D01*
X224276Y-7181D01*
X223450Y-6547D01*
X222489Y-6149D01*
X221957Y-6079D01*
D02*
G37*
G36*
X220957D02*
X220425Y-6149D01*
X219463Y-6547D01*
X218638Y-7181D01*
X218004Y-8007D01*
X217606Y-8968D01*
X217536Y-9500D01*
X220957D01*
Y-6079D01*
D02*
G37*
G36*
X239878Y-8055D02*
X236721D01*
Y-10819D01*
X239878D01*
Y-8055D01*
D02*
G37*
G36*
X235721D02*
X232563D01*
Y-10819D01*
X235721D01*
Y-8055D01*
D02*
G37*
G36*
X196500Y-5610D02*
Y-12000D01*
X202890D01*
X202806Y-11146D01*
X202411Y-9845D01*
X201769Y-8645D01*
X200907Y-7593D01*
X199855Y-6730D01*
X198655Y-6089D01*
X197354Y-5694D01*
X196500Y-5610D01*
D02*
G37*
G36*
X195500Y-5610D02*
X194646Y-5694D01*
X193345Y-6089D01*
X192145Y-6730D01*
X191094Y-7593D01*
X190231Y-8645D01*
X189589Y-9845D01*
X189194Y-11146D01*
X189110Y-12000D01*
X195500D01*
Y-5610D01*
D02*
G37*
G36*
X220957Y-10500D02*
X217536D01*
X217606Y-11032D01*
X218004Y-11993D01*
X218638Y-12819D01*
X219463Y-13453D01*
X220425Y-13851D01*
X220957Y-13921D01*
Y-10500D01*
D02*
G37*
G36*
X225378D02*
X221957D01*
Y-13921D01*
X222489Y-13851D01*
X223450Y-13453D01*
X224276Y-12819D01*
X224909Y-11993D01*
X225308Y-11032D01*
X225378Y-10500D01*
D02*
G37*
G36*
X235721Y-11819D02*
X232563D01*
Y-14583D01*
X235721D01*
Y-11819D01*
D02*
G37*
G36*
X195500Y-13000D02*
X189110D01*
X189194Y-13854D01*
X189589Y-15155D01*
X190231Y-16355D01*
X191094Y-17406D01*
X192145Y-18270D01*
X193345Y-18911D01*
X194646Y-19306D01*
X195500Y-19390D01*
Y-13000D01*
D02*
G37*
G36*
X202890D02*
X196500D01*
Y-19390D01*
X197354Y-19306D01*
X198655Y-18911D01*
X199855Y-18270D01*
X200907Y-17406D01*
X201769Y-16355D01*
X202411Y-15155D01*
X202806Y-13854D01*
X202890Y-13000D01*
D02*
G37*
G36*
X288690Y-15345D02*
X282176D01*
Y-21072D01*
X284312D01*
Y-27353D01*
X282471D01*
Y-33277D01*
X288395D01*
Y-27353D01*
X286555D01*
Y-21072D01*
X288690D01*
Y-15345D01*
D02*
G37*
G36*
X259163D02*
X252648D01*
Y-21072D01*
X254784D01*
Y-27353D01*
X252943D01*
Y-33277D01*
X258868D01*
Y-27353D01*
X257027D01*
Y-21072D01*
X259163D01*
Y-15345D01*
D02*
G37*
G36*
X259268Y-35220D02*
X256405D01*
Y-38083D01*
X259268D01*
Y-35220D01*
D02*
G37*
G36*
X255405D02*
X252543D01*
Y-38083D01*
X255405D01*
Y-35220D01*
D02*
G37*
G36*
X288795Y-35221D02*
X285933D01*
Y-38083D01*
X288795D01*
Y-35221D01*
D02*
G37*
G36*
X284933D02*
X282071D01*
Y-38083D01*
X284933D01*
Y-35221D01*
D02*
G37*
G36*
X259268Y-39083D02*
X256405D01*
Y-41945D01*
X259268D01*
Y-39083D01*
D02*
G37*
G36*
X255405D02*
X252543D01*
Y-41945D01*
X255405D01*
Y-39083D01*
D02*
G37*
G36*
X288795Y-39083D02*
X285933D01*
Y-41945D01*
X288795D01*
Y-39083D01*
D02*
G37*
G36*
X284933D02*
X282071D01*
Y-41945D01*
X284933D01*
Y-39083D01*
D02*
G37*
G36*
X147589Y-58276D02*
X143898D01*
X140206D01*
X140245Y-58473D01*
X140634Y-59055D01*
X140245Y-59637D01*
X140206Y-59835D01*
X143898D01*
X147589D01*
X147550Y-59637D01*
X147161Y-59055D01*
X147550Y-58473D01*
X147589Y-58276D01*
D02*
G37*
G36*
X196772Y-55235D02*
X195844Y-55358D01*
X194980Y-55716D01*
X194238Y-56285D01*
X193668Y-57027D01*
X193310Y-57891D01*
X193188Y-58819D01*
X193310Y-59746D01*
X193668Y-60611D01*
X194238Y-61353D01*
X194980Y-61922D01*
X195844Y-62280D01*
X196772Y-62402D01*
X197699Y-62280D01*
X198563Y-61922D01*
X199305Y-61353D01*
X199875Y-60611D01*
X200233Y-59746D01*
X200355Y-58819D01*
X200233Y-57891D01*
X199875Y-57027D01*
X199305Y-56285D01*
X198563Y-55716D01*
X197699Y-55358D01*
X196772Y-55235D01*
D02*
G37*
G36*
X186772D02*
X185844Y-55358D01*
X184980Y-55716D01*
X184238Y-56285D01*
X183668Y-57027D01*
X183310Y-57891D01*
X183188Y-58819D01*
X183310Y-59746D01*
X183668Y-60611D01*
X184238Y-61353D01*
X184980Y-61922D01*
X185844Y-62280D01*
X186772Y-62402D01*
X187699Y-62280D01*
X188563Y-61922D01*
X189305Y-61353D01*
X189875Y-60611D01*
X190233Y-59746D01*
X190355Y-58819D01*
X190233Y-57891D01*
X189875Y-57027D01*
X189305Y-56285D01*
X188563Y-55716D01*
X187699Y-55358D01*
X186772Y-55235D01*
D02*
G37*
G36*
X147589Y-60835D02*
X143898D01*
X140206D01*
X140245Y-61032D01*
X140640Y-61623D01*
X140687Y-62256D01*
X140622Y-62352D01*
X140515Y-62894D01*
X140622Y-63435D01*
X140929Y-63894D01*
X141388Y-64201D01*
X141929Y-64308D01*
X145866D01*
X146407Y-64201D01*
X146866Y-63894D01*
X147173Y-63435D01*
X147281Y-62894D01*
X147173Y-62352D01*
X147108Y-62256D01*
X147155Y-61623D01*
X147550Y-61032D01*
X147589Y-60835D01*
D02*
G37*
G36*
X168126Y-72031D02*
X164870D01*
Y-75090D01*
X168126D01*
Y-72031D01*
D02*
G37*
G36*
X163870D02*
X160614D01*
Y-75090D01*
X163870D01*
Y-72031D01*
D02*
G37*
G36*
X153543Y-58223D02*
X152848Y-58362D01*
X152259Y-58755D01*
X151866Y-59344D01*
X151727Y-60039D01*
X151766Y-60231D01*
X139955Y-72042D01*
X139712Y-72405D01*
X139707Y-72431D01*
X137392D01*
Y-78331D01*
X136992D01*
Y-81390D01*
X140748D01*
X144504D01*
Y-78331D01*
X144104D01*
Y-72431D01*
X143391D01*
X143199Y-71970D01*
X153352Y-61817D01*
X153543Y-61855D01*
X154238Y-61717D01*
X154629Y-61456D01*
X158006D01*
X158138Y-61691D01*
X158210Y-61956D01*
X157945Y-62352D01*
X157837Y-62894D01*
X157945Y-63435D01*
X158252Y-63894D01*
X158330Y-63946D01*
X158379Y-64444D01*
X151766Y-71057D01*
X151523Y-71421D01*
X151437Y-71851D01*
X151437Y-71851D01*
Y-72431D01*
X149302D01*
Y-78159D01*
X155816D01*
Y-72431D01*
X154271D01*
X154064Y-71931D01*
X161688Y-64308D01*
X163189D01*
X163730Y-64201D01*
X164189Y-63894D01*
X164496Y-63435D01*
X164603Y-62894D01*
X164496Y-62352D01*
X164209Y-61923D01*
X164145Y-61780D01*
Y-61448D01*
X164209Y-61305D01*
X164496Y-60876D01*
X164603Y-60335D01*
X164496Y-59793D01*
X164431Y-59697D01*
X164478Y-59064D01*
X164873Y-58473D01*
X164912Y-58276D01*
X161221D01*
X157529D01*
X157568Y-58473D01*
X157729Y-58713D01*
X157462Y-59213D01*
X155133D01*
X154827Y-58755D01*
X154238Y-58362D01*
X153543Y-58223D01*
D02*
G37*
G36*
X257154Y-73831D02*
Y-79224D01*
X261137D01*
Y-78248D01*
X260984Y-77088D01*
X260536Y-76006D01*
X259824Y-75078D01*
X258895Y-74365D01*
X257814Y-73918D01*
X257154Y-73831D01*
D02*
G37*
G36*
X256154Y-73831D02*
X255493Y-73918D01*
X254412Y-74365D01*
X253484Y-75078D01*
X252771Y-76006D01*
X252323Y-77088D01*
X252170Y-78248D01*
Y-79224D01*
X256154D01*
Y-73831D01*
D02*
G37*
G36*
X144504Y-82390D02*
X141248D01*
Y-85449D01*
X144504D01*
Y-82390D01*
D02*
G37*
G36*
X140248D02*
X136992D01*
Y-85449D01*
X140248D01*
Y-82390D01*
D02*
G37*
G36*
X261137Y-80224D02*
X257154D01*
Y-85618D01*
X257814Y-85531D01*
X258895Y-85083D01*
X259824Y-84371D01*
X260536Y-83442D01*
X260984Y-82361D01*
X261137Y-81201D01*
Y-80224D01*
D02*
G37*
G36*
X256154D02*
X252170D01*
Y-81201D01*
X252323Y-82361D01*
X252771Y-83442D01*
X253484Y-84371D01*
X254412Y-85083D01*
X255493Y-85531D01*
X256154Y-85618D01*
Y-80224D01*
D02*
G37*
G36*
X217272Y-84898D02*
Y-88319D01*
X220693D01*
X220623Y-87787D01*
X220224Y-86826D01*
X219591Y-86000D01*
X218765Y-85366D01*
X217804Y-84968D01*
X217272Y-84898D01*
D02*
G37*
G36*
X207272D02*
Y-88319D01*
X210693D01*
X210623Y-87787D01*
X210224Y-86826D01*
X209591Y-86000D01*
X208765Y-85366D01*
X207804Y-84968D01*
X207272Y-84898D01*
D02*
G37*
G36*
X197272D02*
Y-88319D01*
X200693D01*
X200623Y-87787D01*
X200224Y-86826D01*
X199591Y-86000D01*
X198765Y-85366D01*
X197803Y-84968D01*
X197272Y-84898D01*
D02*
G37*
G36*
X190724Y-84866D02*
X187272D01*
Y-88319D01*
X190724D01*
Y-84866D01*
D02*
G37*
G36*
X216272Y-84898D02*
X215740Y-84968D01*
X214778Y-85366D01*
X213952Y-86000D01*
X213319Y-86826D01*
X212921Y-87787D01*
X212851Y-88319D01*
X216272D01*
Y-84898D01*
D02*
G37*
G36*
X206272D02*
X205740Y-84968D01*
X204778Y-85366D01*
X203953Y-86000D01*
X203319Y-86826D01*
X202921Y-87787D01*
X202851Y-88319D01*
X206272D01*
Y-84898D01*
D02*
G37*
G36*
X196272D02*
X195740Y-84968D01*
X194778Y-85366D01*
X193953Y-86000D01*
X193319Y-86826D01*
X192921Y-87787D01*
X192851Y-88319D01*
X196272D01*
Y-84898D01*
D02*
G37*
G36*
X186272Y-84866D02*
X182819D01*
Y-88319D01*
X186272D01*
Y-84866D01*
D02*
G37*
G36*
X216272Y-89319D02*
X212851D01*
X212921Y-89851D01*
X213319Y-90812D01*
X213952Y-91638D01*
X214778Y-92272D01*
X215740Y-92670D01*
X216272Y-92740D01*
Y-89319D01*
D02*
G37*
G36*
X206272D02*
X202851D01*
X202921Y-89851D01*
X203319Y-90812D01*
X203953Y-91638D01*
X204778Y-92272D01*
X205740Y-92670D01*
X206272Y-92740D01*
Y-89319D01*
D02*
G37*
G36*
X196272D02*
X192851D01*
X192921Y-89851D01*
X193319Y-90812D01*
X193953Y-91638D01*
X194778Y-92272D01*
X195740Y-92670D01*
X196272Y-92740D01*
Y-89319D01*
D02*
G37*
G36*
X200693D02*
X197272D01*
Y-92740D01*
X197803Y-92670D01*
X198765Y-92272D01*
X199591Y-91638D01*
X200224Y-90812D01*
X200623Y-89851D01*
X200693Y-89319D01*
D02*
G37*
G36*
X220693D02*
X217272D01*
Y-92740D01*
X217804Y-92670D01*
X218765Y-92272D01*
X219591Y-91638D01*
X220224Y-90812D01*
X220623Y-89851D01*
X220693Y-89319D01*
D02*
G37*
G36*
X210693D02*
X207272D01*
Y-92740D01*
X207804Y-92670D01*
X208765Y-92272D01*
X209591Y-91638D01*
X210224Y-90812D01*
X210623Y-89851D01*
X210693Y-89319D01*
D02*
G37*
G36*
X190724D02*
X187272D01*
Y-92772D01*
X190724D01*
Y-89319D01*
D02*
G37*
G36*
X186272D02*
X182819D01*
Y-92772D01*
X186272D01*
Y-89319D01*
D02*
G37*
%LPD*%
G36*
X214838Y86961D02*
X214744Y86922D01*
X214002Y86353D01*
X213432Y85611D01*
X213074Y84746D01*
X212952Y83819D01*
X213074Y82891D01*
X213432Y82027D01*
X214002Y81285D01*
X214744Y80716D01*
X215608Y80358D01*
X215544Y79862D01*
X211457D01*
X211028Y79776D01*
X210664Y79533D01*
X210664Y79533D01*
X208133Y77003D01*
X207463Y77280D01*
X206535Y77402D01*
X205608Y77280D01*
X204744Y76922D01*
X204002Y76353D01*
X203432Y75611D01*
X203074Y74746D01*
X202952Y73819D01*
X203074Y72891D01*
X203432Y72027D01*
X204002Y71285D01*
X204744Y70716D01*
X205608Y70358D01*
X206535Y70236D01*
X207463Y70358D01*
X208327Y70716D01*
X209069Y71285D01*
X209639Y72027D01*
X209997Y72891D01*
X210119Y73819D01*
X209997Y74746D01*
X209719Y75416D01*
X211921Y77619D01*
X215118D01*
X215218Y77119D01*
X214744Y76922D01*
X214002Y76353D01*
X213432Y75611D01*
X213074Y74746D01*
X212952Y73819D01*
X213074Y72891D01*
X213352Y72221D01*
X210821Y69691D01*
X210578Y69327D01*
X210493Y68898D01*
X210493Y68898D01*
Y64810D01*
X209997Y64746D01*
X209639Y65611D01*
X209069Y66353D01*
X208327Y66922D01*
X207463Y67280D01*
X206535Y67402D01*
X205608Y67280D01*
X204744Y66922D01*
X204002Y66353D01*
X203432Y65611D01*
X203366Y65450D01*
X190561D01*
Y67372D01*
X183455D01*
Y60266D01*
X190561D01*
Y62187D01*
X203366D01*
X203432Y62027D01*
X204002Y61285D01*
X204744Y60716D01*
X205608Y60358D01*
X206535Y60236D01*
X207463Y60358D01*
X208327Y60716D01*
X209069Y61285D01*
X209639Y62027D01*
X209997Y62891D01*
X210493Y62827D01*
Y60039D01*
X210493Y60039D01*
X210578Y59610D01*
X210821Y59246D01*
X213328Y56740D01*
X213121Y56240D01*
X186488D01*
X182224Y60504D01*
Y67449D01*
X185410Y70635D01*
X186080Y70358D01*
X187008Y70236D01*
X187935Y70358D01*
X188800Y70716D01*
X189542Y71285D01*
X190111Y72027D01*
X190469Y72891D01*
X190591Y73819D01*
X190469Y74746D01*
X190192Y75416D01*
X202236Y87461D01*
X203968D01*
X204137Y86961D01*
X203716Y86638D01*
X203083Y85812D01*
X202684Y84851D01*
X202614Y84319D01*
X206535D01*
X210456D01*
X210386Y84851D01*
X209988Y85812D01*
X209355Y86638D01*
X208933Y86961D01*
X209103Y87461D01*
X214738D01*
X214838Y86961D01*
D02*
G37*
G36*
X221319Y75323D02*
Y62992D01*
X221319Y62992D01*
X221405Y62563D01*
X221648Y62199D01*
X223170Y60677D01*
X222963Y60177D01*
X221764D01*
X220088Y61852D01*
Y67372D01*
X212983D01*
X212736Y67769D01*
Y68433D01*
X214938Y70635D01*
X215608Y70358D01*
X216535Y70236D01*
X217463Y70358D01*
X218327Y70716D01*
X219069Y71285D01*
X219639Y72027D01*
X219997Y72891D01*
X220119Y73819D01*
X219997Y74746D01*
X219639Y75611D01*
X219069Y76353D01*
X218327Y76922D01*
X217853Y77119D01*
X217952Y77619D01*
X219024D01*
X221319Y75323D01*
D02*
G37*
G36*
X258129Y85942D02*
X257846Y85518D01*
X257814Y85531D01*
X257154Y85618D01*
Y80224D01*
X261137D01*
Y81201D01*
X260984Y82361D01*
X260971Y82393D01*
X261395Y82676D01*
X262608Y81463D01*
X262574Y81201D01*
Y78248D01*
X262713Y77192D01*
X263120Y76208D01*
X263769Y75363D01*
X264614Y74715D01*
X265598Y74307D01*
X266654Y74168D01*
X267709Y74307D01*
X268693Y74715D01*
X269068Y75002D01*
X295613Y48458D01*
Y25550D01*
X295113Y25398D01*
X295084Y25440D01*
X295084Y25440D01*
X292231Y28294D01*
X292412Y28475D01*
X292762Y28999D01*
X292885Y29617D01*
X292762Y30235D01*
X292412Y30760D01*
X291888Y31110D01*
X291270Y31233D01*
X291037Y31186D01*
X290612Y31611D01*
X290658Y31844D01*
X290535Y32462D01*
X290185Y32987D01*
X289661Y33337D01*
X289043Y33460D01*
X288810Y33413D01*
X288385Y33839D01*
X288431Y34071D01*
X288308Y34690D01*
X287958Y35214D01*
X287434Y35564D01*
X286816Y35687D01*
X286583Y35640D01*
X286158Y36066D01*
X286204Y36299D01*
X286081Y36917D01*
X285731Y37441D01*
X285207Y37791D01*
X284589Y37914D01*
X284356Y37868D01*
X283931Y38293D01*
X283977Y38526D01*
X283854Y39144D01*
X283504Y39668D01*
X282980Y40018D01*
X282362Y40141D01*
X282129Y40095D01*
X281703Y40520D01*
X281750Y40753D01*
X281627Y41371D01*
X281277Y41895D01*
X280753Y42245D01*
X280135Y42368D01*
X279902Y42322D01*
X279476Y42747D01*
X279523Y42980D01*
X279504Y43074D01*
X279579Y43187D01*
X279665Y43616D01*
X279665Y43616D01*
Y46260D01*
X279665Y46260D01*
X279579Y46689D01*
X279336Y47053D01*
X279336Y47053D01*
X264573Y61817D01*
X264209Y62060D01*
X263779Y62145D01*
X263779Y62145D01*
X224874D01*
X223563Y63457D01*
Y75787D01*
X223563Y75787D01*
X223477Y76217D01*
X223234Y76581D01*
X223234Y76581D01*
X220281Y79533D01*
X219917Y79776D01*
X219488Y79862D01*
X219488Y79862D01*
X217527D01*
X217463Y80358D01*
X218327Y80716D01*
X219069Y81285D01*
X219639Y82027D01*
X219997Y82891D01*
X220119Y83819D01*
X219997Y84746D01*
X219639Y85611D01*
X219069Y86353D01*
X218327Y86922D01*
X218233Y86961D01*
X218333Y87461D01*
X220992D01*
X225256Y83197D01*
Y73326D01*
X225256Y73326D01*
X225342Y72897D01*
X225585Y72533D01*
X229912Y68207D01*
Y63671D01*
X235639D01*
Y70187D01*
X231104D01*
X227500Y73791D01*
Y83661D01*
X227414Y84091D01*
X227171Y84455D01*
X227171Y84455D01*
X222250Y89376D01*
X222207Y89404D01*
X222359Y89904D01*
X254167D01*
X258129Y85942D01*
D02*
G37*
G36*
X275936Y47281D02*
X275689Y46821D01*
X275680Y46822D01*
X275062Y46699D01*
X274538Y46349D01*
X274357Y46168D01*
X261122Y59402D01*
X261330Y59902D01*
X263315D01*
X275936Y47281D01*
D02*
G37*
G36*
X272771Y44582D02*
X272589Y44401D01*
X272239Y43876D01*
X272116Y43258D01*
X272239Y42640D01*
X272589Y42116D01*
X273113Y41766D01*
X273732Y41643D01*
X273965Y41689D01*
X274390Y41264D01*
X274343Y41031D01*
X274466Y40413D01*
X274816Y39889D01*
X275341Y39539D01*
X275959Y39416D01*
X276020Y39428D01*
X276429Y39065D01*
X276416Y38620D01*
X275334Y37539D01*
X272062D01*
X271953Y37701D01*
X271364Y38095D01*
X270669Y38233D01*
X269974Y38095D01*
X269385Y37701D01*
X268991Y37112D01*
X268853Y36417D01*
X268991Y35722D01*
X269385Y35133D01*
X269974Y34740D01*
X270669Y34601D01*
X271364Y34740D01*
X271953Y35133D01*
X272062Y35296D01*
X275799D01*
X275799Y35296D01*
X276228Y35381D01*
X276592Y35624D01*
X278002Y37034D01*
X278447Y37047D01*
X278810Y36638D01*
X278798Y36577D01*
X278921Y35959D01*
X279271Y35435D01*
X279795Y35085D01*
X280413Y34962D01*
X280646Y35008D01*
X281071Y34583D01*
X281025Y34350D01*
X281148Y33732D01*
X281498Y33208D01*
X282022Y32858D01*
X282640Y32735D01*
X282701Y32747D01*
X283110Y32384D01*
X283097Y31939D01*
X280530Y29372D01*
X280512Y29375D01*
X279817Y29237D01*
X279228Y28843D01*
X278834Y28254D01*
X278696Y27559D01*
X278834Y26864D01*
X279228Y26275D01*
X279817Y25881D01*
X280512Y25743D01*
X281207Y25881D01*
X281496Y26074D01*
X281856Y25714D01*
X281787Y25610D01*
X281649Y24915D01*
X281787Y24220D01*
X282181Y23631D01*
X282770Y23237D01*
X283465Y23099D01*
X284159Y23237D01*
X284749Y23631D01*
X285142Y24220D01*
X285281Y24915D01*
X285142Y25610D01*
X284843Y26058D01*
X287070Y28285D01*
X287094Y28280D01*
X287327Y28327D01*
X287752Y27902D01*
X287706Y27669D01*
X287829Y27050D01*
X288179Y26526D01*
X288703Y26176D01*
X289321Y26053D01*
X289939Y26176D01*
X290463Y26526D01*
X290645Y26708D01*
X293170Y24183D01*
Y20504D01*
X292670Y20352D01*
X292412Y20738D01*
X290463Y22686D01*
X289939Y23036D01*
X289321Y23159D01*
X288703Y23036D01*
X288179Y22686D01*
X287829Y22162D01*
X287706Y21544D01*
X287752Y21311D01*
X287327Y20886D01*
X287094Y20932D01*
X286476Y20809D01*
X285952Y20459D01*
X285602Y19935D01*
X285479Y19317D01*
X285491Y19256D01*
X285128Y18847D01*
X284683Y18860D01*
X266870Y36674D01*
Y40409D01*
X266872Y40413D01*
X266995Y41031D01*
X266949Y41264D01*
X267374Y41689D01*
X267607Y41643D01*
X268225Y41766D01*
X268749Y42116D01*
X269099Y42640D01*
X269222Y43258D01*
X269099Y43876D01*
X268749Y44401D01*
X266800Y46349D01*
X266277Y46699D01*
X265658Y46822D01*
X265634Y46817D01*
X255018Y57434D01*
X255225Y57934D01*
X259419D01*
X272771Y44582D01*
D02*
G37*
%LPC*%
G36*
X210456Y83319D02*
X207035D01*
Y79898D01*
X207567Y79968D01*
X208529Y80366D01*
X209355Y81000D01*
X209988Y81826D01*
X210386Y82787D01*
X210456Y83319D01*
D02*
G37*
G36*
X206035D02*
X202614D01*
X202684Y82787D01*
X203083Y81826D01*
X203716Y81000D01*
X204542Y80366D01*
X205504Y79968D01*
X206035Y79898D01*
Y83319D01*
D02*
G37*
G36*
X243618Y88697D02*
X241248D01*
Y86917D01*
X243618D01*
Y88697D01*
D02*
G37*
G36*
X240248D02*
X237878D01*
Y86917D01*
X240248D01*
Y88697D01*
D02*
G37*
G36*
X243618Y85917D02*
X241248D01*
Y84138D01*
X243618D01*
Y85917D01*
D02*
G37*
G36*
X240248D02*
X237878D01*
Y84138D01*
X240248D01*
Y85917D01*
D02*
G37*
G36*
X234163Y84557D02*
X229223D01*
Y80798D01*
X234163D01*
Y84557D01*
D02*
G37*
G36*
X256154Y85618D02*
X255493Y85531D01*
X254412Y85083D01*
X253484Y84371D01*
X252771Y83442D01*
X252323Y82361D01*
X252170Y81201D01*
Y80224D01*
X256154D01*
Y85618D01*
D02*
G37*
G36*
X261137Y79224D02*
X257154D01*
Y73831D01*
X257814Y73918D01*
X258895Y74366D01*
X259824Y75078D01*
X260536Y76006D01*
X260984Y77088D01*
X261137Y78248D01*
Y79224D01*
D02*
G37*
G36*
X256154D02*
X252170D01*
Y78248D01*
X252323Y77088D01*
X252771Y76006D01*
X253484Y75078D01*
X254412Y74366D01*
X255493Y73918D01*
X256154Y73831D01*
Y79224D01*
D02*
G37*
G36*
X243218Y80817D02*
X238278D01*
Y77057D01*
X239626D01*
Y70187D01*
X236802D01*
Y63671D01*
X242529D01*
Y65807D01*
X244670D01*
X244779Y65645D01*
X245368Y65251D01*
X246063Y65113D01*
X246758Y65251D01*
X247347Y65645D01*
X247741Y66234D01*
X247879Y66929D01*
X247741Y67624D01*
X247347Y68213D01*
X246758Y68607D01*
X246063Y68745D01*
X245368Y68607D01*
X244779Y68213D01*
X244670Y68050D01*
X242529D01*
Y70187D01*
X241869D01*
Y77057D01*
X243218D01*
Y80817D01*
D02*
G37*
%LPD*%
G36*
X255887Y-60440D02*
X253472Y-62855D01*
X217165D01*
X217132Y-62355D01*
X217699Y-62280D01*
X218563Y-61922D01*
X219305Y-61353D01*
X219875Y-60611D01*
X220153Y-59940D01*
X255680D01*
X255887Y-60440D01*
D02*
G37*
D13*
X37008Y72544D02*
X54434Y55118D01*
X37008Y72544D02*
Y78740D01*
X140453Y60335D02*
X152264D01*
X161221Y-60039D02*
X161516Y-60335D01*
X153248D02*
X161516D01*
X121555Y82677D02*
X127953D01*
X120571Y81693D02*
X121555Y82677D01*
X120079Y82185D02*
X120571Y81693D01*
X278543Y-39370D02*
Y5597D01*
X253937Y-63976D02*
X278543Y-39370D01*
X211929Y-63976D02*
X253937D01*
X143898Y-55216D02*
X145571D01*
X140748Y-72835D02*
X153248Y-60335D01*
X140748Y-75591D02*
Y-72835D01*
X262178Y9434D02*
X262387D01*
X270669Y17717D01*
X264405Y7207D02*
X270669Y13471D01*
X221457Y88583D02*
X226378Y83661D01*
X201772Y88583D02*
X221457D01*
X187008Y73819D02*
X201772Y88583D01*
X276575Y-38386D02*
Y3111D01*
X256142Y-58819D02*
X276575Y-38386D01*
X216772Y-58819D02*
X256142D01*
X274706Y4980D02*
X276575Y3111D01*
X283465Y24915D02*
Y26266D01*
X288069Y30870D01*
X281387Y11661D02*
X283206Y9843D01*
X285433D01*
X287402Y11811D01*
Y14555D01*
X285841Y16116D02*
X287402Y14555D01*
X265748Y36209D02*
Y40663D01*
X280512Y27768D02*
X285841Y33097D01*
X280512Y27559D02*
Y27768D01*
X255497Y16116D02*
X263988Y24606D01*
X269426Y25591D02*
Y27559D01*
X270669Y36417D02*
X275799D01*
X279160Y39779D01*
X257724Y13888D02*
X269426Y25591D01*
X206772Y-58819D02*
X211929Y-63976D01*
X276933Y7207D02*
X278543Y5597D01*
X255906Y-11319D02*
Y-5747D01*
X266633Y4980D01*
X263779Y24606D02*
X263988D01*
X264405Y42006D02*
X265748Y40663D01*
Y36209D02*
X285841Y16116D01*
X246063Y-44291D02*
Y11136D01*
X237205Y-53150D02*
X246063Y-44291D01*
X177165Y-53150D02*
X237205D01*
X259951Y37293D02*
X265748Y31496D01*
X259951Y37293D02*
Y37551D01*
X246063Y66929D02*
X246063Y66929D01*
X239665Y66929D02*
X246063D01*
X285433Y-11319D02*
X294291Y-2461D01*
X290296Y28643D02*
X294291Y24647D01*
Y-2461D02*
Y24647D01*
X115945Y75295D02*
X120079D01*
X108071Y83169D02*
X115945Y75295D01*
X172244Y-58071D02*
X177165Y-53150D01*
X172244Y-78740D02*
Y-58071D01*
X181102Y67913D02*
X187008Y73819D01*
X181102Y60039D02*
Y67913D01*
Y60039D02*
X186024Y55118D01*
X251293D01*
X264405Y42006D01*
X196000Y-37500D02*
X196945Y-36555D01*
X142717Y-35433D02*
X149606D01*
X151575Y-37402D01*
Y-49213D02*
Y-37402D01*
X145571Y-55216D02*
X151575Y-49213D01*
X142157Y-36000D02*
X142717D01*
X155512Y-35433D02*
X162402D01*
X153543Y-37402D02*
X155512Y-35433D01*
X153543Y-49213D02*
X159547Y-55216D01*
X160447D01*
X161516D01*
X153543Y-49213D02*
Y-37402D01*
X155610Y35433D02*
X162402D01*
X153543Y37500D02*
X155610Y35433D01*
X153543Y49213D02*
X159547Y55216D01*
X161516D01*
X153543Y37500D02*
Y49213D01*
X143602Y55216D02*
X145571D01*
X151575Y49213D01*
X149606Y35433D02*
X151575Y37402D01*
X142717Y35433D02*
X149606D01*
X151575Y37402D02*
Y49213D01*
X74606Y83169D02*
X79035Y78740D01*
X86910D01*
X91339Y83169D01*
X95768Y78740D01*
X103642D01*
X108071Y83169D01*
X236220Y18209D02*
Y31004D01*
X236221Y-31004D02*
Y-18209D01*
X236221Y-18209D01*
X138779Y62008D02*
X140453Y60335D01*
X143602Y62894D02*
X152559Y71850D01*
Y75295D01*
Y82185D02*
X164075D01*
X164370Y81890D01*
X152559Y-75295D02*
Y-71851D01*
X161516Y-62894D01*
X164370Y81890D02*
X167126D01*
X196000Y37500D02*
X235827D01*
X236220Y37894D01*
X196000Y-37500D02*
X235827D01*
X236221Y-37894D01*
X152559Y-82185D02*
X162106D01*
X162402Y-81890D01*
X236220Y31004D02*
X248682D01*
X251043Y28643D01*
X236221Y-18209D02*
X237697D01*
X169095Y-81890D02*
X172244Y-78740D01*
X164370Y-81890D02*
X169095D01*
X246063Y11136D02*
X253270Y18343D01*
X237697Y-18209D02*
X243110Y-12795D01*
Y12637D01*
X251043Y20570D01*
X232959Y51181D02*
X253270Y30870D01*
X240748Y68012D02*
Y78937D01*
X239665Y66929D02*
X240748Y68012D01*
X276933Y42006D02*
X278543Y43616D01*
Y46260D01*
X206535Y73819D02*
X211457Y78740D01*
X211614Y68898D02*
X216535Y73819D01*
X211614Y60039D02*
Y68898D01*
Y60039D02*
X214567Y57087D01*
X253779D01*
X266633Y44233D01*
X216535Y63819D02*
X221299Y59055D01*
X259883D01*
X274706Y44233D01*
X263779Y61024D02*
X278543Y46260D01*
X224410Y61024D02*
X263779D01*
X222441Y62992D02*
X224410Y61024D01*
X211457Y78740D02*
X219488D01*
X222441Y75787D01*
Y62992D02*
Y75787D01*
X265748Y17458D02*
Y17717D01*
X259951Y11661D02*
X265748Y17458D01*
X286654Y79724D02*
X303150Y63228D01*
Y-63228D02*
Y63228D01*
X286654Y-79724D02*
X303150Y-63228D01*
X276654Y79724D02*
X301181Y55197D01*
X184055Y51181D02*
X232959D01*
X170276Y64961D02*
X184055Y51181D01*
X170276Y64961D02*
Y78740D01*
X167126Y81890D02*
X170276Y78740D01*
X255905Y-30315D02*
Y-18209D01*
X255906Y-18209D01*
X226378Y73326D02*
X232775Y66929D01*
X226378Y73326D02*
Y83661D01*
X285433Y-30315D02*
Y-18209D01*
X285433Y-30315D02*
X285433Y-30315D01*
X138779Y62008D02*
Y75637D01*
X276654Y-79724D02*
X301181Y-55197D01*
Y55197D01*
D39*
X37008Y78740D02*
D03*
X51575D02*
D03*
D40*
X91339Y83268D02*
D03*
X83858D02*
D03*
X87598Y74213D02*
D03*
X108071Y83268D02*
D03*
X100591D02*
D03*
X104331Y74213D02*
D03*
X74606Y83268D02*
D03*
X67126D02*
D03*
X70866Y74213D02*
D03*
D41*
X161221Y-62894D02*
D03*
Y-60335D02*
D03*
Y-57776D02*
D03*
Y-55216D02*
D03*
X143898Y-62894D02*
D03*
Y-60335D02*
D03*
Y-57776D02*
D03*
Y-55216D02*
D03*
X143898Y62894D02*
D03*
Y60335D02*
D03*
Y57776D02*
D03*
Y55216D02*
D03*
X161221Y62894D02*
D03*
Y60335D02*
D03*
Y57776D02*
D03*
Y55216D02*
D03*
D42*
X120079Y75295D02*
D03*
Y82185D02*
D03*
X152559Y75295D02*
D03*
Y82185D02*
D03*
X236220Y37894D02*
D03*
Y31004D02*
D03*
Y18209D02*
D03*
Y11319D02*
D03*
X236221Y-18209D02*
D03*
Y-11319D02*
D03*
X236221Y-37894D02*
D03*
Y-31004D02*
D03*
X255906Y-11319D02*
D03*
Y-18209D02*
D03*
X285433Y-11319D02*
D03*
Y-18209D02*
D03*
X152559Y-75295D02*
D03*
Y-82185D02*
D03*
D43*
X231693Y82677D02*
D03*
X240748Y86417D02*
D03*
Y78937D02*
D03*
D44*
X232775Y66929D02*
D03*
X239665D02*
D03*
D45*
X274706Y4980D02*
D03*
X276933Y7207D02*
D03*
X279160Y9434D02*
D03*
X281387Y11661D02*
D03*
X283614Y13888D02*
D03*
X285841Y16116D02*
D03*
X288069Y18343D02*
D03*
X290296Y20570D02*
D03*
X266633Y44233D02*
D03*
X264405Y42006D02*
D03*
X262178Y39779D02*
D03*
X259951Y37551D02*
D03*
X257724Y35324D02*
D03*
X255497Y33097D02*
D03*
X253270Y30870D02*
D03*
X251043Y28643D02*
D03*
D46*
X290296D02*
D03*
X288069Y30870D02*
D03*
X285841Y33097D02*
D03*
X283614Y35324D02*
D03*
X281387Y37551D02*
D03*
X279160Y39779D02*
D03*
X276933Y42006D02*
D03*
X274706Y44233D02*
D03*
X251043Y20570D02*
D03*
X253270Y18343D02*
D03*
X255497Y16116D02*
D03*
X257724Y13888D02*
D03*
X259951Y11661D02*
D03*
X262178Y9434D02*
D03*
X264405Y7207D02*
D03*
X266633Y4980D02*
D03*
D47*
X164370Y75590D02*
D03*
Y81890D02*
D03*
X138779Y75637D02*
D03*
Y81936D02*
D03*
X164370Y-75590D02*
D03*
Y-81890D02*
D03*
X140748Y-81890D02*
D03*
Y-75591D02*
D03*
D48*
X255905Y-30315D02*
D03*
Y-38583D02*
D03*
X285433Y-30315D02*
D03*
Y-38583D02*
D03*
D49*
X142717Y29921D02*
D03*
Y40945D02*
D03*
X162402D02*
D03*
Y29921D02*
D03*
X142717Y-29921D02*
D03*
Y-40945D02*
D03*
X162402D02*
D03*
Y-29921D02*
D03*
D50*
X142717Y35433D02*
D03*
X162402D02*
D03*
X142717Y-35433D02*
D03*
X162402D02*
D03*
D51*
X53347Y78740D02*
X57776Y74311D01*
X187008Y83819D02*
X194724Y91535D01*
X254843D01*
X266654Y79724D01*
X57776Y74311D02*
X104331D01*
X87598Y56890D02*
Y74311D01*
X85630Y54921D02*
X87598Y56890D01*
X187008Y63819D02*
X206535D01*
X266654Y-79724D02*
Y-73044D01*
X297244Y-42454D01*
Y49134D01*
X266654Y79724D02*
X297244Y49134D01*
D52*
X-7382Y-12500D02*
D03*
D53*
Y12565D02*
D03*
D54*
X194390Y-0D02*
D03*
D55*
X172244Y-31496D02*
D03*
Y-35433D02*
D03*
Y-39370D02*
D03*
X175197Y-41339D02*
D03*
Y-37402D02*
D03*
Y-33465D02*
D03*
Y-29528D02*
D03*
X132874Y-31496D02*
D03*
Y-35433D02*
D03*
Y-39370D02*
D03*
X129921Y-41339D02*
D03*
Y-37402D02*
D03*
Y-33465D02*
D03*
Y-29528D02*
D03*
X132874Y39370D02*
D03*
Y35433D02*
D03*
Y31496D02*
D03*
X129921Y29528D02*
D03*
Y33465D02*
D03*
Y37402D02*
D03*
Y41339D02*
D03*
X175197D02*
D03*
Y37402D02*
D03*
Y33465D02*
D03*
Y29528D02*
D03*
X172244Y31496D02*
D03*
Y35433D02*
D03*
Y39370D02*
D03*
X-37402Y41437D02*
D03*
Y33563D02*
D03*
X-9843D02*
D03*
Y41437D02*
D03*
X-14764Y33563D02*
D03*
Y41437D02*
D03*
X-19685Y33563D02*
D03*
Y41437D02*
D03*
X-23622Y33563D02*
D03*
Y41437D02*
D03*
X-27559Y33563D02*
D03*
Y41437D02*
D03*
X-32480Y33563D02*
D03*
Y41437D02*
D03*
X-37402Y37500D02*
D03*
X-9843D02*
D03*
Y-16437D02*
D03*
Y-8563D02*
D03*
X-37402D02*
D03*
Y-16437D02*
D03*
X-32480Y-8563D02*
D03*
Y-16437D02*
D03*
X-27559Y-8563D02*
D03*
Y-16437D02*
D03*
X-23622Y-8563D02*
D03*
Y-16437D02*
D03*
X-19685Y-8563D02*
D03*
Y-16437D02*
D03*
X-14764Y-8563D02*
D03*
Y-16437D02*
D03*
X-9843Y-12500D02*
D03*
X-37402D02*
D03*
X-9843Y8563D02*
D03*
Y16437D02*
D03*
X-37402D02*
D03*
Y8563D02*
D03*
X-32480Y16437D02*
D03*
Y8563D02*
D03*
X-27559Y16437D02*
D03*
Y8563D02*
D03*
X-23622Y16437D02*
D03*
Y8563D02*
D03*
X-19685Y16437D02*
D03*
Y8563D02*
D03*
X-14764Y16437D02*
D03*
Y8563D02*
D03*
X-9843Y12500D02*
D03*
X-37402D02*
D03*
Y-33563D02*
D03*
Y-41437D02*
D03*
X-9843D02*
D03*
Y-33563D02*
D03*
X-14764Y-41437D02*
D03*
Y-33563D02*
D03*
X-19685Y-41437D02*
D03*
Y-33563D02*
D03*
X-23622Y-41437D02*
D03*
Y-33563D02*
D03*
X-27559Y-41437D02*
D03*
Y-33563D02*
D03*
X-32480Y-41437D02*
D03*
Y-33563D02*
D03*
X-37402Y-37500D02*
D03*
X-9843D02*
D03*
X127953Y82677D02*
D03*
X153543Y-60039D02*
D03*
X270669Y17717D02*
D03*
Y13471D02*
D03*
X283465Y24915D02*
D03*
X280512Y27559D02*
D03*
X269426D02*
D03*
X270669Y36417D02*
D03*
X263779Y24606D02*
D03*
X265748Y31496D02*
D03*
X246063Y66929D02*
D03*
X152264Y60335D02*
D03*
X265748Y17717D02*
D03*
D56*
X221457Y10000D02*
D03*
X216535Y63819D02*
D03*
X187008D02*
D03*
X186772Y-88819D02*
D03*
D57*
X221457Y0D02*
D03*
Y-10000D02*
D03*
X206535Y63819D02*
D03*
X216535Y73819D02*
D03*
X206535D02*
D03*
X216535Y83819D02*
D03*
X206535D02*
D03*
X187008Y73819D02*
D03*
Y83819D02*
D03*
X216772Y-58819D02*
D03*
X206772D02*
D03*
X196772D02*
D03*
X186772D02*
D03*
X216772Y-88819D02*
D03*
X206772D02*
D03*
X196772D02*
D03*
D58*
X-23622Y37500D02*
D03*
Y-12500D02*
D03*
Y12500D02*
D03*
Y-37500D02*
D03*
D59*
X84355Y55118D02*
D03*
X54434D02*
D03*
D60*
X114473D02*
D03*
X24316D02*
D03*
X196000Y-12500D02*
D03*
Y-37500D02*
D03*
Y12500D02*
D03*
Y37500D02*
D03*
D61*
X106797Y-28740D02*
D03*
Y-72047D02*
D03*
X31993D02*
D03*
Y-28740D02*
D03*
D62*
X276654Y79724D02*
D03*
X266654D02*
D03*
X256654D02*
D03*
X286654D02*
D03*
X256654Y-79724D02*
D03*
X286654D02*
D03*
X276654D02*
D03*
X266654D02*
D03*
M02*
